<svg xmlns="http://www.w3.org/2000/svg" viewBox="0 0 150 150"><defs><style>.cls-1{isolation:isolate;}.cls-2{fill:#67c8c3;}.cls-10,.cls-15,.cls-3{fill:#5ba397;}.cls-11,.cls-12,.cls-13,.cls-14,.cls-16,.cls-19,.cls-22,.cls-4,.cls-5,.cls-8{fill:none;}.cls-4,.cls-5{stroke:#67c8c3;}.cls-11,.cls-12,.cls-13,.cls-14,.cls-15,.cls-4,.cls-5,.cls-6,.cls-7,.cls-8{stroke-miterlimit:10;}.cls-13,.cls-4{stroke-width:0.5px;}.cls-20,.cls-6{fill:#fff;}.cls-19,.cls-22,.cls-6,.cls-7,.cls-8{stroke:#815e8f;}.cls-7{fill:#b49dca;}.cls-9{fill:#ededed;mix-blend-mode:screen;}.cls-10,.cls-15{stroke:#5ba397;stroke-width:0.25px;}.cls-10,.cls-19,.cls-22{stroke-linecap:round;stroke-linejoin:round;}.cls-11,.cls-12,.cls-13,.cls-14{stroke:#b49dca;}.cls-11{stroke-width:6px;}.cls-12{stroke-width:2px;}.cls-17{opacity:0.25;mix-blend-mode:darken;}.cls-18{fill:#815e8f;}.cls-19{stroke-width:3px;}.cls-21{opacity:0.76;}.cls-22{stroke-width:4px;}</style></defs><title>Artboard 1</title><g class="cls-1"><g id="Layer_1" data-name="Layer 1"><path class="cls-2" d="M72.94,23h-.47a4.58,4.58,0,0,0-.53,0H71.8l-.27,0A23.82,23.82,0,0,0,60,27.21a24.45,24.45,0,0,0-6.73,7.16h4.79A1.77,1.77,0,0,1,60,35.93a1.44,1.44,0,0,1-.15.61,1.59,1.59,0,0,1-.41.5,2.18,2.18,0,0,1-.95.43l-.28,0H51.62c-.11.25-.22.5-.32.75-.28.65-.54,1.31-.76,2l0,.15h7.6A1.78,1.78,0,0,1,60,41.89a1.48,1.48,0,0,1,0,.21,1.82,1.82,0,0,1-1.9,1.4H49.67c-.05.24-.09.49-.13.73-.13.71-.24,1.43-.32,2.14h8.87a1.6,1.6,0,1,1,0,3.13H49c-.13,2.8-.06,5.63,0,8.41,0,.29,0,.57,0,.86.05,1,.15,2,.22,3a17.92,17.92,0,0,1,0,3,9.48,9.48,0,0,1-.26,1.49,5.75,5.75,0,0,1-.21.67,4.77,4.77,0,0,1-.36.62,4.23,4.23,0,0,1-.69.83,3,3,0,0,1-2,.81,2.89,2.89,0,0,1-2.26-1c-1.35-1.53-1-3.62-.85-5.46a7.78,7.78,0,0,0-.7-4.48c-.76-1.34-2.6-2.3-3.93-.8a3.71,3.71,0,0,0-.81,2c-.14,1.38-.2,2.76-.22,4.14C36.69,75.68,38.11,89,46.41,98.41a31.8,31.8,0,0,0,12.27,8.41,32.59,32.59,0,0,0,6.91,2c.31,0,3.54.5,4.35.55.1,0,.18.1.09.21v12.4l-9.15,0A3.87,3.87,0,0,0,56.75,126H89.42A3.79,3.79,0,0,0,85.34,122H76.11v-3q0-4.61,0-9.22a.32.32,0,0,1,0-.14.24.24,0,0,1,.11-.09,6.07,6.07,0,0,1,2-.34,34.85,34.85,0,0,0,17-6.56,32.36,32.36,0,0,0,8.88-10.93,49.3,49.3,0,0,0,4.25-12.93c1.21-6.17,2.25-13,.84-19.22-.28-1.22-.78-2.57-2.14-2.87a2.6,2.6,0,0,0-2.63,1.08,2.26,2.26,0,0,0-.16.26,5,5,0,0,0-.51,1.84,18.79,18.79,0,0,0-.06,2.25c0,.79.06,1.58.06,2.37a11.31,11.31,0,0,1-.14,2.17,3.13,3.13,0,0,1-1.09,2,3,3,0,0,1-1.38.6,3.27,3.27,0,0,1-1.64-.18L99.37,69a3.43,3.43,0,0,1-1.49-1.72,8.38,8.38,0,0,1-.58-2.14c0-.3-.08-.61-.11-.94s-.06-.82-.07-1.24,0-1.13,0-1.69c.07-3.3.26-6.63.35-9.94v-.57c0-.41,0-.82,0-1.23H88.67a1.6,1.6,0,1,1,0-3.13h9.19c-.18-1-.37-2-.58-2.87h-9a1.6,1.6,0,1,1,0-3.13h8c-.31-1-.63-2-1-2.87h-7a1.76,1.76,0,0,1-1.91-1.56,1.76,1.76,0,0,1,1.91-1.57h6a23.88,23.88,0,0,0-9.55-8.91,23,23,0,0,0-7.27-2.23A25.28,25.28,0,0,0,73.3,23M70.1,98.14a4.35,4.35,0,0,1,0,1,14.88,14.88,0,0,0-.07,1.76c0,.76.16,1.71-.48,2.27a2.09,2.09,0,0,1-1.79.21A31.92,31.92,0,0,1,52,95.22a28.83,28.83,0,0,1-3.31-3.75,29.37,29.37,0,0,1-4.81-10.56c-.41-1.73-1.09-4.34.84-5.43a2.57,2.57,0,0,1,2.34,0,3.61,3.61,0,0,1,2,2.93,33.89,33.89,0,0,0,.92,4.11,20.37,20.37,0,0,0,4.53,7.39c.4.42.81.83,1.24,1.22A28,28,0,0,0,65,96.63c.28.1.55.19.83.27a8.25,8.25,0,0,0,1.71.28c.48,0,1-.05,1.47,0a1.55,1.55,0,0,1,.69.28C70,97.48,70.1,98.14,70.1,98.14Zm6.25-.66a.54.54,0,0,1,.15-.15.92.92,0,0,1,.43-.11c.53,0,1.06,0,1.59,0a10.26,10.26,0,0,0,1.55-.27,16.78,16.78,0,0,0,3-1.11,29.69,29.69,0,0,0,7.43-4.71c.43-.39.85-.8,1.25-1.22a20.51,20.51,0,0,0,4.53-7.39,38.15,38.15,0,0,0,.92-4.11,3.59,3.59,0,0,1,2-2.93,2.55,2.55,0,0,1,2.33,0c1.94,1.09,1.25,3.7.85,5.43a29.22,29.22,0,0,1-4.82,10.56,28.11,28.11,0,0,1-3.31,3.75,31.85,31.85,0,0,1-15.76,8.11,2.09,2.09,0,0,1-1.79-.21c-.64-.56-.51-1.51-.48-2.27,0-.54,0-1.08,0-1.62a8.33,8.33,0,0,1,0-1.22S76.17,97.48,76.35,97.48Z"/><path class="cls-3" d="M48.91,51.19h8.27a2.78,2.78,0,0,0,2.42-1.3A2.93,2.93,0,0,0,60,48.42,2,2,0,0,1,58.07,50H48.94Z"/><path class="cls-4" d="M93.72,49.5c1.23,9.6.63,22.65-2.31,40.39,0,0,4-4.78,5-7.87a.64.64,0,0,0,0-.07,4.64,4.64,0,0,0,.12-.47.32.32,0,0,0,0-.14"/><path class="cls-5" d="M97.19,64.19v0l.28-12.87v-.57"/><path class="cls-6" d="M60.6,63.72a5.81,5.81,0,0,0-1.2.26c-3.38.51-6.83,3.58-6.42,7.08.68,5.83,8.47,6,10.15,5.34,6.44-1,8.3-5.76,8.3-5.76-2.28-7.82-10-7-10-7A5.2,5.2,0,0,0,60.6,63.72Z"/><circle class="cls-7" cx="61.73" cy="70.04" r="6.4"/><path class="cls-8" d="M60.15,63.73A6.54,6.54,0,0,0,59,64c-3.38.51-6.83,3.59-6.42,7.09.68,5.82,8.47,6,10.15,5.34,6.44-1,8.29-5.76,8.29-5.76-2.27-7.82-10-7-10-7A5.07,5.07,0,0,0,60.15,63.73Z"/><path class="cls-9" d="M96.89,50c0,5.4-.52,11.36-.52,11.36A22.79,22.79,0,0,0,93.81,50Z"/><path class="cls-10" d="M59.16,125.46s.44-2.93,6.91-2.93a38.35,38.35,0,0,0-6.14.09,3,3,0,0,0-2.6,2.84Z"/><path class="cls-10" d="M69.66,108.38c-1.59-.24-33,2.2-30.66-51l-.62.27c-.73.66-.67,1.63-.76,2.52-.82,7.89-2.41,46.84,32.45,48.48C69.72,108.7,70.56,108.51,69.66,108.38Z"/><path class="cls-6" d="M83.54,76.57a3.44,3.44,0,0,1-.77-.17c-6.43-1-8.29-5.76-8.29-5.76,2.27-7.82,10-7,10-7l2,.29c3.38.51,6.83,3.58,6.42,7.08C92.32,76.24,86.09,76.92,83.54,76.57Z"/><circle class="cls-7" cx="84.23" cy="70.15" r="6.4"/><path class="cls-8" d="M83.54,76.57a3.44,3.44,0,0,1-.77-.17c-6.43-1-8.29-5.76-8.29-5.76,2.27-7.82,10-7,10-7l2,.29c3.38.51,6.83,3.58,6.42,7.08C92.32,76.24,86.09,76.92,83.54,76.57Z"/><path class="cls-3" d="M60.53,42.45c0,.14,0,.27-.05.39A2.85,2.85,0,0,1,57.64,45H50c.1-.62.18-.91.21-1.17h8.42A1.82,1.82,0,0,0,60.53,42.45Z"/><path class="cls-3" d="M60.5,36.38a2.63,2.63,0,0,1-.57,1.69,2.77,2.77,0,0,1-2.16,1H51.62A6.86,6.86,0,0,1,52,38h6.59l.28,0a1.68,1.68,0,0,0,1-.43,1.59,1.59,0,0,0,.41-.5A2.06,2.06,0,0,0,60.5,36.38Z"/><line class="cls-11" x1="17.35" y1="84.78" x2="17.35" y2="81.71"/><line class="cls-11" x1="17.35" y1="89.89" x2="17.35" y2="86.82"/><line class="cls-11" x1="18.35" y1="85.8" x2="21.42" y2="85.8"/><line class="cls-11" x1="13.28" y1="85.8" x2="16.35" y2="85.8"/><line class="cls-11" x1="18.12" y1="85.22" x2="20.29" y2="83.05"/><line class="cls-11" x1="18.12" y1="86.38" x2="20.29" y2="88.55"/><line class="cls-11" x1="14.42" y1="88.64" x2="16.59" y2="86.47"/><line class="cls-11" x1="14.42" y1="82.9" x2="16.59" y2="85.07"/><line class="cls-12" x1="129.78" y1="68.68" x2="129.78" y2="65.61"/><line class="cls-12" x1="129.78" y1="73.78" x2="129.78" y2="70.71"/><line class="cls-12" x1="130.78" y1="69.69" x2="133.85" y2="69.69"/><line class="cls-12" x1="125.72" y1="69.69" x2="128.79" y2="69.69"/><line class="cls-12" x1="130.56" y1="69.12" x2="132.73" y2="66.95"/><line class="cls-12" x1="130.56" y1="70.27" x2="132.73" y2="72.44"/><line class="cls-12" x1="126.85" y1="72.54" x2="129.02" y2="70.37"/><line class="cls-12" x1="126.85" y1="66.79" x2="129.02" y2="68.96"/><line class="cls-13" x1="109.28" y1="26.08" x2="109.28" y2="23.01"/><line class="cls-13" x1="109.28" y1="31.19" x2="109.28" y2="28.12"/><line class="cls-13" x1="110.28" y1="27.1" x2="113.35" y2="27.1"/><line class="cls-13" x1="105.21" y1="27.1" x2="108.28" y2="27.1"/><line class="cls-13" x1="110.06" y1="26.53" x2="112.23" y2="24.35"/><line class="cls-13" x1="110.06" y1="27.68" x2="112.23" y2="29.85"/><line class="cls-13" x1="106.35" y1="29.95" x2="108.52" y2="27.77"/><line class="cls-13" x1="106.35" y1="24.2" x2="108.52" y2="26.37"/><line class="cls-14" x1="39.96" y1="13.09" x2="39.96" y2="10.02"/><line class="cls-14" x1="39.96" y1="18.2" x2="39.96" y2="15.13"/><line class="cls-14" x1="40.96" y1="14.11" x2="44.03" y2="14.11"/><line class="cls-14" x1="35.89" y1="14.11" x2="38.96" y2="14.11"/><line class="cls-14" x1="40.73" y1="13.53" x2="42.9" y2="11.36"/><line class="cls-14" x1="40.73" y1="14.69" x2="42.9" y2="16.86"/><line class="cls-14" x1="37.03" y1="16.95" x2="39.2" y2="14.78"/><line class="cls-14" x1="37.03" y1="11.21" x2="39.2" y2="13.38"/><path class="cls-10" d="M54.11,33.86c-.17-.2,3.35-5.55,10.37-8.52,0,0-9.29,5.47-8.21,8.52Z"/><path class="cls-15" d="M49.3,50.73h8.1c1.34.38-5.88,2.21-7.81,11.51C49.59,62.24,49,51.05,49.3,50.73Z"/><line class="cls-16" x1="17.35" y1="16.98" x2="16.4" y2="7.62"/><g class="cls-17"><rect class="cls-18" x="-176.65" y="-77.41" width="218.72" height="0.83" transform="translate(-169.32 -83.85) rotate(135)"/><rect class="cls-18" x="-174.54" y="-75.3" width="218.72" height="0.83" transform="translate(-164.22 -81.74) rotate(135)"/><rect class="cls-18" x="-172.43" y="-73.19" width="218.72" height="0.83" transform="translate(-159.13 -79.63) rotate(135)"/><rect class="cls-18" x="-170.32" y="-71.08" width="218.72" height="0.83" transform="translate(-154.03 -77.52) rotate(135)"/><rect class="cls-18" x="-168.21" y="-68.97" width="218.72" height="0.83" transform="translate(-148.94 -75.41) rotate(135)"/><rect class="cls-18" x="-166.1" y="-66.86" width="218.72" height="0.83" transform="translate(-143.84 -73.3) rotate(135)"/><rect class="cls-18" x="-163.99" y="-64.75" width="218.72" height="0.83" transform="translate(-138.75 -71.19) rotate(135)"/><rect class="cls-18" x="-161.88" y="-62.64" width="218.72" height="0.83" transform="translate(-133.65 -69.08) rotate(135)"/><rect class="cls-18" x="-159.77" y="-60.53" width="218.72" height="0.83" transform="translate(-128.56 -66.97) rotate(135)"/><rect class="cls-18" x="-157.66" y="-58.41" width="218.72" height="0.83" transform="translate(-123.46 -64.86) rotate(135)"/><rect class="cls-18" x="-155.55" y="-56.3" width="218.72" height="0.83" transform="translate(-118.37 -62.75) rotate(135)"/><rect class="cls-18" x="-153.44" y="-54.19" width="218.72" height="0.83" transform="translate(-113.27 -60.64) rotate(135)"/><rect class="cls-18" x="-151.33" y="-52.08" width="218.72" height="0.83" transform="translate(-108.18 -58.53) rotate(135)"/><rect class="cls-18" x="-149.22" y="-49.97" width="218.72" height="0.83" transform="translate(-103.08 -56.42) rotate(135)"/><rect class="cls-18" x="-147.1" y="-47.86" width="218.72" height="0.83" transform="translate(-97.99 -54.31) rotate(135)"/><rect class="cls-18" x="-144.99" y="-45.75" width="218.72" height="0.83" transform="translate(-92.89 -52.2) rotate(135)"/><rect class="cls-18" x="-142.88" y="-43.64" width="218.72" height="0.83" transform="translate(-87.8 -50.09) rotate(135)"/><rect class="cls-18" x="-140.77" y="-41.53" width="218.72" height="0.83" transform="translate(-82.7 -47.98) rotate(135)"/><rect class="cls-18" x="-138.66" y="-39.42" width="218.72" height="0.83" transform="translate(-77.61 -45.87) rotate(135)"/></g><path class="cls-19" d="M72.94,23h-.47a4.58,4.58,0,0,0-.53,0H71.8l-.27,0A23.82,23.82,0,0,0,60,27.21a24.45,24.45,0,0,0-6.73,7.16h4.79A1.77,1.77,0,0,1,60,35.93a1.44,1.44,0,0,1-.15.61,1.59,1.59,0,0,1-.41.5,2.18,2.18,0,0,1-.95.43l-.28,0H51.62c-.11.25-.22.5-.32.75-.28.65-.54,1.31-.76,2l0,.15h7.6A1.78,1.78,0,0,1,60,41.89a1.48,1.48,0,0,1,0,.21,1.82,1.82,0,0,1-1.9,1.4H49.67c-.05.24-.09.49-.13.73-.13.71-.24,1.43-.32,2.14h8.87a1.6,1.6,0,1,1,0,3.13H49c-.13,2.8-.06,5.63,0,8.41,0,.29,0,.57,0,.86.05,1,.15,2,.22,3a17.92,17.92,0,0,1,0,3,9.48,9.48,0,0,1-.26,1.49,5.75,5.75,0,0,1-.21.67,4.77,4.77,0,0,1-.36.62,4.23,4.23,0,0,1-.69.83,3,3,0,0,1-2,.81,2.89,2.89,0,0,1-2.26-1c-1.35-1.53-1-3.62-.85-5.46a7.78,7.78,0,0,0-.7-4.48c-.76-1.34-2.6-2.3-3.93-.8a3.71,3.71,0,0,0-.81,2c-.14,1.38-.2,2.76-.22,4.14C36.69,75.68,38.11,89,46.41,98.41a31.8,31.8,0,0,0,12.27,8.41,32.59,32.59,0,0,0,6.91,2c.31,0,3.54.5,4.35.55.1,0,.18.1.09.21v12.4l-9.15,0A3.87,3.87,0,0,0,56.75,126H89.42A3.79,3.79,0,0,0,85.34,122H76.11v-3q0-4.61,0-9.22a.32.32,0,0,1,0-.14.24.24,0,0,1,.11-.09,6.07,6.07,0,0,1,2-.34,34.85,34.85,0,0,0,17-6.56,32.36,32.36,0,0,0,8.88-10.93,49.3,49.3,0,0,0,4.25-12.93c1.21-6.17,2.25-13,.84-19.22-.28-1.22-.78-2.57-2.14-2.87a2.6,2.6,0,0,0-2.63,1.08,2.26,2.26,0,0,0-.16.26,5,5,0,0,0-.51,1.84,18.79,18.79,0,0,0-.06,2.25c0,.79.06,1.58.06,2.37a11.31,11.31,0,0,1-.14,2.17,3.13,3.13,0,0,1-1.09,2,3,3,0,0,1-1.38.6,3.27,3.27,0,0,1-1.64-.18L99.37,69a3.43,3.43,0,0,1-1.49-1.72,8.38,8.38,0,0,1-.58-2.14c0-.3-.08-.61-.11-.94s-.06-.82-.07-1.24,0-1.13,0-1.69c.07-3.3.26-6.63.35-9.94v-.57c0-.41,0-.82,0-1.23H88.67a1.6,1.6,0,1,1,0-3.13h9.19c-.18-1-.37-2-.58-2.87h-9a1.6,1.6,0,1,1,0-3.13h8c-.31-1-.63-2-1-2.87h-7a1.76,1.76,0,0,1-1.91-1.56,1.76,1.76,0,0,1,1.91-1.57h6a23.88,23.88,0,0,0-9.55-8.91,23,23,0,0,0-7.27-2.23A25.28,25.28,0,0,0,73.3,23"/><path class="cls-18" d="M87.18,62c-1.43.06-3.05-.67-4.44-.39a41.66,41.66,0,0,0-4.43,1c-.08-.21-.08-.57-.23-.64a1.43,1.43,0,0,1-.93-1c-.1-.2.36-.18.15-.33.39-.13,1-.46.56-.54-.2-.16-.7.2-1,0s-.13-.7-.41-.94l-.61.31c-.27-.12-.16-.69-.32-.61-.62,0-1.19.63-1.8,1.08-.13-.18-.47-.21-.22-.55A11,11,0,0,1,78.15,57a17.24,17.24,0,0,1,4.66-.53,25.1,25.1,0,0,1,8.59,1.61c.68.35,0,.58-.59.77.19-.06.09.26.28.2a1.19,1.19,0,0,1-1.2.71l.44.13c.12.15-.1.33-.16.54-.15,0-.29-.08-.33,0l-.12.43.57.17c-.14,0-.29-.08-.32,0l-.13.43c-.31,0-.67-.31-1-.28l-.08.33a3.36,3.36,0,0,0,1,.28c-.17.06-.2.17-.26.39-.44,0-.77-.46-1.27-.23l.41.11C88.2,62.59,87.63,62,87.18,62Z"/><path class="cls-18" d="M65.51,60.55c-1.28,1.1-3.3,1.48-4.81,2.32A11,11,0,0,1,54,64.21c0-.22.26-.54.08-.67a1,1,0,0,1-.54-1.34c0-.21.5.1.37-.16.5.05,1.33,0,.85-.27-.14-.25-.8-.05-.9-.43s.25-.64.17-1l-.51-.12c-.06-.25.3-.63.18-.66A3.53,3.53,0,0,0,52.65,59c.06-.09.08-.21.13-.3a.38.38,0,0,1,.25-.15c1.39.66,3.7.32,5.94-.54a52.78,52.78,0,0,0,6.71-3.21c.46-.17.46.38.26.91.06-.17.24.11.3-.06A1.09,1.09,0,0,1,66,57l.39-.24c.19,0,.18.29.3.48-.13.08-.26.16-.2.26l.23.39.54-.34c-.14.09-.27.17-.21.27l.24.38c-.21.27-.74.32-.95.58l.17.29a3.37,3.37,0,0,0,1-.58c-.07.18,0,.28.1.47-.36.36-.94.31-1.2.84l.42-.24C66.82,60.22,65.89,60.23,65.51,60.55Z"/><path class="cls-20" d="M76.11,25.23s9.47.94,13.21,7c0,0-3.12-1-3.82.67C85.5,32.92,87.63,28.82,76.11,25.23Z"/><path class="cls-18" d="M64.88,76.28a.62.62,0,0,0-.24.08c-.3-.27-.55.14-.87,0s-.51,0-.79-.07c-.11.39-.55-.07-.76.19-.14,0-.2.21-.1.27-.19,0-.14-.15-.3-.07l0-.14c-.06,0-.12-.1-.19-.07l-.06.14c-.2-.14-.29.14-.5.07.14.08,0,.08,0,.19,0,0-.16-.06-.12-.11-.18,0-.3.23-.42,0l-.06.07c-.09.1-.19,0-.29,0V77A.21.21,0,0,1,60,77c-.17,0-.35.19-.51.31-.18,0-.07.16-.21.24s-.25.11-.33,0c.13,0,.11-.24.26-.23-.07-.06.23-.13.08-.2-.24.22-.62.15-.83.38,0-.21-.34,0-.45,0l0,0a.38.38,0,0,0-.3.11.77.77,0,0,1-.53.09c-.27-.08-.46.23-.5.39.32.09.48-.28.77,0-.2,0-.19.08-.3.22l.1,0,0,.06s0,.14,0,.21l.21-.07c-.13,0-.08-.13-.07-.21h.12s-.12,0-.05-.1.1-.06.17,0l0,.18c.1-.16.29.11.4,0l.08.14.13,0v.06l.16,0c.08-.05.07-.13.07-.19s.12-.06.16,0l-.05.12h.07s.05-.08.06-.12.11,0,.23,0,.23,0,.21-.13a1.4,1.4,0,0,0,.58,0l.06-.09c.23,0,.3-.08.52-.14v0l.1-.12c.18,0,.22-.15.43-.06s.29-.12.34-.3.23,0,.32,0l-.05.07.08.06c.13,0,.14,0,.31-.07s.18-.22.28-.32l.23.16v0c.13-.2.1-.09.42-.09v-.12c.1.13.15,0,.29,0s.27.2.4.06c.23.12.38-.18.59-.13s.24-.08.23.11h0v.19l0-.13c.07.06.18,0,.21.2l.23-.19a.2.2,0,0,1-.13,0v0s-.16,0-.2-.07l.07,0c-.07,0,0-.1,0-.11s.12,0,.25,0,.06.05,0,.08.23.13.27,0v0A1.89,1.89,0,0,0,64.88,76.28Z"/><path class="cls-18" d="M89.14,77.21a.82.82,0,0,0-.3-.07c-.24-.45-.68-.13-1-.41a6.33,6.33,0,0,1-.93-.3c-.2.38-.65-.21-.94,0-.17,0-.26.18-.15.26-.22,0-.15-.17-.34-.12l.07-.13c-.06,0-.13-.11-.21-.09l-.1.14c-.22-.15-.34.12-.58,0,.16.1-.07.08,0,.19,0-.06-.18-.07-.14-.11-.2,0-.36.22-.5,0l-.06.06c-.12.1-.23,0-.35,0v.08a.28.28,0,0,1-.29,0c-.21,0-.42.19-.61.32-.21,0-.08.16-.25.24s-.3.13-.39,0c.16-.05.13-.26.31-.25-.08-.06.27-.13.1-.2-.29.23-.72.17-1,.41,0-.2-.39,0-.51,0l0-.06a.55.55,0,0,0-.35.14,1,1,0,0,1-.61.12c-.31,0-.54.28-.59.45.36,0,.56-.34.89-.09-.23,0-.22.09-.35.25l.11,0-.05.06c.06.06,0,.15,0,.21l.25-.08c-.16,0-.09-.13-.08-.21l.14,0s-.13,0-.05-.1.11-.07.19,0l-.06.19c.12-.18.34.08.46-.09l.1.15.14-.06v.06l.19,0c.09,0,.08-.13.09-.19s.14-.07.18,0l-.07.12h.09c-.06,0,.06-.08.07-.12.18,0,.13,0,.26,0,.1-.09.28,0,.25-.14a2.83,2.83,0,0,0,.67-.06l.08-.1c.26,0,.35-.09.6-.14v0l.12-.12c.2,0,.26-.16.49-.06s.35-.11.42-.29.27,0,.37,0l-.06.06.08.07c.15,0,.16,0,.36-.05.27.08.23-.19.36-.29l.25.19v0c.18-.18.14-.09.49,0V77.1c.1.14.18,0,.34,0s.26.25.43.16c.23.19.48-.08.7.07s.28,0,.22.2h0l-.05.18.08-.11c.06.07.18.12.15.28l.3-.06a.25.25,0,0,1-.12-.11l0,0s-.16-.09-.18-.17h.08c0-.08,0-.08.07-.08.11.16.14,0,.27.09s.06.09,0,.1.18.24.28.15v0A1.33,1.33,0,0,0,89.14,77.21Z"/><circle class="cls-21" cx="61.73" cy="71.67" r="2.88"/><circle class="cls-21" cx="83.54" cy="71.32" r="2.94"/><path class="cls-22" d="M70.1,98.14a4.35,4.35,0,0,1,0,1,14.88,14.88,0,0,0-.07,1.76c0,.76.16,1.71-.48,2.27a2.09,2.09,0,0,1-1.79.21A31.92,31.92,0,0,1,52,95.22a28.83,28.83,0,0,1-3.31-3.75,29.37,29.37,0,0,1-4.81-10.56c-.41-1.73-1.09-4.34.84-5.43a2.57,2.57,0,0,1,2.34,0,3.61,3.61,0,0,1,2,2.93,33.89,33.89,0,0,0,.92,4.11,20.37,20.37,0,0,0,4.53,7.39c.4.42.81.83,1.24,1.22A28,28,0,0,0,65,96.63c.28.1.55.19.83.27a8.25,8.25,0,0,0,1.71.28c.48,0,1-.05,1.47,0a1.55,1.55,0,0,1,.69.28C70,97.48,70.1,98.14,70.1,98.14Z"/><path class="cls-22" d="M76.25,97.36a1.66,1.66,0,0,1,.69-.27c.49-.06,1,0,1.47,0a7.61,7.61,0,0,0,1.71-.26c.28-.08.55-.16.84-.26a28,28,0,0,0,9.39-5.44c.43-.38.84-.79,1.25-1.2a20.36,20.36,0,0,0,4.59-7.35,32.49,32.49,0,0,0,1-4.1,3.61,3.61,0,0,1,2-2.92,2.57,2.57,0,0,1,2.34,0c1.92,1.1,1.22,3.71.79,5.43a29.49,29.49,0,0,1-4.91,10.52A28.8,28.8,0,0,1,94,95.27a31.89,31.89,0,0,1-15.85,8,2.07,2.07,0,0,1-1.78-.22c-.64-.57-.5-1.52-.46-2.28A14.86,14.86,0,0,0,75.87,99a5.06,5.06,0,0,1,0-1S76,97.36,76.25,97.36Z"/></g></g></svg>