<svg xmlns="http://www.w3.org/2000/svg" viewBox="0 0 150 150">
    <defs>
        <style>
        .cls-1{isolation:isolate;}.cls-2{fill:#67c8c3;}.cls-14,.cls-3,.cls-9{fill:#5ba397;}.cls-lines,.cls-15,.cls-20,.cls-21,.cls-grouped1,.cls-4,.cls-7{fill:none;}
        .cls-4{stroke:#67c8c3;stroke-width:0.5px;}.cls-14,.cls-18,.cls-21,.cls-grouped1,.cls-4,.cls-5,.cls-6,.cls-7{stroke-miterlimit:10;}.cls-16,.cls-18,.cls-5{fill:#fff;}
        .cls-18,.cls-20,.cls-5,.cls-6,.cls-7{stroke:#815e8f;}.cls-lines,.cls-lines,.cls-6{fill:#b49dca;}.cls-8{fill:#ededed;mix-blend-mode:screen;}.cls-16,.cls-8{opacity:0.65;}
        .cls-14,.cls-9{stroke:#5ba397;}.cls-20,.cls-9{stroke-linecap:round;}.cls-lines,.cls-lines,.cls-9{stroke-linejoin:round;}.cls-14,.cls-21,.cls-9{stroke-width:0.25px;}
        .cls-grouped{opacity:0;stroke:#b49dca;}.cls-lines{stroke-linecap:square;}.cls-17,.cls-19{fill:#815e8f;}.cls-18,.cls-20,.cls-grouped1{stroke-width:2px;}
        .cls-19,.cls-22{mix-blend-mode:multiply;}.cls-20{stroke-linejoin:bevel;}.cls-21{stroke:#000;}.cls-22{opacity:0.8;}.cls-grouped1{stroke:#c999e0;opacity:0.2;mix-blend-mode:luminosity;}
        </style>
    </defs>
    <title></title>
    <g class="cls-1">
        <g id="Layer_1" data-name="Layer 1">
            <path class="cls-2" d="M77,134.65H91.15a3.79,3.79,0,0,0-4.08-4.07H77.84v-3.05q0-4.61,0-9.22a.32.32,0,0,1,0-.14.24.24,0,0,1,.11-.09,6.07,6.07,0,0,1,2-.34,34.85,34.85,0,0,0,17-6.56,32.36,32.36,0,0,0,8.88-10.93,49.3,49.3,0,0,0,4.25-12.93c1.21-6.17,2.25-13,.84-19.22-.28-1.22-.78-2.57-2.14-2.87a2.6,2.6,0,0,0-2.63,1.08,2.26,2.26,0,0,0-.16.26,5,5,0,0,0-.51,1.84,18.79,18.79,0,0,0-.06,2.25c0,.79.06,1.58.06,2.37a11.31,11.31,0,0,1-.14,2.17,3.13,3.13,0,0,1-1.09,2,3,3,0,0,1-1.38.6,3.27,3.27,0,0,1-1.64-.18l-.22-.09a3.43,3.43,0,0,1-1.49-1.72A8.38,8.38,0,0,1,99,73.72c0-.3-.08-.61-.11-.94s-.06-.82-.07-1.24,0-1.13,0-1.69c.07-3.3.26-6.63.35-9.94v-.57c0-.41,0-.82,0-1.23H90.4a1.6,1.6,0,1,1,0-3.13h9.2c-.18-1-.37-2-.58-2.87h-9a1.6,1.6,0,1,1,0-3.13h8c-.31-1-.63-2-1-2.87h-7a1.6,1.6,0,1,1,0-3.13h6a23.88,23.88,0,0,0-9.55-8.91,23,23,0,0,0-7.27-2.23,25.28,25.28,0,0,0-4.17-.2H74.2a4.58,4.58,0,0,0-.53,0h-.14l-.27,0a23.82,23.82,0,0,0-11.5,4.11A24.45,24.45,0,0,0,55,43h4.79a1.77,1.77,0,0,1,1.91,1.56,1.44,1.44,0,0,1-.15.61,1.59,1.59,0,0,1-.41.5,2.18,2.18,0,0,1-1,.43l-.28,0H53.35c-.11.25-.22.5-.32.75-.28.65-.54,1.31-.76,2,0,.05,0,.1-.05.15h7.6a1.78,1.78,0,0,1,1.91,1.52,1.48,1.48,0,0,1,0,.21,1.82,1.82,0,0,1-1.9,1.4H51.4c0,.24-.09.49-.13.73-.13.71-.24,1.43-.32,2.14h8.87a1.6,1.6,0,1,1,0,3.13H50.69c-.13,2.8-.06,5.63,0,8.41,0,.29,0,.57,0,.86,0,1,.15,2,.22,3a17.92,17.92,0,0,1,0,3,9.48,9.48,0,0,1-.26,1.49,5.75,5.75,0,0,1-.21.67,4.77,4.77,0,0,1-.36.62,4.23,4.23,0,0,1-.69.83,3,3,0,0,1-2,.81,2.89,2.89,0,0,1-2.26-1c-1.35-1.53-1-3.62-.85-5.46a7.78,7.78,0,0,0-.7-4.48c-.76-1.34-2.6-2.3-3.93-.8a3.71,3.71,0,0,0-.81,2c-.14,1.38-.2,2.76-.22,4.14C38.42,84.29,39.84,97.6,48.14,107a31.8,31.8,0,0,0,12.27,8.41,32.59,32.59,0,0,0,6.91,1.95c.31.05,3.54.5,4.35.55.1,0,.18.1.09.21v12.4l-9.15,0a3.87,3.87,0,0,0-4.13,4.13Z"/>
            <path class="cls-3" d="M50.64,59.8h8.27a2.78,2.78,0,0,0,2.42-1.3A2.83,2.83,0,0,0,61.71,57,2,2,0,0,1,59.8,58.6H50.67Z"/>
            <path class="cls-4" d="M95.45,58.11c1.23,9.6.63,22.65-2.31,40.39,0,0,4-4.78,5-7.87a.64.64,0,0,0,0-.07,4.64,4.64,0,0,0,.12-.47.32.32,0,0,0,0-.14"/>
            <path class="cls-5" d="M62.52,72.33a5.81,5.81,0,0,0-1.2.26c-3.38.51-6.83,3.58-6.42,7.08.68,5.83,8.48,6,10.15,5.34,6.44-1,8.3-5.76,8.3-5.76-2.28-7.82-10-7-10-7A6.38,6.38,0,0,0,62.52,72.33Z"/>
            <circle class="cls-6" cx="63.56" cy="78.64" r="6.4"/>
            <path class="cls-7" d="M62.52,72.33a5.81,5.81,0,0,0-1.2.26c-3.38.51-6.83,3.58-6.42,7.08.68,5.83,8.48,6,10.15,5.34,6.44-1,8.3-5.76,8.3-5.76-2.28-7.82-10-7-10-7A6.38,6.38,0,0,0,62.52,72.33Z"/>
            <path class="cls-8" d="M98.62,58.61C98.59,64,98.11,70,98.11,70a22.94,22.94,0,0,0-2.57-11.37Z"/>
            <path class="cls-9" d="M60.89,134.06s.44-2.92,6.91-2.92a39.66,39.66,0,0,0-6.13.08,3,3,0,0,0-2.61,2.84Z"/>
            <path class="cls-9" d="M71.39,117c-1.59-.23-32.95,2.21-30.66-51l-.61.28a3.53,3.53,0,0,0-.77,2.52c-.82,7.89-2.41,46.84,32.46,48.48C71.45,117.31,72.3,117.12,71.39,117Z"/>
            <path class="cls-5" d="M85.27,85.18A3.58,3.58,0,0,1,84.5,85c-6.43-1-8.29-5.76-8.29-5.76,2.28-7.82,10-7,10-7s.42.08,2,.3c3.38.51,6.83,3.58,6.42,7.08C94.05,84.85,87.82,85.53,85.27,85.18Z"/>
            <circle class="cls-6" cx="85.96" cy="78.76" r="6.4"/>
            <path class="cls-7" d="M85.27,85.18A3.58,3.58,0,0,1,84.5,85c-6.43-1-8.29-5.76-8.29-5.76,2.28-7.82,10-7,10-7s.42.08,2,.3c3.38.51,6.83,3.58,6.42,7.08C94.05,84.85,87.82,85.53,85.27,85.18Z"/>
            <path class="cls-3" d="M62.26,51.06a2.6,2.6,0,0,1,0,.39,2.83,2.83,0,0,1-2.83,2.18H51.73c.11-.62.19-.91.21-1.17h8.42A1.82,1.82,0,0,0,62.26,51.06Z"/>
            <path class="cls-3" d="M62.24,45a2.59,2.59,0,0,1-.58,1.7,2.77,2.77,0,0,1-2.16,1H53.35a7.54,7.54,0,0,1,.39-1.08h6.59l.28,0a1.68,1.68,0,0,0,1-.43,1.59,1.59,0,0,0,.41-.5A2.06,2.06,0,0,0,62.24,45Z"/>
            <g class="cls-grouped">
                <line class="cls-lines" x1="124.48" y1="97.69" x2="124.48" y2="101.19"/>
                <line class="cls-lines" x1="124.48" y1="103.5" x2="124.48" y2="107"/>
                <line class="cls-lines" x1="129.11" y1="102.34" x2="125.62" y2="102.34"/>
                <line class="cls-lines" x1="123.35" y1="102.34" x2="119.85" y2="102.34"/>
                <line class="cls-lines" x1="125.36" y1="101.69" x2="127.83" y2="99.22"/>
                <line class="cls-lines" x1="125.36" y1="103" x2="127.83" y2="105.47"/>
                <line class="cls-lines" x1="121.14" y1="105.58" x2="123.61" y2="103.11"/>
                <line class="cls-lines" x1="123.61" y1="101.51" x2="121.14" y2="99.04"/>
            </g>
            <g class="cls-grouped">
                <rect class="cls-lines" x="104.5" y="19.08" width="3.54" height="1" transform="translate(78.75 124.08) rotate(-85.69)"/>
                <rect class="cls-lines" x="104.18" y="23.3" width="3.54" height="1" transform="translate(74.25 127.67) rotate(-85.69)"/>
                <rect class="cls-lines" x="107.7" y="20.08" width="1" height="3.54" transform="translate(78.33 128.12) rotate(-85.72)"/>
                <rect class="cls-lines" x="103.52" y="19.76" width="1" height="3.54" transform="translate(74.77 123.65) rotate(-85.72)"/>
                <rect class="cls-lines" x="105.98" y="19.93" width="3.54" height="1" transform="translate(12.76 75.24) rotate(-40.72)"/>
                <rect class="cls-lines" x="107.04" y="21.41" width="1" height="3.54" transform="translate(10.91 75.76) rotate(-40.72)"/>
                <rect class="cls-lines" x="102.7" y="22.53" width="3.54" height="1" transform="translate(10.27 73.73) rotate(-40.72)"/>
                <rect class="cls-lines" x="104.19" y="18.31" width="1" height="3.54" transform="translate(12.25 73.16) rotate(-40.72)"/>
            </g>
            <g class="cls-grouped">
                <line class="cls-lines" x1="42.59" y1="24.48" x2="42.59" y2="27.86"/>
                <line class="cls-lines" x1="42.59" y1="30.1" x2="42.59" y2="33.48"/>
                <line class="cls-lines" x1="47.06" y1="28.98" x2="43.69" y2="28.98"/>
                <line class="cls-lines" x1="41.49" y1="28.98" x2="38.11" y2="28.98"/>
                <line class="cls-lines" x1="43.44" y1="28.35" x2="45.83" y2="25.96"/>
                <line class="cls-lines" x1="43.44" y1="29.62" x2="45.83" y2="32.01"/>
                <line class="cls-lines" x1="39.36" y1="32.11" x2="41.75" y2="29.72"/>
                <line class="cls-lines" x1="41.75" y1="28.18" x2="39.36" y2="25.79"/>
            </g>
            <g class="cls-grouped">
                <line class="cls-lines" x1="23.92" y1="55.81" x2="23.92" y2="57.92"/>
                <line class="cls-lines" x1="23.92" y1="59.31" x2="23.92" y2="61.42"/>
                <line class="cls-lines" x1="26.71" y1="58.61" x2="24.61" y2="58.61"/>
                <line class="cls-lines" x1="23.24" y1="58.61" x2="21.13" y2="58.61"/>
                <line class="cls-lines" x1="24.45" y1="58.22" x2="25.94" y2="56.73"/>
                <line class="cls-lines" x1="24.45" y1="59.01" x2="25.94" y2="60.5"/>
                <line class="cls-lines" x1="21.91" y1="60.56" x2="23.4" y2="59.07"/>
                <line class="cls-lines" x1="23.4" y1="58.11" x2="21.91" y2="56.63"/>
            </g>
            <g class="cls-grouped">
                <line class="cls-lines" x1="73.48" y1="8.95" x2="73.48" y2="11.05"/>
                <line class="cls-lines" x1="73.48" y1="12.45" x2="73.48" y2="14.55"/>
                <line class="cls-lines" x1="76.27" y1="11.75" x2="74.16" y2="11.75"/>
                <line class="cls-lines" x1="72.79" y1="11.75" x2="70.69" y2="11.75"/>
                <line class="cls-lines" x1="74.01" y1="11.35" x2="75.5" y2="9.87"/>
                <line class="cls-lines" x1="74.01" y1="12.15" x2="75.5" y2="13.63"/>
                <line class="cls-lines" x1="71.47" y1="13.7" x2="72.95" y2="12.21"/>
                <line class="cls-lines" x1="72.95" y1="11.25" x2="71.47" y2="9.76"/>
            </g>
            <g class="cls-grouped">
                <line class="cls-lines" x1="27.91" y1="101.24" x2="27.91" y2="104.25"/>
                <line class="cls-lines" x1="27.91" y1="106.25" x2="27.91" y2="109.25"/>
                <line class="cls-lines" x1="31.89" y1="105.25" x2="28.89" y2="105.25"/>
                <line class="cls-lines" x1="26.93" y1="105.25" x2="23.92" y2="105.25"/>
                <line class="cls-lines" x1="28.67" y1="104.68" x2="30.79" y2="102.56"/>
                <line class="cls-lines" x1="28.67" y1="105.82" x2="30.79" y2="107.94"/>
                <line class="cls-lines" x1="25.03" y1="108.03" x2="27.16" y2="105.91"/>
                <line class="cls-lines" x1="27.16" y1="104.53" x2="25.03" y2="102.41"/>
            </g>
            <path class="cls-9" d="M55.84,42.47c-.17-.2,3.35-5.55,10.37-8.52,0,0-9.29,5.47-8.21,8.52Z"/>
            <path class="cls-14" d="M51,60.85h8.1c1.34.38-5.88,2.21-7.81,11.51C51.24,72.36,50.62,61.17,51,60.85Z"/>
            <line class="cls-15" x1="76.99" y1="80" x2="76.04" y2="70.64"/>
            <path class="cls-16" d="M77.84,33.84s9.47.93,13.22,7c0,0-3.12-1-3.83.66C87.23,41.52,89.36,37.43,77.84,33.84Z"/>
            <path class="cls-17" d="M67.29,84.89A.73.73,0,0,0,67,85c-.3-.27-.54.14-.86,0s-.51.06-.79-.06c-.11.39-.55-.07-.76.19-.14,0-.21.21-.1.27-.19,0-.15-.15-.3-.07l0-.14c-.06,0-.12-.1-.19-.07l-.07.14c-.2-.15-.28.14-.49.06.14.09-.05.09,0,.2,0,0-.16-.07-.12-.11-.18,0-.3.23-.42.05l-.06.07c-.09.1-.19,0-.29,0v.08a.19.19,0,0,1-.24,0c-.17,0-.36.19-.51.31-.18,0-.07.16-.21.24s-.25.11-.33,0c.13,0,.1-.25.26-.23-.07-.06.22-.13.07-.2-.24.22-.61.15-.82.37,0-.2-.35,0-.45,0l0,0a.4.4,0,0,0-.31.11.74.74,0,0,1-.52.09c-.27-.08-.46.23-.51.39.32.08.48-.28.78,0-.2,0-.19.08-.3.22l.1,0-.05.06c.05.06,0,.15,0,.22l.22-.07c-.14,0-.08-.13-.07-.22h.12s-.12,0,0-.11.1-.06.16,0l0,.18c.1-.16.29.11.4,0l.08.14.13,0v0h.16c.08-.05.07-.13.07-.19s.12-.06.16,0l-.06.11.08,0c-.05,0,0-.08,0-.12.17,0,.12,0,.23,0,.09-.09.24,0,.22-.13a1.4,1.4,0,0,0,.58,0l.06-.09c.23,0,.3-.09.52-.14v0l.1-.12c.18,0,.21-.15.42-.07s.29-.11.34-.3.24,0,.33,0l0,.07.08.06c.13,0,.14,0,.31-.07s.18-.22.28-.33l.23.16v0c.13-.2.1-.09.42-.1l0-.11c.11.13.16,0,.3,0s.26.2.39.07c.24.12.39-.18.6-.13s.24-.08.23.11h0v.18l0-.12c.07.06.18,0,.21.2l.23-.2s-.09,0-.14,0v0s-.16,0-.2-.07l.07,0c-.07,0,0-.09,0-.1s.12,0,.24,0,.07.05,0,.08.22.13.27,0v0A1.89,1.89,0,0,0,67.29,84.89Z"/>
            <path class="cls-17" d="M90.88,85.82a1.29,1.29,0,0,0-.31-.08c-.24-.44-.67-.12-1-.41a5.17,5.17,0,0,1-.94-.29c-.19.38-.65-.21-.93,0-.17,0-.27.19-.15.26-.22,0-.16-.16-.35-.11l.07-.13c-.06,0-.13-.12-.21-.09l-.09.14c-.23-.15-.35.12-.59,0,.16.1-.07.08,0,.19,0-.06-.18-.07-.13-.12-.21,0-.37.23-.5,0l-.07.07c-.12.09-.23,0-.34,0v.08a.28.28,0,0,1-.29,0c-.2,0-.42.2-.6.32-.22,0-.09.16-.26.25s-.29.13-.39,0c.16-.05.14-.26.31-.25-.08-.06.27-.13.1-.2-.29.23-.72.17-1,.41,0-.2-.4,0-.52,0l0-.05a.55.55,0,0,0-.36.14,1,1,0,0,1-.61.12c-.31,0-.54.27-.59.45.37,0,.56-.34.9-.09-.24,0-.23.09-.35.25l.11,0-.06.07c.06.05,0,.15,0,.21l.25-.09c-.15,0-.09-.12-.08-.21H82s-.13,0,0-.1.12-.07.19,0l0,.18c.12-.17.33.09.45-.08l.1.15.15-.06V87l.18,0a.19.19,0,0,0,.09-.19c.07,0,.14-.07.18,0l-.06.12h.09c-.07,0,0-.08.06-.12.19,0,.13,0,.26,0s.28,0,.26-.13a2.93,2.93,0,0,0,.67-.06l.07-.1c.26,0,.35-.09.6-.14v0l.13-.13c.2,0,.25-.15.49,0s.34-.12.41-.3.27,0,.38,0l-.07.06.09.07c.15,0,.16,0,.35-.05s.24-.19.36-.29l.25.18v0c.17-.18.13-.09.49,0v-.11c.1.14.18,0,.34,0s.26.25.43.16c.23.19.48-.08.7.07s.29,0,.22.19h0l0,.19.07-.11c.06.07.18.12.15.28l.31-.06a.28.28,0,0,1-.13-.11l0,0s-.16-.09-.18-.17H90c-.06-.08,0-.09.07-.09.1.17.14,0,.27.1s0,.08,0,.1.18.24.28.15v0A1.43,1.43,0,0,0,90.88,85.82Z"/>
            <path class="cls-18" d="M81.58,106.09c.53-.15,1.06-.33,1.59-.52a29.5,29.5,0,0,0,5-2.45A23.67,23.67,0,0,0,92,100.3c.43-.39.85-.8,1.25-1.22a20.51,20.51,0,0,0,4.53-7.39,38.15,38.15,0,0,0,.92-4.11,3.59,3.59,0,0,1,2-2.93,2.55,2.55,0,0,1,2.33,0c1.94,1.09,1.25,3.7.85,5.43A29.22,29.22,0,0,1,99,100.66a28.11,28.11,0,0,1-3.31,3.75,31.85,31.85,0,0,1-15.76,8.11,2.09,2.09,0,0,1-1.79-.21c-.64-.56-.51-1.51-.48-2.27,0-.54,0-1.08,0-1.62s0-1,0-1.5a.1.1,0,0,1,0-.07.12.12,0,0,1,.09,0c.88-.12,1.78-.24,2.65-.44Z"/>
            <path class="cls-18" d="M71.72,106.83a.1.1,0,0,1,0,0,1.71,1.71,0,0,1,0,.32s0,.84,0,1.22c0,.54,0,1.08,0,1.62,0,.76.16,1.71-.48,2.27a2.09,2.09,0,0,1-1.79.21,31.85,31.85,0,0,1-15.76-8.11,28.11,28.11,0,0,1-3.31-3.75A29.22,29.22,0,0,1,45.62,90.1c-.4-1.73-1.09-4.34.85-5.43a2.55,2.55,0,0,1,2.33,0,3.59,3.59,0,0,1,2,2.93,38.15,38.15,0,0,0,.92,4.11,20.51,20.51,0,0,0,4.53,7.39c.4.42.82.83,1.25,1.22a24,24,0,0,0,4.5,3.23A25.59,25.59,0,0,0,67.37,106a20.77,20.77,0,0,0,2.59.5l1.32.22C71.42,106.73,71.63,106.73,71.72,106.83Z"/>
            <circle class="cls-19" cx="63.9" cy="81.58" r="2.88"/>
            <circle class="cls-19" cx="85.71" cy="81.24" r="2.94"/>
            <path class="cls-17" d="M90.54,68.75c-1.44.06-3.05-.67-4.44-.39a43.91,43.91,0,0,0-4.43,1c-.08-.21-.09-.56-.24-.63a1.47,1.47,0,0,1-.93-1c-.09-.21.36-.18.15-.33.4-.13,1-.46.57-.54-.21-.16-.7.2-1,0s-.12-.7-.4-.94l-.62.3c-.26-.12-.16-.68-.32-.6-.62,0-1.19.62-1.8,1.08-.13-.18-.47-.21-.21-.55a10.74,10.74,0,0,1,4.6-2.37,17.2,17.2,0,0,1,4.66-.53,25,25,0,0,1,8.59,1.61c.68.34-.05.58-.59.77.19-.07.09.26.27.2a1.19,1.19,0,0,1-1.2.71l.45.13c.11.15-.1.32-.17.54-.14,0-.29-.09-.32,0l-.13.44.57.17c-.14,0-.28-.09-.31,0l-.13.44c-.31,0-.68-.31-1-.28l-.09.33a3.32,3.32,0,0,0,1,.27c-.17.07-.2.18-.27.4-.44,0-.77-.46-1.27-.23l.42.11C91.56,69.34,91,68.72,90.54,68.75Z"/>
            <path class="cls-17" d="M68.53,67.39c-1.4.31-3.12-.14-4.44.37a42.14,42.14,0,0,0-4.21,1.69c-.11-.2-.18-.55-.34-.59a1.47,1.47,0,0,1-1.08-.8c-.12-.19.33-.24.1-.35.37-.2.95-.63.47-.63-.24-.12-.66.32-1,.14s-.24-.67-.56-.86l-.55.41c-.29-.08-.27-.65-.42-.54-.61.11-1.07.81-1.6,1.36-.15-.16-.49-.13-.3-.5A10.84,10.84,0,0,1,58.79,64a17.13,17.13,0,0,1,4.5-1.31,25.1,25.1,0,0,1,8.74.14c.73.23,0,.58-.45.86.17-.09.13.24.31.15a1.2,1.2,0,0,1-1.07.9l.46.06c.14.13,0,.33-.07.56-.15,0-.3,0-.32.07l0,.46.59.07c-.14,0-.29,0-.3.07l-.06.45c-.3.08-.72-.19-1-.1l0,.34a3.44,3.44,0,0,0,1,.1c-.16.1-.17.21-.2.44-.43.06-.83-.32-1.29,0l.43,0C69.64,67.8,69,67.29,68.53,67.39Z"/>
            <path class="cls-20" d="M77,134.65H91.15a3.79,3.79,0,0,0-4.08-4.07H77.84v-3.05q0-4.61,0-9.22a.32.32,0,0,1,0-.14.24.24,0,0,1,.11-.09,6.07,6.07,0,0,1,2-.34,34.85,34.85,0,0,0,17-6.56,32.36,32.36,0,0,0,8.88-10.93,49.3,49.3,0,0,0,4.25-12.93c1.21-6.17,2.25-13,.84-19.22-.28-1.22-.78-2.57-2.14-2.87a2.6,2.6,0,0,0-2.63,1.08,2.26,2.26,0,0,0-.16.26,5,5,0,0,0-.51,1.84,18.79,18.79,0,0,0-.06,2.25c0,.79.06,1.58.06,2.37a11.31,11.31,0,0,1-.14,2.17,3.13,3.13,0,0,1-1.09,2,3,3,0,0,1-1.38.6,3.27,3.27,0,0,1-1.64-.18l-.22-.09a3.43,3.43,0,0,1-1.49-1.72A8.38,8.38,0,0,1,99,73.72c0-.3-.08-.61-.11-.94s-.06-.82-.07-1.24,0-1.13,0-1.69c.07-3.3.26-6.63.35-9.94v-.57c0-.41,0-.82,0-1.23H90.4a1.6,1.6,0,1,1,0-3.13h9.2c-.18-1-.37-2-.58-2.87h-9a1.6,1.6,0,1,1,0-3.13h8c-.31-1-.63-2-1-2.87h-7a1.6,1.6,0,1,1,0-3.13h6a23.88,23.88,0,0,0-9.55-8.91,23,23,0,0,0-7.27-2.23,25.28,25.28,0,0,0-4.17-.2H74.2a4.58,4.58,0,0,0-.53,0h-.14l-.27,0a23.82,23.82,0,0,0-11.5,4.11A24.45,24.45,0,0,0,55,43h4.79a1.77,1.77,0,0,1,1.91,1.56,1.44,1.44,0,0,1-.15.61,1.59,1.59,0,0,1-.41.5,2.18,2.18,0,0,1-1,.43l-.28,0H53.35c-.11.25-.22.5-.32.75-.28.65-.54,1.31-.76,2,0,.05,0,.1-.05.15h7.6a1.78,1.78,0,0,1,1.91,1.52,1.48,1.48,0,0,1,0,.21,1.82,1.82,0,0,1-1.9,1.4H51.4c0,.24-.09.49-.13.73-.13.71-.24,1.43-.32,2.14h8.87a1.6,1.6,0,1,1,0,3.13H50.69c-.13,2.8-.06,5.63,0,8.41,0,.29,0,.57,0,.86,0,1,.15,2,.22,3a17.92,17.92,0,0,1,0,3,9.48,9.48,0,0,1-.26,1.49,5.75,5.75,0,0,1-.21.67,4.77,4.77,0,0,1-.36.62,4.23,4.23,0,0,1-.69.83,3,3,0,0,1-2,.81,2.89,2.89,0,0,1-2.26-1c-1.35-1.53-1-3.62-.85-5.46a7.78,7.78,0,0,0-.7-4.48c-.76-1.34-2.6-2.3-3.93-.8a3.71,3.71,0,0,0-.81,2c-.14,1.38-.2,2.76-.22,4.14C38.42,84.29,39.84,97.6,48.14,107a31.8,31.8,0,0,0,12.27,8.41,32.59,32.59,0,0,0,6.91,1.95c.31.05,3.54.5,4.35.55.1,0,.18.1.09.21v12.4l-9.15,0a3.87,3.87,0,0,0-4.13,4.13Z"/>
            <g class="cls-grouped">
                <line class="cls-lines" x1="125.38" y1="53.7" x2="125.38" y2="50.95"/>
                <line class="cls-lines" x1="125.38" y1="58.29" x2="125.38" y2="55.53"/>
                <line class="cls-lines" x1="126.28" y1="54.62" x2="129.03" y2="54.62"/>
                <line class="cls-lines" x1="121.73" y1="54.62" x2="124.48" y2="54.62"/>
                <line class="cls-lines" x1="126.08" y1="54.1" x2="128.02" y2="52.15"/>
                <line class="cls-lines" x1="126.08" y1="55.14" x2="128.02" y2="57.09"/>
                <line class="cls-lines" x1="122.75" y1="57.17" x2="124.69" y2="55.22"/>
                <line class="cls-lines" x1="122.75" y1="52.01" x2="124.69" y2="53.96"/>
            </g>
            <line class="cls-21" x1="73.48" y1="57.3" x2="73.46" y2="57.31"/>
            <g class="cls-22">
                <line class="cls-grouped1" x1="142.96" y1="117.02" x2="125.38" y2="134.6"/>
                <line class="cls-grouped1" x1="137.52" y1="104.13" x2="100.96" y2="140.69"/>
                <line class="cls-grouped1" x1="131.36" y1="91.96" x2="77.78" y2="145.54"/>
                <line class="cls-grouped1" x1="126.58" y1="78.41" x2="57.04" y2="147.95"/>
                <polyline class="cls-grouped1" points="138.83 47.83 130.84 55.82 125.46 61.2 43.21 143.45"/>
                <line class="cls-grouped1" x1="140.67" y1="27.66" x2="32.79" y2="135.54"/>
                <line class="cls-grouped1" x1="138.25" y1="11.75" x2="23.26" y2="126.74"/>
                <line class="cls-grouped1" x1="129.51" y1="2.16" x2="12.98" y2="118.69"/>
                <line class="cls-grouped1" x1="104.14" y1="9.2" x2="6.69" y2="106.65"/>
                <line class="cls-grouped1" x1="71.81" y1="23.2" x2="6.27" y2="88.74"/>
                <line class="cls-grouped1" x1="54.07" y1="22.61" x2="8.05" y2="68.63"/>
                <line class="cls-grouped1" x1="45.57" y1="12.78" x2="24.75" y2="33.6"/>
                <line class="cls-grouped1" x1="33.63" y1="6.39" x2="22.24" y2="17.78"/>
            </g>
        </g>
    </g>
</svg>