<svg id="Layer_1" data-name="Layer 1" 
    xmlns="http://www.w3.org/2000/svg" 
    xmlns:xlink="http://www.w3.org/1999/xlink" viewBox="0 0 150 150">
    <defs>
        <style>
            .cls2-1,.cls2-4,.cls2-9{fill:none;}.cls2-10,.cls2-11,.cls2-2{fill:#b49dca;}.cls2-3{fill:#67c8c3;}.cls2-10,.cls2-11,.cls2-12,.cls2-3,.cls2-4,.cls2-5{stroke:#815e8f;}
            .cls2-10,.cls2-11,.cls2-12,.cls2-3,.cls2-4,.cls2-9{stroke-linecap:round;}.cls2-11,.cls2-12,.cls2-3,.cls2-4,.cls2-9{stroke-linejoin:bevel;}
            .cls2-5{stroke-miterlimit:10;fill:url(#Unnamed_Pattern);}.cls2-6{fill:#099;}.cls2-7{fill:#399;}.cls2-8{fill:#636;}.cls2-9{stroke:#6d517a;stroke-width:0.25px;}
            .cls2-10{stroke-linejoin:round;}.cls2-12{fill:#6d517a;}.cls2-13{fill:#815e8f;}.cls2-14{fill:#fff;fill-opacity:0.6;opacity:0.75;}
        </style>
        <pattern id="Unnamed_Pattern" data-name="Unnamed Pattern" width="10.26" height="10.26" patternUnits="userSpaceOnUse" viewBox="0 0 10.26 10.26">
            <rect class="cls2-1" width="10.26" height="10.26"/>
            <rect class="cls2-2" width="10.26" height="10.26"/>
        </pattern>
    </defs>
    <title>freeSVGArtboard 1</title>
    <path class="cls2-3" d="M58.81,75H55.64a2.35,2.35,0,0,0-2.34,2.53l.81,10.88H56l1.65,15.89a1.9,1.9,0,0,0,1.89,1.7H92.67a1.89,1.89,0,0,0,1.89-1.75l1.23-15.84H97.7l.81-10.88A2.35,2.35,0,0,0,96.17,75Z"/>
    <path class="cls2-3" d="M96.92,77.71a1.69,1.69,0,0,0,1.51-1.77L97.34,53a1.55,1.55,0,0,0-1.54-1.45H56A1.53,1.53,0,0,0,55,52a1.55,1.55,0,0,0-.49,1l-1.1,23.09a1.7,1.7,0,0,0,1.36,1.75l.27.06a2.19,2.19,0,0,0,.36,0l41.38-.19.18,0Z"/>
    <line class="cls2-4" x1="94.25" y1="63.64" x2="78.37" y2="63.64"/>
    <path class="cls2-5" d="M75.22,51.54h-2l-.5,7.68L72.5,62,71.31,75V88.22c2.46-.15,1.45.1,3.91,0Z"/>
    <path class="cls2-5" d="M79.37,88.26V75L78.19,61.61l-.49-5-.4-5.05H75.22V88.17C77.83,88.32,76.75,88.1,79.37,88.26Z"/>
    <line class="cls2-3" x1="54.59" y1="78.12" x2="54.11" y2="88.41"/>
    <line class="cls2-3" x1="97.22" y1="78.12" x2="97.7" y2="88.41"/>
    <polyline class="cls2-6" points="56.74 90.5 95.12 90.5 95.29 88.41 56.52 88.41"/>
    <line class="cls2-7" x1="56.02" y1="88.41" x2="56.24" y2="90.5"/>
    <line class="cls2-4" x1="56.02" y1="88.41" x2="95.79" y2="88.41"/>
    <path class="cls2-5" d="M71.89,89l1.5,17h1.83V89Z"/>
    <path class="cls2-5" d="M75.22,89v17H77.3l1.45-17Z"/>
    <polygon class="cls2-8" points="72.52 90.5 78.14 90.5 78.28 89 72.38 89 72.52 90.5"/>
    <path class="cls2-9" d="M76.75,65.11s.53-2.59-1.37-3.65"/>
    <path class="cls2-9" d="M76.07,65.61s.44-2.92-1.87-3.94"/>
    <path class="cls2-9" d="M73.64,62.27s2,.77,1.53,3.58"/>
    <path class="cls2-9" d="M73.72,63.58a1.86,1.86,0,0,1,.59,1.53"/>
    <path class="cls2-9" d="M76.93,61.67a2.13,2.13,0,0,1,.64,2.47"/>
    <path class="cls2-10" d="M78.54,63.67H94.25a4.35,4.35,0,0,1,3.37,1.59l.22.57V63.9h0A3.64,3.64,0,0,0,95.92,62a5.55,5.55,0,0,0-2-.38h-36a4.69,4.69,0,0,0-3.59,1.46l-.31.57V65.6a5,5,0,0,1,3.51-1.93H78.54"/>
    <path class="cls2-10" d="M78.54,65.6H94.25a4.35,4.35,0,0,1,3.37,1.59l.32.74-.1-2.1L97.47,65a4.71,4.71,0,0,0-3.59-1.46h-36A4.69,4.69,0,0,0,54.26,65L54,65.6l-.08,1.69a4.9,4.9,0,0,1,3.59-1.69H78.54"/>
    <polygon class="cls2-6" points="72.35 59.2 68.19 59.81 70.45 61.46 72.18 61.92 73.11 60.99 72.35 59.2"/>
    <path class="cls2-6" d="M78.14,61.55s8.42-1.86,7.92-3.08-6.71-.09-6.71-.09l-1.41,2.26v1.08Z"/>
    <path class="cls2-11" d="M59.8,49.3a10.94,10.94,0,0,1,2.85-.6A4.4,4.4,0,0,0,59.87,51a4.45,4.45,0,0,0-.26,2.53A8.56,8.56,0,0,0,60,54.9a11,11,0,0,0,5.6,5.86,15.37,15.37,0,0,0,8.93,1.07c.42,1.66.59,2.8.59,2.8C65.34,68,47.32,53.62,59.8,49.3Z"/>
    <path class="cls2-12" d="M59.87,51a4.26,4.26,0,0,1,2.42-2.14,2.08,2.08,0,0,1,.74-.15c6.73-.14,10.17,7.57,11.5,13.14l-.72.1c-8-14.51-14.2-8.42-14.2-8.42A4.45,4.45,0,0,1,59.87,51Z"/>
    <path class="cls2-11" d="M90.33,48.58a10.55,10.55,0,0,0-2.85-.46,4,4,0,0,1,3.23,4.59,8.12,8.12,0,0,1-.31,1.4,10.83,10.83,0,0,1-5.26,6.07,15.21,15.21,0,0,1-8.78,1.49c-.33,1.66-.44,2.8-.44,2.8C85.75,67.35,102.87,52.25,90.33,48.58Z"/>
    <path class="cls2-12" d="M90.33,50.23a4.24,4.24,0,0,0-2.49-2,2.65,2.65,0,0,0-.74-.11c-6.66.19-9.69,8-10.74,13.55l.72.06c7.25-14.73,13.63-9,13.63-9A4.32,4.32,0,0,0,90.33,50.23Z"/>
    <path class="cls2-6" d="M72.06,65.94H60.33L60,66.5s.93,3.23,3.53,3.09S68.47,69.79,72.06,65.94Z"/>
    <path class="cls2-6" d="M79.37,65.38l12.75.14s.79,3.06-.37,3.18-4.12,1.29-5.53.76-5.11-1.56-5.62-2.2A18.38,18.38,0,0,1,79.37,65.38Z"/>
    <path class="cls2-12" d="M78.22,66.6s-1.93,1.27-2.8,1c0,0-2.55-.73-2.48-1.07s.94-1,1.14-.9a14.25,14.25,0,0,0,1.9.23l.93-.28Z"/>
    <path class="cls2-11" d="M58.88,70.59A9.58,9.58,0,0,0,61.06,72a3.6,3.6,0,0,1-1-5,6.57,6.57,0,0,1,.78-1,9.8,9.8,0,0,1,6.58-3,12.7,12.7,0,0,1,7.4,2.18l-.15-.21C63.71,52.6,49.89,62.91,58.88,70.59Z"/>
    <path class="cls2-12" d="M59.49,69.22A3.86,3.86,0,0,0,60.8,71.8a2.32,2.32,0,0,0,.57.37c5.57,2.32,10.14-2.86,13.07-7.06a1.12,1.12,0,0,0-.18-.1C62.81,74.47,60.1,67,60.1,67A3.91,3.91,0,0,0,59.49,69.22Z"/>
    <path class="cls2-11" d="M94.24,70.5a9.86,9.86,0,0,1-2.11,1.56,3.94,3.94,0,0,0,1.42-2.9A3.87,3.87,0,0,0,92.82,67,6.68,6.68,0,0,0,92,66a9.87,9.87,0,0,0-6.78-2.72c-2.76,0-6.24.12-8.51,1.63h0C83.51,54.28,102.85,62.3,94.24,70.5Z"/>
    <path class="cls2-12" d="M93.55,69.16a3.81,3.81,0,0,1-1.18,2.67,1.74,1.74,0,0,1-.54.39c-5.47,2.64-11.17-2.4-14.33-6.47-.39-1-.11-1,.54-.35,12,8.88,14.78,1.6,14.78,1.6A3.87,3.87,0,0,1,93.55,69.16Z"/>
    <path class="cls2-11" d="M76.91,65.58s4.49-3.78-.74-4.6S74,65.58,74,65.58A1.77,1.77,0,0,0,76.91,65.58Z"/>
    <path class="cls2-13" d="M75.75,65.35s-1.19-2.83-.26-2.83a2.27,2.27,0,0,0,1.16-.17s-.3-1.34-2-.53C72.74,62.69,75.57,65.71,75.75,65.35Z"/>
    <path class="cls2-13" d="M75.9,64.6s-.6-1.37-.45-1.52,1-.41,1.07-.17S76.32,64.6,75.9,64.6Z"/>
    <path class="cls2-13" d="M76.82,61.83s1.49.2,1,1.13-.6,1.18-.6,1.18-.56-1.19,0-1.47S76.82,61.83,76.82,61.83Z"/>
    <line class="cls2-5" x1="75.22" y1="70.98" x2="75.19" y2="66.69"/>
    <path class="cls2-14" d="M84.78,60.92s12.55-.41,10,7.17C94.73,68.09,92.58,62.7,84.78,60.92Z"/>
</svg>