<svg xmlns="http://www.w3.org/2000/svg" xmlns:xlink="http://www.w3.org/1999/xlink" viewBox="0 0 150 150"><defs><style>.cls3-1,.cls3-10,.cls3-17,.cls3-19,.cls3-35,.cls3-5,.cls3-8{fill:none;}.cls3-2,.cls3-6{fill:#b49dca;}.cls3-3{isolation:isolate;}.cls3-4{opacity:0.69;}.cls3-5,.cls3-6{stroke:#b49dca;stroke-linecap:square;}.cls3-19,.cls3-5,.cls3-6{stroke-linejoin:round;}.cls3-7{fill:#67c8c3;}.cls3-10,.cls3-19,.cls3-24,.cls3-32,.cls3-7,.cls3-8{stroke:#815e8f;}.cls3-17,.cls3-19,.cls3-24,.cls3-7,.cls3-8{stroke-linecap:round;}.cls3-17,.cls3-24,.cls3-7,.cls3-8{stroke-linejoin:bevel;}.cls3-9{fill:url(#linear-gradient);}.cls3-10,.cls3-32,.cls3-35{stroke-miterlimit:10;}.cls3-11{fill:url(#linear-gradient-2);}.cls3-12{fill:url(#linear-gradient-3);}.cls3-13{fill:#399;}.cls3-14{fill:url(#linear-gradient-4);}.cls3-15{fill:url(#linear-gradient-5);}.cls3-16{fill:#636;opacity:0.68;}.cls3-17{stroke:#6d517a;stroke-width:0.25px;}.cls3-18{fill:url(#linear-gradient-6);}.cls3-20{fill:#099;}.cls3-21{fill:url(#linear-gradient-7);}.cls3-22{fill:url(#linear-gradient-8);}.cls3-23{fill:url(#linear-gradient-9);}.cls3-24{fill:#6d517a;}.cls3-25{fill:url(#linear-gradient-10);}.cls3-26{fill:url(#linear-gradient-11);}.cls3-27{fill:url(#linear-gradient-12);}.cls3-28{opacity:0.64;fill:url(#linear-gradient-13);}.cls3-28,.cls3-34{mix-blend-mode:multiply;}.cls3-29{fill:url(#linear-gradient-14);}.cls3-30{fill:url(#linear-gradient-15);}.cls3-31{fill:url(#linear-gradient-16);}.cls3-32{fill:url(#Unnamed_Pattern);}.cls3-33,.cls3-36{fill:#fff;}.cls3-33{fill-opacity:0.6;opacity:0.5;}.cls3-33,.cls3-37,.cls3-41{mix-blend-mode:overlay;}.cls3-34{opacity:0.8;}.cls3-35{stroke:#c999e0;stroke-width:2px;opacity:0.2;mix-blend-mode:luminosity;}.cls3-36{opacity:0.36;}.cls3-36,.cls3-39{mix-blend-mode:screen;}.cls3-37{opacity:0.21;}.cls3-38{fill:url(#linear-gradient-17);}.cls3-39{fill:#bbb0bf;opacity:0.3;}.cls3-40{fill:url(#linear-gradient-18);}.cls3-41{fill:#c6c6c6;opacity:0.53;}.cls3-42{fill:url(#linear-gradient-19);}</style><linearGradient id="linear-gradient" x1="72.18" y1="42.65" x2="71.8" y2="95.89" gradientUnits="userSpaceOnUse"><stop offset="0"/><stop offset="0" stop-color="#060506"/><stop offset="0" stop-color="#2f232f"/><stop offset="0" stop-color="#554055"/><stop offset="0" stop-color="#755875"/><stop offset="0" stop-color="#916c91"/><stop offset="0" stop-color="#a77da7"/><stop offset="0" stop-color="#b88ab8"/><stop offset="0" stop-color="#c393c3"/><stop offset="0" stop-color="#ca98ca"/><stop offset="0" stop-color="#c9c"/><stop offset="0.39" stop-color="#cd9bcd"/><stop offset="0.53" stop-color="#d0a2d0"/><stop offset="0.63" stop-color="#d6add6"/><stop offset="0.72" stop-color="#dfbedf"/><stop offset="0.78" stop-color="#ead4ea"/><stop offset="0.83" stop-color="#f3e7f3"/><stop offset="0.9" stop-color="#fbf7fb"/><stop offset="0.97" stop-color="#fff"/></linearGradient><linearGradient id="linear-gradient-2" x1="80.91" y1="43.14" x2="74.16" y2="93.41" xlink:href="#linear-gradient"/><linearGradient id="linear-gradient-3" x1="75.55" y1="98.81" x2="75.55" y2="93.16" gradientUnits="userSpaceOnUse"><stop offset="0" stop-color="#fff"/><stop offset="0.21" stop-color="#099"/><stop offset="0.32" stop-color="#009494"/><stop offset="0.45" stop-color="#008585"/><stop offset="0.6" stop-color="#006c6c"/><stop offset="0.75" stop-color="#004949"/><stop offset="0.91" stop-color="#001c1c"/><stop offset="1"/></linearGradient><linearGradient id="linear-gradient-4" x1="73.55" y1="118" x2="72.32" y2="94.72" gradientUnits="userSpaceOnUse"><stop offset="0" stop-color="#f2e5f2"/><stop offset="0.21" stop-color="#e3c6e3"/><stop offset="0.43" stop-color="#d6add6"/><stop offset="0.63" stop-color="#cf9ecf"/><stop offset="0.79" stop-color="#c9c"/><stop offset="0.88" stop-color="#ca98ca"/><stop offset="0.89" stop-color="#c896c8"/><stop offset="0.91" stop-color="#9c759c"/><stop offset="0.92" stop-color="#654c65"/><stop offset="0.94" stop-color="#392b39"/><stop offset="0.95" stop-color="#1a131a"/><stop offset="0.96" stop-color="#070507"/><stop offset="0.97"/></linearGradient><linearGradient id="linear-gradient-5" x1="76.96" y1="96.01" x2="75.7" y2="118.09" gradientUnits="userSpaceOnUse"><stop offset="0"/><stop offset="0.02" stop-color="#4f3b4f"/><stop offset="0.04" stop-color="#8f6b8f"/><stop offset="0.05" stop-color="#b789b7"/><stop offset="0.05" stop-color="#c694c6"/><stop offset="0.09" stop-color="#ca97ca"/><stop offset="0.23" stop-color="#c9c"/><stop offset="0.39" stop-color="#cf9ecf"/><stop offset="0.58" stop-color="#d6add6"/><stop offset="0.8" stop-color="#e3c6e3"/><stop offset="1" stop-color="#f2e5f2"/></linearGradient><linearGradient id="linear-gradient-6" x1="45.54" y1="60.43" x2="105.52" y2="60.43" xlink:href="#linear-gradient"/><linearGradient id="linear-gradient-7" x1="45.43" y1="63.19" x2="105.66" y2="63.19" xlink:href="#linear-gradient"/><linearGradient id="linear-gradient-8" x1="79.16" y1="61.87" x2="95.03" y2="61.87" gradientUnits="userSpaceOnUse"><stop offset="0"/><stop offset="0" stop-color="#403540"/><stop offset="0" stop-color="#786378"/><stop offset="0" stop-color="#8e758e"/><stop offset="0" stop-color="#937993"/><stop offset="0.24" stop-color="#ae8fae"/><stop offset="0.47" stop-color="#bf9ebf"/><stop offset="0.64" stop-color="#c5a3c5"/><stop offset="0.65" stop-color="#c7a4c7"/><stop offset="0.84" stop-color="#d5b0d5"/><stop offset="1" stop-color="#dab4da"/></linearGradient><linearGradient id="linear-gradient-9" x1="62.19" y1="61.49" x2="78.06" y2="61.49" gradientTransform="matrix(-1, 0, 0, 1, 135.73, 0)" xlink:href="#linear-gradient-8"/><linearGradient id="linear-gradient-10" x1="75.99" y1="49.95" x2="100.3" y2="49.95" xlink:href="#linear-gradient"/><linearGradient id="linear-gradient-11" x1="50.11" y1="51.38" x2="73.56" y2="51.38" gradientTransform="translate(0.22 -0.16) rotate(-0.62)" gradientUnits="userSpaceOnUse"><stop offset="0" stop-color="#fff"/><stop offset="0" stop-color="#6d517a"/><stop offset="0.28" stop-color="#6b4f77"/><stop offset="0.46" stop-color="#634a6f"/><stop offset="0.6" stop-color="#564061"/><stop offset="0.73" stop-color="#44334c"/><stop offset="0.84" stop-color="#2c2132"/><stop offset="0.95" stop-color="#100c12"/><stop offset="1"/></linearGradient><linearGradient id="linear-gradient-12" x1="49.6" y1="49.5" x2="72.47" y2="49.5" gradientTransform="translate(0.22 -0.16) rotate(-0.62)" xlink:href="#linear-gradient"/><linearGradient id="linear-gradient-13" x1="72.21" y1="64.34" x2="79.42" y2="64.34" gradientUnits="userSpaceOnUse"><stop offset="0"/><stop offset="0.05" stop-color="#100c12"/><stop offset="0.16" stop-color="#2c2132"/><stop offset="0.27" stop-color="#44334c"/><stop offset="0.4" stop-color="#564061"/><stop offset="0.54" stop-color="#634a6f"/><stop offset="0.72" stop-color="#6b4f77"/><stop offset="1" stop-color="#6d517a"/><stop offset="1" stop-color="#fff"/></linearGradient><linearGradient id="linear-gradient-14" x1="48.33" y1="63" x2="74.12" y2="63" xlink:href="#linear-gradient"/><linearGradient id="linear-gradient-15" x1="76.05" y1="63.45" x2="103.56" y2="63.45" xlink:href="#linear-gradient"/><linearGradient id="linear-gradient-16" x1="78.01" y1="63.22" x2="97.82" y2="69.8" xlink:href="#linear-gradient-13"/><pattern id="Unnamed_Pattern" data-name="Unnamed Pattern" width="10.26" height="10.26" patternUnits="userSpaceOnUse" viewBox="0 0 10.26 10.26"><rect class="cls3-1" width="10.26" height="10.26"/><rect class="cls3-2" width="10.26" height="10.26"/></pattern><linearGradient id="linear-gradient-17" x1="58.45" y1="94.73" x2="71.32" y2="62.16" gradientUnits="userSpaceOnUse"><stop offset="0" stop-color="#fff"/><stop offset="0.22" stop-color="#ededed"/><stop offset="0.64" stop-color="#bfbfbf"/><stop offset="0.69" stop-color="#bababa"/><stop offset="0.7" stop-color="#b5b5b5"/><stop offset="0.71" stop-color="#a6a6a6"/><stop offset="0.72" stop-color="#8d8d8d"/><stop offset="0.73" stop-color="#6a6a6a"/><stop offset="0.75" stop-color="#3d3d3d"/><stop offset="0.76" stop-color="#060606"/><stop offset="0.76"/></linearGradient><linearGradient id="linear-gradient-18" x1="71.5" y1="60.31" x2="79.36" y2="60.31" xlink:href="#linear-gradient"/><linearGradient id="linear-gradient-19" x1="62.95" y1="100.31" x2="62.75" y2="95.26" xlink:href="#linear-gradient-17"/></defs><title>freeSVGArtboard 1</title><g class="cls3-3"><g id="Layer_1" data-name="Layer 1"><g class="cls3-4"><line class="cls3-5" x1="65.14" y1="36.55" x2="65.14" y2="39.93"/><line class="cls3-5" x1="65.14" y1="42.17" x2="65.14" y2="45.55"/><line class="cls3-5" x1="69.62" y1="41.05" x2="66.24" y2="41.05"/><line class="cls3-5" x1="64.04" y1="41.05" x2="60.66" y2="41.05"/><line class="cls3-5" x1="65.99" y1="40.42" x2="68.38" y2="38.03"/><line class="cls3-6" x1="65.99" y1="41.69" x2="68.38" y2="44.08"/><line class="cls3-5" x1="61.91" y1="44.18" x2="64.3" y2="41.79"/><line class="cls3-5" x1="64.3" y1="40.25" x2="61.91" y2="37.86"/></g><path class="cls3-7" d="M52.18,75.83H47.86a3.22,3.22,0,0,0-3.21,3.45l1.11,14.88h2.62l2.24,21.7a2.61,2.61,0,0,0,2.59,2.34H98.45a2.59,2.59,0,0,0,2.59-2.4l1.67-21.64h2.62l1.11-14.88a3.22,3.22,0,0,0-3.21-3.45Z"/><path class="cls3-7" d="M104.27,79.54a2.33,2.33,0,0,0,2.06-2.43l-1.5-31.36a2.1,2.1,0,0,0-2.1-2H48.36a2.1,2.1,0,0,0-1.44.58,2.06,2.06,0,0,0-.66,1.4L44.75,77.3a2.33,2.33,0,0,0,1.85,2.4l.38.08a2.63,2.63,0,0,0,.49,0L104,79.56l.26,0Z"/><line class="cls3-8" x1="100.61" y1="60.31" x2="78.91" y2="60.31"/><path class="cls3-9" d="M74.6,43.77H71.82l-.68,10.5-.25,3.84L69.12,79.66l.15,14.5v-.27c3.36-.2,2,.15,5.33,0Z"/><path class="cls3-10" d="M74.6,43.77H71.82l-.68,10.5-.25,3.84L69.12,79.66l.15,14.5v-.27c3.36-.2,2,.15,5.33,0Z"/><path class="cls3-11" d="M80.28,94v.21l-.19-14.5L78.67,57.53,78,50.67l-.55-6.9H74.6v50C78.18,94,76.71,93.74,80.28,94Z"/><path class="cls3-10" d="M80.28,94v.21l-.19-14.5L78.67,57.53,78,50.67l-.55-6.9H74.6v50C78.18,94,76.71,93.74,80.28,94Z"/><line class="cls3-7" x1="46.42" y1="80.09" x2="45.76" y2="94.16"/><line class="cls3-7" x1="104.68" y1="80.09" x2="105.33" y2="94.16"/><polyline class="cls3-12" points="49.36 97.02 101.8 97.02 102.04 94.16 49.06 94.16"/><line class="cls3-13" x1="48.38" y1="94.16" x2="48.67" y2="97.02"/><line class="cls3-8" x1="48.38" y1="94.16" x2="102.71" y2="94.16"/><path class="cls3-14" d="M70.05,95l2.06,23.23H74.6V95Z"/><path class="cls3-10" d="M70.05,95l2.06,23.23H74.6V95Z"/><path class="cls3-15" d="M74.6,95v23.23h2.85l2-23.23Z"/><path class="cls3-10" d="M74.6,95v23.23h2.85l2-23.23Z"/><polygon class="cls3-16" points="70.91 97.02 78.59 97.02 78.79 94.96 70.73 94.96 70.91 97.02"/><path class="cls3-17" d="M76.7,62.32s.73-3.54-1.88-5"/><path class="cls3-17" d="M75.77,63s.61-4-2.55-5.38"/><path class="cls3-17" d="M72.45,58.43s2.72,1.06,2.09,4.9"/><path class="cls3-17" d="M72.56,60.22a2.56,2.56,0,0,1,.81,2.1"/><path class="cls3-17" d="M76.94,57.62A2.88,2.88,0,0,1,77.82,61"/><path class="cls3-18" d="M79.15,60.35h21.47a6,6,0,0,1,4.6,2.17l.3.78V60.67h0a4.93,4.93,0,0,0-2.62-2.58,7.75,7.75,0,0,0-2.79-.52H50.87a6.41,6.41,0,0,0-4.9,2l-.43.79V63a6.82,6.82,0,0,1,4.79-2.63H79.15"/><path class="cls3-19" d="M79.15,60.35h21.47a6,6,0,0,1,4.6,2.17l.3.78V60.67h0a4.93,4.93,0,0,0-2.62-2.58,7.75,7.75,0,0,0-2.79-.52H50.87a6.41,6.41,0,0,0-4.9,2l-.43.79V63a6.82,6.82,0,0,1,4.79-2.63H79.15"/><path class="cls3-20" d="M80.56,63.33l17.42.2s1.08,4.17-.51,4.34-5.63,1.77-7.55,1-7-2.13-7.69-3A25.7,25.7,0,0,1,80.56,63.33Z"/><path class="cls3-21" d="M79.15,63h21.47a6,6,0,0,1,4.6,2.18l.44,1-.14-2.87L105,62.2a6.41,6.41,0,0,0-4.9-2H50.87a6.41,6.41,0,0,0-4.9,2l-.43.78-.11,2.32A6.71,6.71,0,0,1,50.33,63H79.15"/><polygon class="cls3-22" points="79.77 60.88 79.16 61.49 80.69 63.19 95.13 63.3 95.96 62.68 92.39 60.44 81.58 60.44 79.77 60.88"/><polygon class="cls3-23" points="72.94 60.5 73.54 61.11 72.01 62.81 57.57 62.92 56.74 62.3 60.31 60.05 71.13 60.05 72.94 60.5"/><path class="cls3-19" d="M79.15,63h21.47a6,6,0,0,1,4.6,2.18l.44,1-.14-2.87L105,62.2a6.41,6.41,0,0,0-4.9-2H50.87a6.41,6.41,0,0,0-4.9,2l-.43.78-.11,2.32A6.71,6.71,0,0,1,50.33,63H79.15"/><polygon class="cls3-20" points="70.69 54.24 65.01 55.07 68.09 57.32 70.45 57.95 71.73 56.68 70.69 54.24"/><path class="cls3-20" d="M78.6,57.45s11.51-2.54,10.82-4.21-9.16-.13-9.16-.13l-1.93,3.1v1.48Z"/><path class="cls3-24" d="M95.7,44.12a13.07,13.07,0,0,0-3.19-1.24A5.16,5.16,0,0,1,95.3,46a5.07,5.07,0,0,1-.17,3,9.81,9.81,0,0,1-.7,1.55,12.93,12.93,0,0,1-7.6,5.75c-3.46,1-7,1.84-10.35.72-.8,1.85-1.42,2-1.42,2C85.77,64.79,109.37,51.47,95.7,44.12Z"/><path class="cls3-25" d="M100.21,44.45c-.31-1.69-1.9-2.91-3.45-3.66a3.42,3.42,0,0,0-1.13-.33C85.2,39.31,78.81,50.81,76,59.26c.37.11.74.19,1.1.26,14.23-19.41,22.6-9,22.74-10.22A14.1,14.1,0,0,0,100.21,44.45Z"/><path class="cls3-26" d="M54.93,43.14A12.26,12.26,0,0,1,58,42a4.54,4.54,0,0,0-2.63,5.82,9.06,9.06,0,0,0,.65,1.5A12.35,12.35,0,0,0,63.19,55c3.29,1,6.33,1.87,9.59.87.73,1.78,1.63,2,1.63,2C64,63.14,41.7,49.92,54.93,43.14Z"/><path class="cls3-8" d="M54.93,43.14A12.26,12.26,0,0,1,58,42a4.54,4.54,0,0,0-2.63,5.82,9.06,9.06,0,0,0,.65,1.5A12.35,12.35,0,0,0,63.19,55c3.29,1,6,2.2,9.28,1.2.73,1.78,1.94,1.63,1.94,1.63C64,63.14,41.7,49.92,54.93,43.14Z"/><path class="cls3-27" d="M50.41,43.19c.33-1.61,1.88-2.74,3.38-3.44a3.47,3.47,0,0,1,1.08-.29c10-.89,15.91,10.24,18.45,18.39-.36.09-2.08-.09-2.42,0-14.36-19.11-20.57-8.67-20.23-9.29A17.87,17.87,0,0,1,50.41,43.19Z"/><path class="cls3-20" d="M70.29,63.45h-16l-.44.77s1.26,4.41,4.82,4.22S65.39,68.72,70.29,63.45Z"/><path class="cls3-28" d="M79.42,64.33s-2.64,2.06-3.82,1.61c0,0-3.49-1.18-3.39-1.73s1.28-1.63,1.55-1.45a17.56,17.56,0,0,0,2.6.36l1.27-.44Z"/><path class="cls3-29" d="M52.29,69.81a13.16,13.16,0,0,0,3,2,5.36,5.36,0,0,1-2.14-3.82,5.26,5.26,0,0,1,.83-3A9.71,9.71,0,0,1,55,63.52a13.41,13.41,0,0,1,9-4.17c3.74-.25,6.91,1.1,10.11,3l-.2-.29C58.88,45.21,40,59.31,52.29,69.81Z"/><path class="cls3-24" d="M53.12,67.94a5.23,5.23,0,0,0,1.79,3.52,2.75,2.75,0,0,0,.77.5c7.61,3.17,13.87-3.9,17.86-9.65-.25-.16,0,0-.25-.13C57.65,75.11,54,64.94,54,64.94A5.26,5.26,0,0,0,53.12,67.94Z"/><path class="cls3-30" d="M100.6,69.69a13.71,13.71,0,0,1-2.89,2.13,5.42,5.42,0,0,0,2-4,5.35,5.35,0,0,0-1-3,9.34,9.34,0,0,0-1.14-1.36,13.45,13.45,0,0,0-9.26-3.71c-3.77,0-8.52.16-11.63,2.22h0C85.94,47.52,112.36,58.48,100.6,69.69Z"/><path class="cls3-8" d="M100.6,69.69a13.71,13.71,0,0,1-2.89,2.13,5.42,5.42,0,0,0,2-4,5.35,5.35,0,0,0-1-3,9.34,9.34,0,0,0-1.14-1.36,13.45,13.45,0,0,0-9.26-3.71c-3.77,0-8.52.16-11.63,2.22h0C85.94,47.52,112.36,58.48,100.6,69.69Z"/><path class="cls3-31" d="M99.66,67.86a5.25,5.25,0,0,1-1.61,3.63,2.52,2.52,0,0,1-.75.54c-7.47,3.6-14-3.75-18.28-9.3-.53-1.39-.15-1.36.75-.48,16.42,12.13,18.89,2.64,18.89,2.64A5.35,5.35,0,0,1,99.66,67.86Z"/><path class="cls3-8" d="M99.66,67.86a5.25,5.25,0,0,1-1.61,3.63,2.52,2.52,0,0,1-.75.54c-7.47,3.6-14-3.75-18.28-9.3-.53-1.39-.15-1.36.75-.48,16.42,12.13,18.89,2.64,18.89,2.64A5.35,5.35,0,0,1,99.66,67.86Z"/><line class="cls3-32" x1="74.6" y1="70.34" x2="74.57" y2="64.47"/><path class="cls3-33" d="M87.68,56.59s17.15-.56,13.59,9.8C101.27,66.39,98.33,59,87.68,56.59Z"/><g class="cls3-4"><line class="cls3-5" x1="117.01" y1="94.71" x2="117.01" y2="98.2"/><line class="cls3-5" x1="117.01" y1="100.52" x2="117.01" y2="104.01"/><line class="cls3-5" x1="121.63" y1="99.36" x2="118.14" y2="99.36"/><line class="cls3-5" x1="115.87" y1="99.36" x2="112.38" y2="99.36"/><line class="cls3-5" x1="117.89" y1="98.71" x2="120.36" y2="96.24"/><line class="cls3-5" x1="117.89" y1="100.02" x2="120.36" y2="102.49"/><line class="cls3-5" x1="113.67" y1="102.6" x2="116.14" y2="100.13"/><line class="cls3-5" x1="116.14" y1="98.53" x2="113.67" y2="96.06"/></g><g class="cls3-4"><rect class="cls3-2" x="33.93" y="101.43" width="3.54" height="1" transform="translate(-68.63 129.86) rotate(-85.69)"/><rect class="cls3-2" x="33.61" y="105.65" width="3.54" height="1" transform="translate(-73.13 133.45) rotate(-85.69)"/><rect class="cls3-2" x="37.13" y="102.42" width="1" height="3.54" transform="translate(-69.08 133.94) rotate(-85.72)"/><rect class="cls3-2" x="32.95" y="102.11" width="1" height="3.54" transform="translate(-72.64 129.48) rotate(-85.72)"/><rect class="cls3-2" x="35.41" y="102.28" width="3.54" height="1" transform="translate(-58.05 49.14) rotate(-40.72)"/><rect class="cls3-2" x="36.47" y="103.76" width="1" height="3.54" transform="translate(-59.89 49.66) rotate(-40.72)"/><rect class="cls3-2" x="32.13" y="104.88" width="3.54" height="1" transform="translate(-60.54 47.63) rotate(-40.72)"/><rect class="cls3-2" x="33.62" y="100.65" width="1" height="3.54" transform="translate(-58.56 47.06) rotate(-40.72)"/></g><g class="cls3-4"><line class="cls3-5" x1="31.9" y1="33.05" x2="31.9" y2="35.16"/><line class="cls3-5" x1="31.9" y1="36.55" x2="31.9" y2="38.66"/><line class="cls3-5" x1="34.69" y1="35.86" x2="32.59" y2="35.86"/><line class="cls3-5" x1="31.22" y1="35.86" x2="29.12" y2="35.86"/><line class="cls3-5" x1="32.43" y1="35.46" x2="33.92" y2="33.97"/><line class="cls3-6" x1="32.43" y1="36.25" x2="33.92" y2="37.74"/><line class="cls3-5" x1="29.89" y1="37.8" x2="31.38" y2="36.32"/><line class="cls3-5" x1="31.38" y1="35.35" x2="29.89" y2="33.87"/></g><g class="cls3-4"><line class="cls3-5" x1="103.18" y1="24.81" x2="103.18" y2="26.91"/><line class="cls3-5" x1="103.18" y1="28.31" x2="103.18" y2="30.41"/><line class="cls3-5" x1="105.97" y1="27.61" x2="103.87" y2="27.61"/><line class="cls3-5" x1="102.5" y1="27.61" x2="100.39" y2="27.61"/><line class="cls3-5" x1="103.71" y1="27.21" x2="105.2" y2="25.73"/><line class="cls3-6" x1="103.71" y1="28.01" x2="105.2" y2="29.49"/><line class="cls3-5" x1="101.17" y1="29.56" x2="102.66" y2="28.07"/><line class="cls3-5" x1="102.66" y1="27.11" x2="101.17" y2="25.62"/></g><g class="cls3-4"><line class="cls3-5" x1="37.34" y1="63.3" x2="37.34" y2="66.31"/><line class="cls3-5" x1="37.34" y1="68.31" x2="37.34" y2="71.32"/><line class="cls3-5" x1="41.33" y1="67.31" x2="38.32" y2="67.31"/><line class="cls3-5" x1="36.36" y1="67.31" x2="33.36" y2="67.31"/><line class="cls3-5" x1="38.1" y1="66.74" x2="40.23" y2="64.62"/><line class="cls3-5" x1="38.1" y1="67.88" x2="40.23" y2="70"/><line class="cls3-5" x1="34.47" y1="70.1" x2="36.6" y2="67.97"/><line class="cls3-5" x1="36.6" y1="66.59" x2="34.47" y2="64.47"/></g><g class="cls3-4"><line class="cls3-5" x1="122.78" y1="61.76" x2="122.78" y2="59"/><line class="cls3-5" x1="122.78" y1="66.35" x2="122.78" y2="63.59"/><line class="cls3-5" x1="123.67" y1="62.68" x2="126.43" y2="62.68"/><line class="cls3-5" x1="119.12" y1="62.68" x2="121.88" y2="62.68"/><line class="cls3-5" x1="123.47" y1="62.16" x2="125.42" y2="60.21"/><line class="cls3-5" x1="123.47" y1="63.19" x2="125.42" y2="65.14"/><line class="cls3-5" x1="120.14" y1="65.23" x2="122.09" y2="63.28"/><line class="cls3-5" x1="120.14" y1="60.07" x2="122.09" y2="62.02"/></g><g class="cls3-34"><line class="cls3-35" x1="140.73" y1="117.67" x2="123.15" y2="135.25"/><line class="cls3-35" x1="135.29" y1="104.78" x2="98.73" y2="141.34"/><line class="cls3-35" x1="129.13" y1="92.61" x2="75.55" y2="146.19"/><line class="cls3-35" x1="124.35" y1="79.06" x2="54.81" y2="148.6"/><polyline class="cls3-35" points="136.6 48.48 128.61 56.47 123.23 61.85 40.98 144.1"/><line class="cls3-35" x1="138.44" y1="28.31" x2="30.56" y2="136.19"/><line class="cls3-35" x1="136.02" y1="12.4" x2="21.03" y2="127.39"/><line class="cls3-35" x1="127.28" y1="2.81" x2="10.75" y2="119.34"/><line class="cls3-35" x1="101.91" y1="9.85" x2="4.46" y2="107.3"/><line class="cls3-35" x1="69.58" y1="23.85" x2="4.04" y2="89.39"/><line class="cls3-35" x1="51.84" y1="23.26" x2="5.82" y2="69.28"/><line class="cls3-35" x1="43.34" y1="13.43" x2="22.52" y2="34.25"/><line class="cls3-35" x1="31.4" y1="7.04" x2="20.01" y2="18.43"/></g><path class="cls3-33" d="M89.17,42.88s6.59-3.78,9.4,1.23a4.9,4.9,0,0,1,.53,2.28s-4.73-4.4-10.53-3Z"/><polygon class="cls3-36" points="79.65 55.52 80.69 50.18 77.44 55.84 77.51 56.8 78.91 57.04 79.65 55.52"/><path class="cls3-8" d="M100.21,44.45c-.31-1.69-1.9-2.91-3.45-3.66a3.42,3.42,0,0,0-1.13-.33C85.2,39.31,78.81,50.81,76,59.26c.37.11.74.19,1.1.26,14.23-19.41,22.6-9,22.74-10.22A14.1,14.1,0,0,0,100.21,44.45Z"/><path class="cls3-8" d="M76.92,63s6.13-5.17-1-6.28S73,63,73,63A2.41,2.41,0,0,0,76.92,63Z"/><g class="cls3-37"><polygon class="cls3-38" points="64.08 77.89 74.33 65.37 72.77 64.6 61.7 77.08 58.61 79.49 57.52 93.49 64.83 93.45 63.63 79.49 64.08 77.89"/></g><polygon class="cls3-39" points="67.42 46.21 64.11 49.52 65.93 51.09 68.54 48.06 67.42 46.21"/><path class="cls3-8" d="M50.5,43.21a4.92,4.92,0,0,1,.88-1.81,5.33,5.33,0,0,1,3.39-1.9,9.38,9.38,0,0,1,3.94.28C66.79,41.9,71,50.49,73.32,57.85c-.36.09-2.08-.09-2.42,0-3.46-4.6-10.75-14-17.78-11.11-1,.42-1.47,1.28-2.22,2.06C50.57,47,50.07,44.88,50.5,43.21Z"/><path class="cls3-8" d="M52.29,69.81a13.16,13.16,0,0,0,3,2,5.36,5.36,0,0,1-2.14-3.82,5.26,5.26,0,0,1,.83-3A9.71,9.71,0,0,1,55,63.52a13.41,13.41,0,0,1,9-4.17c3.74-.25,6.91,1.1,10.11,3l-.2-.29C58.88,45.21,40,59.31,52.29,69.81Z"/><path class="cls3-40" d="M76.84,63s6.32-5.17-1-6.28-3,6.28-3,6.28A2.52,2.52,0,0,0,76.84,63Z"/><path class="cls3-41" d="M75.06,57.83s4.34.32,3,1.8-1.73,1.86-1.73,1.86-1.64-1.89.09-2.33S75.06,57.83,75.06,57.83Z"/><g class="cls3-37"><polygon class="cls3-42" points="60.5 97.02 61.83 100.54 65.14 97.22 60.5 97.02"/></g></g></g></svg>