<svg xmlns="http://www.w3.org/2000/svg" 
    xmlns:xlink="http://www.w3.org/1999/xlink" viewBox="0 0 150 150">
    <defs>
        <style>.cls2-1,.cls2-10,.cls2-17,.cls2-19,.cls2-41,.cls2-5,.cls2-8{fill:none;}.cls2-2,.cls2-6{fill:#b49dca;}.cls2-3{isolation:isolate;}.cls2-4{opacity:0.48;}.cls2-5,.cls2-6{stroke:#b49dca;stroke-linecap:square;}.cls2-19,.cls2-5,.cls2-6{stroke-linejoin:round;}.cls2-7{fill:#67c8c3;}.cls2-10,.cls2-19,.cls2-24,.cls2-31,.cls2-32,.cls2-7,.cls2-8{stroke:#815e8f;}.cls2-17,.cls2-19,.cls2-24,.cls2-31,.cls2-7,.cls2-8{stroke-linecap:round;}.cls2-17,.cls2-24,.cls2-31,.cls2-7,.cls2-8{stroke-linejoin:bevel;}.cls2-9{fill:url(#linear-gradient);}.cls2-10,.cls2-32,.cls2-41{stroke-miterlimit:10;}.cls2-11{fill:url(#linear-gradient-2);}.cls2-12{fill:url(#linear-gradient-3);}.cls2-13{fill:#399;}.cls2-14{fill:url(#linear-gradient-4);}.cls2-15{fill:url(#linear-gradient-5);}.cls2-16{fill:#636;opacity:0.68;}.cls2-17{stroke:#6d517a;stroke-width:0.25px;}.cls2-18{fill:url(#linear-gradient-6);}.cls2-20{fill:#099;}.cls2-21{fill:url(#linear-gradient-7);}.cls2-22{fill:url(#linear-gradient-8);}.cls2-23{fill:url(#linear-gradient-9);}.cls2-24{fill:#6d517a;}.cls2-25{fill:url(#linear-gradient-10);}.cls2-26{fill:url(#linear-gradient-11);}.cls2-27{fill:url(#linear-gradient-12);}.cls2-28{opacity:0.64;fill:url(#linear-gradient-13);}.cls2-28,.cls2-40{mix-blend-mode:multiply;}.cls2-29{fill:url(#linear-gradient-14);}.cls2-30{fill:url(#linear-gradient-15);}.cls2-31{fill:url(#linear-gradient-16);}.cls2-32{fill:url(#Unnamed_Pattern);}.cls2-33,.cls2-34{fill:#fff;}.cls2-33{fill-opacity:0.6;opacity:0.5;}.cls2-33,.cls2-35,.cls2-39{mix-blend-mode:overlay;}.cls2-34{opacity:0.36;}.cls2-34,.cls2-37{mix-blend-mode:screen;}.cls2-35{opacity:0.21;}.cls2-36{fill:url(#linear-gradient-17);}.cls2-37{fill:#bbb0bf;opacity:0.3;}.cls2-38{fill:url(#linear-gradient-18);}.cls2-39{fill:#c6c6c6;opacity:0.53;}.cls2-40{opacity:0.8;}.cls2-41{stroke:#c999e0;stroke-width:2px;opacity:0.2;mix-blend-mode:luminosity;}</style>
        <linearGradient id="linear-gradient" x1="71.28" y1="48.06" x2="70.84" y2="109.76" gradientUnits="userSpaceOnUse">
            <stop offset="0"/>
            <stop offset="0" stop-color="#060506"/>
            <stop offset="0" stop-color="#2f232f"/>
            <stop offset="0" stop-color="#554055"/>
            <stop offset="0" stop-color="#755875"/>
            <stop offset="0" stop-color="#916c91"/>
            <stop offset="0" stop-color="#a77da7"/>
            <stop offset="0" stop-color="#b88ab8"/>
            <stop offset="0" stop-color="#c393c3"/>
            <stop offset="0" stop-color="#ca98ca"/>
            <stop offset="0" stop-color="#c9c"/>
            <stop offset="0.39" stop-color="#cd9bcd"/>
            <stop offset="0.53" stop-color="#d0a2d0"/>
            <stop offset="0.63" stop-color="#d6add6"/>
            <stop offset="0.72" stop-color="#dfbedf"/>
            <stop offset="0.78" stop-color="#ead4ea"/>
            <stop offset="0.83" stop-color="#f3e7f3"/>
            <stop offset="0.9" stop-color="#fbf7fb"/>
            <stop offset="0.97" stop-color="#fff"/>
        </linearGradient>
        <linearGradient id="linear-gradient-2" x1="81.4" y1="48.63" x2="73.59" y2="106.89" xlink:href="#linear-gradient"/>
        <linearGradient id="linear-gradient-3" x1="75.19" y1="113.14" x2="75.19" y2="106.6" gradientUnits="userSpaceOnUse">
            <stop offset="0" stop-color="#fff"/>
            <stop offset="0.21" stop-color="#099"/>
            <stop offset="0.32" stop-color="#009494"/>
            <stop offset="0.45" stop-color="#008585"/>
            <stop offset="0.6" stop-color="#006c6c"/>
            <stop offset="0.75" stop-color="#004949"/>
            <stop offset="0.91" stop-color="#001c1c"/>
            <stop offset="1"/>
        </linearGradient>
        <linearGradient id="linear-gradient-4" x1="72.87" y1="135.39" x2="71.44" y2="108.41" gradientUnits="userSpaceOnUse">
            <stop offset="0" stop-color="#f2e5f2"/>
            <stop offset="0.21" stop-color="#e3c6e3"/>
            <stop offset="0.43" stop-color="#d6add6"/>
            <stop offset="0.63" stop-color="#cf9ecf"/>
            <stop offset="0.79" stop-color="#c9c"/>
            <stop offset="0.88" stop-color="#ca98ca"/>
            <stop offset="0.89" stop-color="#c896c8"/>
            <stop offset="0.91" stop-color="#9c759c"/>
            <stop offset="0.92" stop-color="#654c65"/>
            <stop offset="0.94" stop-color="#392b39"/>
            <stop offset="0.95" stop-color="#1a131a"/>
            <stop offset="0.96" stop-color="#070507"/>
            <stop offset="0.97"/>
        </linearGradient>
        <linearGradient id="linear-gradient-5" x1="76.83" y1="109.9" x2="75.36" y2="135.49" gradientUnits="userSpaceOnUse">
            <stop offset="0"/>
            <stop offset="0.02" stop-color="#4f3b4f"/>
            <stop offset="0.04" stop-color="#8f6b8f"/>
            <stop offset="0.05" stop-color="#b789b7"/>
            <stop offset="0.05" stop-color="#c694c6"/>
            <stop offset="0.09" stop-color="#ca97ca"/>
            <stop offset="0.23" stop-color="#c9c"/>
            <stop offset="0.39" stop-color="#cf9ecf"/>
            <stop offset="0.58" stop-color="#d6add6"/>
            <stop offset="0.8" stop-color="#e3c6e3"/>
            <stop offset="1" stop-color="#f2e5f2"/>
        </linearGradient>
        <linearGradient id="linear-gradient-6" x1="40.41" y1="68.67" x2="109.93" y2="68.67" xlink:href="#linear-gradient"/>
        <linearGradient id="linear-gradient-7" x1="40.28" y1="71.86" x2="110.09" y2="71.86" xlink:href="#linear-gradient"/>
        <linearGradient id="linear-gradient-8" x1="77.02" y1="70.33" x2="99.72" y2="70.33" gradientUnits="userSpaceOnUse">
            <stop offset="0"/>
            <stop offset="0" stop-color="#403540"/>
            <stop offset="0" stop-color="#786378"/>
            <stop offset="0" stop-color="#8e758e"/>
            <stop offset="0" stop-color="#937993"/>
            <stop offset="0.24" stop-color="#ae8fae"/>
            <stop offset="0.47" stop-color="#bf9ebf"/>
            <stop offset="0.64" stop-color="#c5a3c5"/>
            <stop offset="0.65" stop-color="#c7a4c7"/>
            <stop offset="0.84" stop-color="#d5b0d5"/>
            <stop offset="1" stop-color="#dab4da"/>
        </linearGradient>
        <linearGradient id="linear-gradient-9" x1="62.87" y1="69.89" x2="81.27" y2="69.89" gradientTransform="matrix(-1, 0, 0, 1, 135.73, 0)" xlink:href="#linear-gradient-8"/>
        <linearGradient id="linear-gradient-10" x1="76.8" y1="56.25" x2="103.87" y2="56.25" xlink:href="#linear-gradient"/>
        <linearGradient id="linear-gradient-11" x1="45.76" y1="58.02" x2="72.93" y2="58.02" gradientTransform="translate(0.22 -0.16) rotate(-0.62)" gradientUnits="userSpaceOnUse">
            <stop offset="0" stop-color="#fff"/>
            <stop offset="0" stop-color="#6d517a"/>
            <stop offset="0.28" stop-color="#6b4f77"/>
            <stop offset="0.46" stop-color="#634a6f"/>
            <stop offset="0.6" stop-color="#564061"/>
            <stop offset="0.73" stop-color="#44334c"/>
            <stop offset="0.84" stop-color="#2c2132"/>
            <stop offset="0.95" stop-color="#100c12"/>
            <stop offset="1"/>
        </linearGradient>
        <linearGradient id="linear-gradient-12" x1="45.1" y1="56.19" x2="71.56" y2="56.19" gradientTransform="translate(0.22 -0.16) rotate(-0.62)" xlink:href="#linear-gradient"/>
        <linearGradient id="linear-gradient-13" x1="70.66" y1="72.31" x2="80.33" y2="72.31" gradientUnits="userSpaceOnUse">
            <stop offset="0"/>
            <stop offset="0.05" stop-color="#100c12"/>
            <stop offset="0.16" stop-color="#2c2132"/>
            <stop offset="0.27" stop-color="#44334c"/>
            <stop offset="0.4" stop-color="#564061"/>
            <stop offset="0.54" stop-color="#634a6f"/>
            <stop offset="0.72" stop-color="#6b4f77"/>
            <stop offset="1" stop-color="#6d517a"/>
            <stop offset="1" stop-color="#fff"/>
        </linearGradient>
        <linearGradient id="linear-gradient-14" x1="43.64" y1="71.65" x2="73.53" y2="71.65" xlink:href="#linear-gradient"/>
        <linearGradient id="linear-gradient-15" x1="75.31" y1="71.63" x2="107.2" y2="71.63" gradientTransform="matrix(0.99, -0.14, 0.14, 0.99, -9.2, 13.55)" xlink:href="#linear-gradient"/>
        <linearGradient id="linear-gradient-16" x1="77.85" y1="75.83" x2="102.72" y2="75.83" xlink:href="#linear-gradient-13"/>
        <pattern id="Unnamed_Pattern" data-name="Unnamed Pattern" width="10.26" height="10.26" patternUnits="userSpaceOnUse" viewBox="0 0 10.26 10.26">
            <rect class="cls2-1" width="10.26" height="10.26"/>
            <rect class="cls2-2" width="10.26" height="10.26"/>
        </pattern>
        <linearGradient id="linear-gradient-17" x1="55.33" y1="108.75" x2="70.51" y2="70.35" gradientUnits="userSpaceOnUse">
            <stop offset="0" stop-color="#fff"/>
            <stop offset="0.22" stop-color="#ededed"/>
            <stop offset="0.64" stop-color="#bfbfbf"/>
            <stop offset="0.69" stop-color="#bababa"/>
            <stop offset="0.7" stop-color="#b5b5b5"/>
            <stop offset="0.71" stop-color="#a6a6a6"/>
            <stop offset="0.72" stop-color="#8d8d8d"/>
            <stop offset="0.73" stop-color="#6a6a6a"/>
            <stop offset="0.75" stop-color="#3d3d3d"/>
            <stop offset="0.76" stop-color="#060606"/>
            <stop offset="0.76"/>
        </linearGradient>
        <linearGradient id="linear-gradient-18" x1="70.49" y1="68.52" x2="79.61" y2="68.52" xlink:href="#linear-gradient"/>
    </defs>
    <title></title>
    <g class="cls2-3">
        <g id="Layer_1" data-name="Layer 1">
            <g class="cls2-4">
                <line class="cls2-5" x1="70.92" y1="28.13" x2="70.92" y2="31.51"/>
                <line class="cls2-5" x1="70.92" y1="33.75" x2="70.92" y2="37.13"/>
                <line class="cls2-5" x1="75.39" y1="32.63" x2="72.02" y2="32.63"/>
                <line class="cls2-5" x1="69.82" y1="32.63" x2="66.44" y2="32.63"/>
                <line class="cls2-5" x1="71.77" y1="32" x2="74.16" y2="29.61"/>
                <line class="cls2-6" x1="71.77" y1="33.27" x2="74.16" y2="35.66"/>
                <line class="cls2-5" x1="67.69" y1="35.76" x2="70.08" y2="33.37"/>
                <line class="cls2-5" x1="70.08" y1="31.83" x2="67.69" y2="29.44"/>
            </g>
            <path class="cls2-7" d="M48.1,86.52h-5a3.73,3.73,0,0,0-3.72,4l1.29,17.23h3l2.6,25.16a3,3,0,0,0,3,2.71h52.44a3,3,0,0,0,3-2.78l1.94-25.09h3L111,90.52a3.73,3.73,0,0,0-3.72-4Z"/>
            <path class="cls2-7" d="M108.48,90.82A2.71,2.71,0,0,0,110.87,88l-1.74-36.34a2.45,2.45,0,0,0-2.44-2.3h-63a2.47,2.47,0,0,0-2.44,2.3L39.49,88.22A2.72,2.72,0,0,0,41.64,91l.44.09a2.62,2.62,0,0,0,.57.06l65.53-.32Z"/>
            <line class="cls2-8" x1="104.24" y1="68.52" x2="79.09" y2="68.52"/>
            <path class="cls2-9" d="M74.09,49.36H70.87l-.79,12.17L69.79,66,67.74,91l.17,16.8v-.3c3.89-.23,2.29.17,6.18-.06Z"/>
            <path class="cls2-10" d="M74.09,49.36H70.87l-.79,12.17L69.79,66,67.74,91l.17,16.8v-.3c3.89-.23,2.29.17,6.18-.06Z"/>
            <path class="cls2-11" d="M80.68,107.51v.24L80.45,91,78.81,65.31l-.78-8-.63-8H74.09v58C78.24,107.61,76.53,107.27,80.68,107.51Z"/>
            <path class="cls2-10" d="M80.68,107.51v.24L80.45,91,78.81,65.31l-.78-8-.63-8H74.09v58C78.24,107.61,76.53,107.27,80.68,107.51Z"/>
            <line class="cls2-7" x1="41.42" y1="91.45" x2="40.67" y2="107.75"/>
            <line class="cls2-7" x1="108.95" y1="91.45" x2="109.71" y2="107.75"/>
            <polyline class="cls2-12" points="44.84 111.07 105.62 111.07 105.89 107.75 44.49 107.75"/>
            <line class="cls2-13" x1="43.7" y1="107.75" x2="44.04" y2="111.07"/>
            <line class="cls2-8" x1="43.7" y1="107.75" x2="106.67" y2="107.75"/>
            <path class="cls2-14" d="M68.82,108.69l2.39,26.92h2.88V108.69Z"/>
            <path class="cls2-10" d="M68.82,108.69l2.39,26.92h2.88V108.69Z"/>
            <path class="cls2-15" d="M74.09,108.69v26.92H77.4l2.3-26.92Z"/>
            <path class="cls2-10" d="M74.09,108.69v26.92H77.4l2.3-26.92Z"/>
            <polygon class="cls2-16" points="69.82 111.07 78.72 111.07 78.94 108.69 69.61 108.69 69.82 111.07"/>
            <path class="cls2-17" d="M76.53,70.85s.84-4.1-2.18-5.78"/>
            <path class="cls2-17" d="M75.44,71.64s.71-4.63-3-6.24"/>
            <path class="cls2-17" d="M71.6,66.35S74.75,67.57,74,72"/>
            <path class="cls2-17" d="M71.72,68.43a2.94,2.94,0,0,1,.94,2.42"/>
            <path class="cls2-17" d="M76.8,65.4a3.36,3.36,0,0,1,1,3.92"/>
            <path class="cls2-18" d="M79.36,68.57h24.88a6.93,6.93,0,0,1,5.34,2.52l.35.9v-3h0a5.8,5.8,0,0,0-3-3,9.11,9.11,0,0,0-3.24-.6H46.59a7.42,7.42,0,0,0-5.68,2.31l-.5.91v3.05A7.91,7.91,0,0,1,46,68.57H79.36"/>
            <path class="cls2-19" d="M79.36,68.57h24.88a6.93,6.93,0,0,1,5.34,2.52l.35.9v-3h0a5.8,5.8,0,0,0-3-3,9.11,9.11,0,0,0-3.24-.6H46.59a7.42,7.42,0,0,0-5.68,2.31l-.5.91v3.05A7.91,7.91,0,0,1,46,68.57H79.36"/>
            <path class="cls2-20" d="M78.67,71.11l22,.25s1.36,5.37-.64,5.58-7.12,2.27-9.54,1.33-8.83-2.73-9.72-3.85A32.07,32.07,0,0,1,78.67,71.11Z"/>
            <path class="cls2-21" d="M79.36,71.62h24.88a6.93,6.93,0,0,1,5.34,2.52l.51,1.18L109.93,72l-.59-1.28a7.47,7.47,0,0,0-5.69-2.31H46.59a7.45,7.45,0,0,0-5.68,2.31l-.5.91-.13,2.69A7.79,7.79,0,0,1,46,71.62H79.36"/>
            <polygon class="cls2-22" points="77.89 69.19 77.02 69.89 79.21 71.86 99.85 71.99 101.04 71.28 95.93 68.67 80.47 68.67 77.89 69.19"/>
            <polygon class="cls2-23" points="72.16 68.75 72.86 69.45 71.09 71.42 54.36 71.55 53.39 70.83 57.53 68.23 70.06 68.23 72.16 68.75"/>
            <path class="cls2-19" d="M79.36,71.62h24.88a6.93,6.93,0,0,1,5.34,2.52l.51,1.18L109.93,72l-.59-1.28a7.47,7.47,0,0,0-5.69-2.31H46.59a7.45,7.45,0,0,0-5.68,2.31l-.5.91-.13,2.69A7.79,7.79,0,0,1,46,71.62H79.36"/>
            <polygon class="cls2-20" points="69.56 61.5 62.98 62.46 66.55 65.07 69.29 65.8 70.76 64.32 69.56 61.5"/>
            <path class="cls2-20" d="M78.72,65.21s13.34-2.94,12.54-4.88-10.61-.14-10.61-.14l-2.24,3.59v1.71Z"/>
            <path class="cls2-24" d="M98,49.76a17.14,17.14,0,0,0-3.71-1.43,5.5,5.5,0,0,1,3,7.11,11.17,11.17,0,0,1-.82,1.79,14.94,14.94,0,0,1-8.81,6.67c-4,1.15-8.07,2.13-12,.84-.92,2.14-1.65,2.3-1.65,2.3C87.08,73.7,115.14,58.24,98,49.76Z"/>
            <path class="cls2-25" d="M103.77,50.15c-.35-2-2.2-3.37-4-4.25a3.79,3.79,0,0,0-1.3-.37C86.38,44.19,80.07,56.21,76.8,66c.43.12,2.06,1,2.46,1C90.7,49.54,102,56.49,103.33,55.76A16.31,16.31,0,0,0,103.77,50.15Z"/>
            <path class="cls2-26" d="M51.29,48.63a14.67,14.67,0,0,1,3.58-1.29,5.24,5.24,0,0,0-3,6.75,10.6,10.6,0,0,0,.74,1.73,14.4,14.4,0,0,0,8.3,6.56c3.82,1.18,7.34,2.16,11.12,1,.84,2.06,1.89,2.27,1.89,2.27C61.85,71.8,36,56.48,51.29,48.63Z"/>
            <path class="cls2-8" d="M51.29,48.63a14.67,14.67,0,0,1,3.58-1.29,5.24,5.24,0,0,0-3,6.75,10.6,10.6,0,0,0,.74,1.73,14.4,14.4,0,0,0,8.3,6.56c3.82,1.18,7,2.54,10.76,1.38.84,2.07,2.25,1.89,2.25,1.89C61.85,71.8,36,56.48,51.29,48.63Z"/>
            <path class="cls2-27" d="M46,48.68c.37-1.87,2.17-3.18,3.91-4a3.53,3.53,0,0,1,1.26-.34c11.6-1,18.44,11.86,21.37,21.31-.4.59-3.2,1.22-3.6.32C49.66,46.26,49.17,52.84,46.51,55.15A22.28,22.28,0,0,1,46,48.68Z"/>
            <path class="cls2-20" d="M71.72,71.27H50.46l-.59,1.07s1.67,6.06,6.39,5.81S65.22,78.52,71.72,71.27Z"/>
            <path class="cls2-28" d="M80.33,72.29s-3.54,2.79-5.12,2.18c-.06,0-4.68-1.6-4.54-2.34s1.71-2.2,2.08-2a22.15,22.15,0,0,0,3.48.5l1.7-.6Z"/>
            <path class="cls2-29" d="M48.23,79.53a15,15,0,0,0,3.45,2.27,5.71,5.71,0,0,1-1.53-7.9,11.79,11.79,0,0,1,1.23-1.65,15.58,15.58,0,0,1,10.44-4.84c4.33-.29,8,1.28,11.71,3.46l-.23-.33C55.87,51,34,67.36,48.23,79.53Z"/>
            <path class="cls2-24" d="M49.19,77.37a6.06,6.06,0,0,0,2.08,4.08,3,3,0,0,0,.9.58C61,85.7,66.87,77,72.86,70.85c-.29-.19,0,0-.29-.16C52,81.6,50,73.68,50.15,73.9A6.22,6.22,0,0,0,49.19,77.37Z"/>
            <path class="cls2-30" d="M104.59,77.11a15.59,15.59,0,0,1-3,2.91,5.73,5.73,0,0,0,0-8.1,11.85,11.85,0,0,0-1.53-1.39,15.67,15.67,0,0,0-11.24-2.74c-4.33.55-9.75,1.56-13,4.43h0C84.17,54.05,116.27,62.33,104.59,77.11Z"/>
            <path class="cls2-8" d="M104.59,77.11a15.37,15.37,0,0,1-3.86,3.28c1.14-1.33,2.74-3.5,2.49-5.23a6.23,6.23,0,0,0-1.63-3.24,11.85,11.85,0,0,0-1.53-1.39,15.67,15.67,0,0,0-11.24-2.74c-4.33.55-9.75,1.56-13,4.43h0C84.17,54.05,116.27,62.33,104.59,77.11Z"/>
            <path class="cls2-31" d="M102.69,75.61a1.13,1.13,0,0,0,0-.18c0-.11,0-.22,0-.33a6.15,6.15,0,0,0-1.51-3.29A5.08,5.08,0,0,1,100,73.45c-1.61,1.18-5,2.7-10.92,1.61a43.94,43.94,0,0,1-10-4c-.93-.73-1.38-.84-1.1,0-.09.13,0,.5.35,1.18a30.82,30.82,0,0,0,9.28,6.25,22.81,22.81,0,0,0,8,2.53,17.07,17.07,0,0,0,2.83.24,4.52,4.52,0,0,0,3.85-2.79A5.49,5.49,0,0,0,102.69,75.61Z"/>
            <line class="cls2-32" x1="74.09" y1="80.15" x2="74.05" y2="73.35"/>
            <path class="cls2-33" d="M87.26,65.46s19-6,18.22,6.7C105.48,72.16,99.91,64.86,87.26,65.46Z"/>
            <g class="cls2-4">
                <line class="cls2-5" x1="129.13" y1="74.41" x2="129.13" y2="77.9"/>
                <line class="cls2-5" x1="129.13" y1="80.22" x2="129.13" y2="83.71"/>
                <line class="cls2-5" x1="133.75" y1="79.06" x2="130.26" y2="79.06"/>
                <line class="cls2-5" x1="127.99" y1="79.06" x2="124.5" y2="79.06"/>
                <line class="cls2-5" x1="130.01" y1="78.4" x2="132.48" y2="75.93"/>
                <line class="cls2-5" x1="130.01" y1="79.72" x2="132.48" y2="82.18"/>
                <line class="cls2-5" x1="125.79" y1="82.29" x2="128.26" y2="79.82"/>
                <line class="cls2-5" x1="128.26" y1="78.23" x2="125.79" y2="75.76"/>
            </g>
            <g class="cls2-4">
                <rect class="cls2-2" x="17.39" y="115.06" width="3.54" height="1" transform="translate(-97.51 125.98) rotate(-85.69)"/>
                <rect class="cls2-2" x="17.08" y="119.28" width="3.54" height="1" transform="translate(-102.01 129.57) rotate(-85.69)"/>
                <rect class="cls2-2" x="20.6" y="116.05" width="1" height="3.54" transform="translate(-97.97 130.07) rotate(-85.72)"/>
                <rect class="cls2-2" x="16.41" y="115.74" width="1" height="3.54" transform="translate(-101.53 125.6) rotate(-85.72)"/>
                <rect class="cls2-2" x="18.87" y="115.91" width="3.54" height="1" transform="translate(-70.95 41.65) rotate(-40.72)"/>
                <rect class="cls2-2" x="19.94" y="117.39" width="1" height="3.54" transform="translate(-72.78 42.17) rotate(-40.72)"/>
                <rect class="cls2-2" x="15.6" y="118.51" width="3.54" height="1" transform="translate(-73.43 40.15) rotate(-40.72)"/>
                <rect class="cls2-2" x="17.09" y="114.28" width="1" height="3.54" transform="translate(-71.45 39.57) rotate(-40.72)"/>
            </g>
            <g class="cls2-4">
                <line class="cls2-5" x1="31.41" y1="21.27" x2="31.41" y2="23.37"/>
                <line class="cls2-5" x1="31.41" y1="24.77" x2="31.41" y2="26.87"/>
                <line class="cls2-5" x1="34.2" y1="24.07" x2="32.09" y2="24.07"/>
                <line class="cls2-5" x1="30.73" y1="24.07" x2="28.62" y2="24.07"/>
                <line class="cls2-5" x1="31.94" y1="23.68" x2="33.43" y2="22.19"/>
                <line class="cls2-6" x1="31.94" y1="24.47" x2="33.43" y2="25.96"/>
                <line class="cls2-5" x1="29.4" y1="26.02" x2="30.89" y2="24.53"/>
                <line class="cls2-5" x1="30.89" y1="23.57" x2="29.4" y2="22.08"/>
            </g>
            <g class="cls2-4">
                <line class="cls2-5" x1="113.05" y1="22.21" x2="113.05" y2="24.31"/>
                <line class="cls2-5" x1="113.05" y1="25.71" x2="113.05" y2="27.81"/>
                <line class="cls2-5" x1="115.84" y1="25.01" x2="113.73" y2="25.01"/>
                <line class="cls2-5" x1="112.36" y1="25.01" x2="110.26" y2="25.01"/>
                <line class="cls2-5" x1="113.58" y1="24.61" x2="115.07" y2="23.13"/>
                <line class="cls2-6" x1="113.58" y1="25.4" x2="115.07" y2="26.89"/>
                <line class="cls2-5" x1="111.04" y1="26.96" x2="112.53" y2="25.47"/>
                <line class="cls2-5" x1="112.53" y1="24.51" x2="111.04" y2="23.02"/>
            </g>
            <g class="cls2-4">
                <line class="cls2-5" x1="18.03" y1="66.79" x2="18.03" y2="69.8"/>
                <line class="cls2-5" x1="18.03" y1="71.8" x2="18.03" y2="74.81"/>
                <line class="cls2-5" x1="22.01" y1="70.8" x2="19.01" y2="70.8"/>
                <line class="cls2-5" x1="17.05" y1="70.8" x2="14.04" y2="70.8"/>
                <line class="cls2-5" x1="18.79" y1="70.23" x2="20.91" y2="68.11"/>
                <line class="cls2-5" x1="18.79" y1="71.37" x2="20.91" y2="73.49"/>
                <line class="cls2-5" x1="15.15" y1="73.59" x2="17.28" y2="71.46"/>
                <line class="cls2-5" x1="17.28" y1="70.08" x2="15.15" y2="67.96"/>
            </g>
            <g class="cls2-4">
                <line class="cls2-5" x1="119.49" y1="117.28" x2="119.49" y2="114.53"/>
                <line class="cls2-5" x1="119.49" y1="121.87" x2="119.49" y2="119.11"/>
                <line class="cls2-5" x1="120.39" y1="118.2" x2="123.15" y2="118.2"/>
                <line class="cls2-5" x1="115.84" y1="118.2" x2="118.6" y2="118.2"/>
                <line class="cls2-5" x1="120.19" y1="117.68" x2="122.14" y2="115.73"/>
                <line class="cls2-5" x1="120.19" y1="118.72" x2="122.14" y2="120.67"/>
                <line class="cls2-5" x1="116.86" y1="120.75" x2="118.81" y2="118.8"/>
                <line class="cls2-5" x1="116.86" y1="115.59" x2="118.81" y2="117.54"/>
            </g>
            <path class="cls2-33" d="M91,48.33s7.63-4.38,10.89,1.43a5.68,5.68,0,0,1,.61,2.64S97,47.29,90.28,48.88Z"/>
            <polygon class="cls2-34" points="79.95 62.97 81.14 56.79 77.39 63.35 77.46 64.46 79.09 64.74 79.95 62.97"/>
            <path class="cls2-8" d="M103.77,50.15c-.35-2-2.2-3.37-4-4.25a3.79,3.79,0,0,0-1.3-.37C86.38,44.19,79,57.51,75.7,67.31c.43.13,2.44.22,2.85.3,13.31-17.36,21.74-10.85,25.06-11.56A17.78,17.78,0,0,0,103.77,50.15Z"/>
            <path class="cls2-8" d="M76.78,71.6s7.1-6-1.18-7.28-3.42,7.28-3.42,7.28S74.42,74.45,76.78,71.6Z"/>
            <g class="cls2-35">
                <polygon class="cls2-36" points="61.9 88.9 73.86 73.87 72.17 73.26 59.14 87.97 55.56 90.75 54.27 107.29 62.79 107.29 61.38 90.75 61.9 88.9"/>
            </g>
            <polygon class="cls2-37" points="67 53.57 61.59 59.17 64.55 61.83 68.82 56.7 67 53.57"/>
            <path class="cls2-8" d="M46.16,48.72a5.8,5.8,0,0,1,1-2.11,6.3,6.3,0,0,1,3.94-2.21,11,11,0,0,1,4.56.33C65,47.19,70,57.15,72.6,65.68c-.41.1-1.95.7-2.34.77-6.12-1.38-13-16.93-21.07-13.68-1.17.47-1.7,1.47-2.57,2.39C46.24,53.13,45.66,50.65,46.16,48.72Z"/>
            <path class="cls2-8" d="M48.23,79.53a15,15,0,0,0,3.45,2.27,5.71,5.71,0,0,1-1.53-7.9,11.79,11.79,0,0,1,1.23-1.65,15.58,15.58,0,0,1,10.44-4.84c4.33-.29,8,1.28,11.71,3.46l-.23-.33C55.87,51,34,67.36,48.23,79.53Z"/>
            <path class="cls2-38" d="M76.69,71.6s7.32-6-1.21-7.28S72,71.6,72,71.6,74.26,74.45,76.69,71.6Z"/>
            <path class="cls2-39" d="M74.62,65.65s5,.38,3.5,2.09-2,2.15-2,2.15-1.89-2.19.11-2.69S74.62,65.65,74.62,65.65Z"/>
            <g class="cls2-40">
                <line class="cls2-41" x1="144.97" y1="121.43" x2="118.52" y2="147.88"/>
                <line class="cls2-41" x1="146.96" y1="100.1" x2="99.11" y2="147.95"/>
                <line class="cls2-41" x1="136.48" y1="92.26" x2="81.75" y2="146.99"/>
                <line class="cls2-41" x1="135.32" y1="76.08" x2="71.55" y2="139.86"/>
                <line class="cls2-41" x1="136.02" y1="16.4" x2="18.65" y2="134.3"/>
                <polyline class="cls2-41" points="121.53 8.56 121.52 8.56 7.93 122.07"/>
                <line class="cls2-41" x1="88.04" y1="7.82" x2="15.01" y2="78.74"/>
                <line class="cls2-41" x1="55.27" y1="19.75" x2="18.46" y2="56.62"/>
                <line class="cls2-41" x1="66" y1="9" x2="63.88" y2="11.12"/>
                <line class="cls2-41" x1="43.53" y1="13.47" x2="15.34" y2="41.66"/>
                <polyline class="cls2-41" points="31.41 7.51 9.94 28.62 9.94 28.63"/>
                <line class="cls2-41" x1="108" y1="6" x2="5.5" y2="108.5"/>
                <line class="cls2-41" x1="138" y1="36" x2="36" y2="138"/>
                <line class="cls2-41" x1="142" y1="51" x2="45.5" y2="147.5"/>
            </g>
        </g>
    </g>
</svg>