<svg xmlns="http://www.w3.org/2000/svg" 
    xmlns:xlink="http://www.w3.org/1999/xlink" viewBox="0 0 150 150">
    <defs>
        <style>.cls3-1{isolation:isolate;}.cls3-2{stroke:#b49dca;opacity:0.48;}.cls3-21,.cls3-3,.cls3-9{fill:none;}.cls3-3{stroke-linecap:round;}
        .cls3-11,.cls3-12,.cls3-13,.cls3-14,.cls3-3,.cls3-3,.cls3-6,.cls3-9{stroke-linejoin:round;}.cls3-4{fill:#b49dca;}.cls3-15,.cls3-5,.cls3-6{fill:#815e8f;}
        .cls3-11,.cls3-12,.cls3-13,.cls3-14,.cls3-6,.cls3-9{stroke:#815e8f;stroke-linecap:round;}.cls3-17,.cls3-18,.cls3-23,.cls3-7{mix-blend-mode:screen;}
        .cls3-8{fill:#d2ccdb;}.cls3-10,.cls3-14{fill:#c8ede6;}.cls3-11{fill:#969;}.cls3-12,.cls3-13,.cls3-18,.cls3-19,.cls3-23{fill:#6cc;}.cls3-12{stroke-width:4px;}
        .cls3-13{stroke-width:3px;}.cls3-14,.cls3-21{stroke-width:2px;}.cls3-15,.cls3-16{opacity:0.6;}.cls3-15,.cls3-16,.cls3-20{mix-blend-mode:multiply;}
        .cls3-16{fill:url(#linear-gradient);}.cls3-17{opacity:0.19;fill:url(#linear-gradient-2);}.cls3-20{opacity:0.8;}
        .cls3-21{stroke:#c999e0;stroke-miterlimit:10;opacity:0.2;mix-blend-mode:luminosity;}.cls3-23{opacity:0.47;}
        </style>
        <linearGradient id="linear-gradient" x1="43.76" y1="44.77" x2="90.25" y2="29.87" gradientUnits="userSpaceOnUse">
            <stop offset="0"/>
            <stop offset="0" stop-color="#010101"/>
            <stop offset="0.04" stop-color="#383838"/>
            <stop offset="0.09" stop-color="#686868"/>
            <stop offset="0.13" stop-color="#919191"/>
            <stop offset="0.17" stop-color="#b2b2b2"/>
            <stop offset="0.22" stop-color="#ccc"/>
            <stop offset="0.27" stop-color="#dedede"/>
            <stop offset="0.31" stop-color="#e9e9e9"/>
            <stop offset="0.37" stop-color="#ededed"/>
            <stop offset="0.46" stop-color="#f6f6f6"/>
            <stop offset="0.6" stop-color="#fdfdfd"/>
            <stop offset="1" stop-color="#fff"/>
            <stop offset="1" stop-color="#815e8f"/>
        </linearGradient>
        <linearGradient id="linear-gradient-2" x1="39.68" y1="75.51" x2="93.92" y2="58.12" xlink:href="#linear-gradient"/>
    </defs>
    <title></title>
    <g class="cls3-1">
        <g id="Layer_1" data-name="Layer 1">
            <g class="cls3-2">
                <line class="cls3-3" x1="126.24" y1="114.72" x2="126.24" y2="118.21"/>
                <line class="cls3-3" x1="126.24" y1="120.53" x2="126.24" y2="124.02"/>
                <line class="cls3-3" x1="130.87" y1="119.37" x2="127.37" y2="119.37"/>
                <line class="cls3-3" x1="125.1" y1="119.37" x2="121.61" y2="119.37"/>
                <line class="cls3-3" x1="127.12" y1="118.71" x2="129.59" y2="116.24"/>
                <line class="cls3-3" x1="127.12" y1="120.02" x2="129.59" y2="122.49"/>
                <line class="cls3-3" x1="122.9" y1="122.6" x2="125.37" y2="120.13"/>
                <line class="cls3-3" x1="125.37" y1="118.53" x2="122.9" y2="116.07"/>
            </g>
            <path class="cls3-4" d="M47.2,72V62.61a7.21,7.21,0,0,1,7.2-7.2H106a7.21,7.21,0,0,1,7.2,7.2V72Z"/>
            <path class="cls3-5" d="M106,56.41a6.21,6.21,0,0,1,6.2,6.2V71h-64V62.61a6.21,6.21,0,0,1,6.2-6.2H106m0-2H54.4a8.2,8.2,0,0,0-8.2,8.2V73h68V62.61a8.2,8.2,0,0,0-8.2-8.2Z"/>
            <path class="cls3-5" d="M112.24,75.79V115a6.21,6.21,0,0,1-6.2,6.2H54.4a6.21,6.21,0,0,1-6.2-6.2V75.79h64m2-2h-68V115a8.2,8.2,0,0,0,8.2,8.2H106a8.2,8.2,0,0,0,8.2-8.2V73.79Z"/>
            <rect class="cls3-6" x="46.6" y="67.48" width="67.25" height="2.37"/>
            <g class="cls3-7">
                <polygon class="cls3-4" points="51.89 61.53 56.41 58.92 56.41 64.14 51.89 61.53"/>
                <path class="cls3-5" d="M55.91,59.79v3.49l-3-1.75,3-1.74m1-1.73-6,3.47,6,3.48v-7Z"/>
            </g>
            <g class="cls3-7">
                <polygon class="cls3-4" points="58.9 58.98 63.36 61.69 58.78 64.2 58.9 58.98"/>
                <path class="cls3-5" d="M59.38,59.86l3,1.81L59.3,63.34l.08-3.48m-1-1.76-.16,6.95,6.1-3.34L58.42,58.1Z"/>
            </g>
            <g class="cls3-7">
                <rect class="cls3-8" x="68.46" y="58.87" width="39.26" height="5.33" rx="2.12" ry="2.12"/>
                <path class="cls3-5" d="M105.6,59.37A1.63,1.63,0,0,1,107.22,61v1.08a1.63,1.63,0,0,1-1.62,1.63h-35A1.63,1.63,0,0,1,69,62.07V61a1.63,1.63,0,0,1,1.62-1.62h35m0-1h-35A2.63,2.63,0,0,0,68,61v1.08a2.63,2.63,0,0,0,2.62,2.63h35a2.63,2.63,0,0,0,2.62-2.63V61a2.63,2.63,0,0,0-2.62-2.62Z"/>
            </g>
            <path class="cls3-6" d="M87.73,77.38H103a4.37,4.37,0,0,1,4.37,4.37V94.49a6.94,6.94,0,0,1-6.94,6.94H90.19a6.83,6.83,0,0,1-6.83-6.83V81.75A4.37,4.37,0,0,1,87.73,77.38Z"/>
            <rect class="cls3-4" x="50.89" y="78.07" width="27.67" height="4.2" rx="1.74" ry="1.74"/>
            <rect class="cls3-4" x="50.89" y="84.94" width="27.67" height="4.2" rx="1.74" ry="1.74"/>
            <rect class="cls3-4" x="50.89" y="91.82" width="27.67" height="4.2" rx="1.74" ry="1.74"/>
            <rect class="cls3-4" x="50.89" y="98.7" width="27.67" height="4.2" rx="1.74" ry="1.74"/>
            <rect class="cls3-4" x="50.89" y="105.57" width="56.52" height="4.2" rx="1.74" ry="1.74"/>
            <rect class="cls3-4" x="50.89" y="112.45" width="56.52" height="4.2" rx="1.74" ry="1.74"/>
            <circle class="cls3-9" cx="71.42" cy="61.18" r="1.28"/>
            <line class="cls3-9" x1="73.59" y1="63.35" x2="72.33" y2="62.09"/>
            <path class="cls3-4" d="M47.2,72V62.61a7.21,7.21,0,0,1,7.2-7.2H106a7.21,7.21,0,0,1,7.2,7.2V72Z"/>
            <path class="cls3-5" d="M106,56.41a6.21,6.21,0,0,1,6.2,6.2V71h-64V62.61a6.21,6.21,0,0,1,6.2-6.2H106m0-2H54.4a8.2,8.2,0,0,0-8.2,8.2V73h68V62.61a8.2,8.2,0,0,0-8.2-8.2Z"/>
            <path class="cls3-10" d="M54.4,122.24a7.21,7.21,0,0,1-7.2-7.2V74.79h66V115a7.21,7.21,0,0,1-7.2,7.2Z"/>
            <path class="cls3-5" d="M112.24,75.79V115a6.21,6.21,0,0,1-6.2,6.2H54.4a6.21,6.21,0,0,1-6.2-6.2V75.79h64m2-2h-68V115a8.2,8.2,0,0,0,8.2,8.2H106a8.2,8.2,0,0,0,8.2-8.2V73.79Z"/>
            <rect class="cls3-6" x="46.6" y="67.48" width="67.25" height="2.37"/>
            <g class="cls3-7">
                <polygon class="cls3-4" points="51.89 61.53 56.41 58.92 56.41 64.14 51.89 61.53"/>
                <path class="cls3-5" d="M55.91,59.79v3.49l-3-1.75,3-1.74m1-1.73-6,3.47,6,3.48v-7Z"/>
            </g>
            <g class="cls3-7">
                <polygon class="cls3-4" points="58.9 58.98 63.36 61.69 58.78 64.2 58.9 58.98"/>
                <path class="cls3-5" d="M59.38,59.86l3,1.81L59.3,63.34l.08-3.48m-1-1.76-.16,6.95,6.1-3.34L58.42,58.1Z"/>
            </g>
            <g class="cls3-7">
                <rect class="cls3-8" x="68.46" y="58.87" width="39.26" height="5.33" rx="2.12" ry="2.12"/>
                <path class="cls3-5" d="M105.6,59.37A1.63,1.63,0,0,1,107.22,61v1.08a1.63,1.63,0,0,1-1.62,1.63h-35A1.63,1.63,0,0,1,69,62.07V61a1.63,1.63,0,0,1,1.62-1.62h35m0-1h-35A2.63,2.63,0,0,0,68,61v1.08a2.63,2.63,0,0,0,2.62,2.63h35a2.63,2.63,0,0,0,2.62-2.63V61a2.63,2.63,0,0,0-2.62-2.62Z"/>
            </g>
            <path class="cls3-11" d="M87.73,77.38H103a4.37,4.37,0,0,1,4.37,4.37V94.49a6.94,6.94,0,0,1-6.94,6.94H90.19a6.83,6.83,0,0,1-6.83-6.83V81.75A4.37,4.37,0,0,1,87.73,77.38Z"/>
            <rect class="cls3-4" x="50.89" y="78.07" width="27.67" height="4.2" rx="1.74" ry="1.74"/>
            <rect class="cls3-4" x="50.89" y="84.94" width="27.67" height="4.2" rx="1.74" ry="1.74"/>
            <rect class="cls3-4" x="50.89" y="91.82" width="27.67" height="4.2" rx="1.74" ry="1.74"/>
            <rect class="cls3-4" x="50.89" y="98.7" width="27.67" height="4.2" rx="1.74" ry="1.74"/>
            <rect class="cls3-4" x="50.89" y="105.57" width="56.52" height="4.2" rx="1.74" ry="1.74"/>
            <rect class="cls3-4" x="50.89" y="112.45" width="56.52" height="4.2" rx="1.74" ry="1.74"/>
            <circle class="cls3-9" cx="71.42" cy="61.18" r="1.28"/>
            <line class="cls3-9" x1="73.59" y1="63.35" x2="72.33" y2="62.09"/>
            <path class="cls3-4" d="M47.2,72V62.61a7.21,7.21,0,0,1,7.2-7.2H106a7.21,7.21,0,0,1,7.2,7.2V72Z"/>
            <path class="cls3-5" d="M106,56.41a6.21,6.21,0,0,1,6.2,6.2V71h-64V62.61a6.21,6.21,0,0,1,6.2-6.2H106m0-2H54.4a8.2,8.2,0,0,0-8.2,8.2V73h68V62.61a8.2,8.2,0,0,0-8.2-8.2Z"/>
            <path class="cls3-5" d="M112.24,75.79V115a6.21,6.21,0,0,1-6.2,6.2H54.4a6.21,6.21,0,0,1-6.2-6.2V75.79h64m2-2h-68V115a8.2,8.2,0,0,0,8.2,8.2H106a8.2,8.2,0,0,0,8.2-8.2V73.79Z"/>
            <rect class="cls3-6" x="46.6" y="67.48" width="67.25" height="2.37"/>
            <g class="cls3-7">
                <polygon class="cls3-4" points="51.89 61.53 56.41 58.92 56.41 64.14 51.89 61.53"/>
                <path class="cls3-5" d="M55.91,59.79v3.49l-3-1.75,3-1.74m1-1.73-6,3.47,6,3.48v-7Z"/>
            </g>
            <g class="cls3-7">
                <polygon class="cls3-4" points="58.9 58.98 63.36 61.69 58.78 64.2 58.9 58.98"/>
                <path class="cls3-5" d="M59.38,59.86l3,1.81L59.3,63.34l.08-3.48m-1-1.76-.16,6.95,6.1-3.34L58.42,58.1Z"/>
            </g>
            <g class="cls3-7">
                <rect class="cls3-8" x="68.46" y="58.87" width="39.26" height="5.33" rx="2.12" ry="2.12"/>
                <path class="cls3-5" d="M105.6,59.37A1.63,1.63,0,0,1,107.22,61v1.08a1.63,1.63,0,0,1-1.62,1.63h-35A1.63,1.63,0,0,1,69,62.07V61a1.63,1.63,0,0,1,1.62-1.62h35m0-1h-35A2.63,2.63,0,0,0,68,61v1.08a2.63,2.63,0,0,0,2.62,2.63h35a2.63,2.63,0,0,0,2.62-2.63V61a2.63,2.63,0,0,0-2.62-2.62Z"/>
            </g>
            <path class="cls3-6" d="M87.73,77.38H103a4.37,4.37,0,0,1,4.37,4.37V94.49a6.94,6.94,0,0,1-6.94,6.94H90.19a6.83,6.83,0,0,1-6.83-6.83V81.75A4.37,4.37,0,0,1,87.73,77.38Z"/>
            <rect class="cls3-4" x="50.89" y="78.07" width="27.67" height="4.2" rx="1.74" ry="1.74"/>
            <rect class="cls3-4" x="50.89" y="84.94" width="27.67" height="4.2" rx="1.74" ry="1.74"/>
            <rect class="cls3-4" x="50.89" y="91.82" width="27.67" height="4.2" rx="1.74" ry="1.74"/>
            <rect class="cls3-4" x="50.89" y="98.7" width="27.67" height="4.2" rx="1.74" ry="1.74"/>
            <rect class="cls3-4" x="50.89" y="105.57" width="56.52" height="4.2" rx="1.74" ry="1.74"/>
            <rect class="cls3-4" x="50.89" y="112.45" width="56.52" height="4.2" rx="1.74" ry="1.74"/>
            <circle class="cls3-9" cx="71.42" cy="61.18" r="1.28"/>
            <line class="cls3-9" x1="73.59" y1="63.35" x2="72.33" y2="62.09"/>
            <path class="cls3-4" d="M47.2,72V62.61a7.21,7.21,0,0,1,7.2-7.2H106a7.21,7.21,0,0,1,7.2,7.2V72Z"/>
            <path class="cls3-5" d="M106,56.41a6.21,6.21,0,0,1,6.2,6.2V71h-64V62.61a6.21,6.21,0,0,1,6.2-6.2H106m0-2H54.4a8.2,8.2,0,0,0-8.2,8.2V73h68V62.61a8.2,8.2,0,0,0-8.2-8.2Z"/>
            <path class="cls3-10" d="M54.4,122.24a7.21,7.21,0,0,1-7.2-7.2V74.79h66V115a7.21,7.21,0,0,1-7.2,7.2Z"/>
            <path class="cls3-5" d="M112.24,75.79V115a6.21,6.21,0,0,1-6.2,6.2H54.4a6.21,6.21,0,0,1-6.2-6.2V75.79h64m2-2h-68V115a8.2,8.2,0,0,0,8.2,8.2H106a8.2,8.2,0,0,0,8.2-8.2V73.79Z"/>
            <rect class="cls3-6" x="46.6" y="67.48" width="67.25" height="2.37"/>
            <g class="cls3-7">
                <polygon class="cls3-4" points="51.89 61.53 56.41 58.92 56.41 64.14 51.89 61.53"/>
                <path class="cls3-5" d="M55.91,59.79v3.49l-3-1.75,3-1.74m1-1.73-6,3.47,6,3.48v-7Z"/>
            </g>
            <g class="cls3-7">
                <polygon class="cls3-4" points="58.9 58.98 63.36 61.69 58.78 64.2 58.9 58.98"/>
                <path class="cls3-5" d="M59.38,59.86l3,1.81L59.3,63.34l.08-3.48m-1-1.76-.16,6.95,6.1-3.34L58.42,58.1Z"/>
            </g>
            <g class="cls3-7">
                <rect class="cls3-8" x="68.46" y="58.87" width="39.26" height="5.33" rx="2.12" ry="2.12"/>
                <path class="cls3-5" d="M105.6,59.37A1.63,1.63,0,0,1,107.22,61v1.08a1.63,1.63,0,0,1-1.62,1.63h-35A1.63,1.63,0,0,1,69,62.07V61a1.63,1.63,0,0,1,1.62-1.62h35m0-1h-35A2.63,2.63,0,0,0,68,61v1.08a2.63,2.63,0,0,0,2.62,2.63h35a2.63,2.63,0,0,0,2.62-2.63V61a2.63,2.63,0,0,0-2.62-2.62Z"/>
            </g>
            <path class="cls3-11" d="M87.73,77.38H103a4.37,4.37,0,0,1,4.37,4.37V94.49a6.94,6.94,0,0,1-6.94,6.94H90.19a6.83,6.83,0,0,1-6.83-6.83V81.75A4.37,4.37,0,0,1,87.73,77.38Z"/>
            <rect class="cls3-4" x="50.89" y="78.07" width="27.67" height="4.2" rx="1.74" ry="1.74"/>
            <rect class="cls3-4" x="50.89" y="84.94" width="27.67" height="4.2" rx="1.74" ry="1.74"/>
            <rect class="cls3-4" x="50.89" y="91.82" width="27.67" height="4.2" rx="1.74" ry="1.74"/>
            <rect class="cls3-4" x="50.89" y="98.7" width="27.67" height="4.2" rx="1.74" ry="1.74"/>
            <rect class="cls3-4" x="50.89" y="105.57" width="56.52" height="4.2" rx="1.74" ry="1.74"/>
            <rect class="cls3-4" x="50.89" y="112.45" width="56.52" height="4.2" rx="1.74" ry="1.74"/>
            <circle class="cls3-9" cx="71.42" cy="61.18" r="1.28"/>
            <line class="cls3-9" x1="73.59" y1="63.35" x2="72.33" y2="62.09"/>
            <path class="cls3-4" d="M39.76,67.5V58.1A7.21,7.21,0,0,1,47,50.9H98.6a7.21,7.21,0,0,1,7.2,7.2v9.4Z"/>
            <path class="cls3-5" d="M98.6,51.9a6.21,6.21,0,0,1,6.2,6.2v8.4h-64V58.1A6.21,6.21,0,0,1,47,51.9H98.6m0-2H47a8.2,8.2,0,0,0-8.2,8.2V68.5h68V58.1a8.2,8.2,0,0,0-8.2-8.2Z"/>
            <path class="cls3-5" d="M104.8,71.29v39.25a6.2,6.2,0,0,1-6.2,6.19H47a6.2,6.2,0,0,1-6.2-6.19V71.29h64m2-2h-68v41.25a8.2,8.2,0,0,0,8.2,8.19H98.6a8.2,8.2,0,0,0,8.2-8.19V69.29Z"/>
            <rect class="cls3-6" x="39.16" y="62.98" width="67.25" height="2.37"/>
            <g class="cls3-7">
                <polygon class="cls3-4" points="44.45 57.02 48.97 54.41 48.97 59.63 44.45 57.02"/>
                <path class="cls3-5" d="M48.47,55.28v3.49l-3-1.75,3-1.74m1-1.73-6,3.47,6,3.48v-7Z"/>
            </g>
            <g class="cls3-7">
                <polygon class="cls3-4" points="51.46 54.47 55.92 57.18 51.34 59.69 51.46 54.47"/>
                <path class="cls3-5" d="M51.94,55.35l3,1.81-3.06,1.67.08-3.48m-1-1.76-.16,6.95,6.1-3.34L51,53.59Z"/>
            </g>
            <g class="cls3-7">
                <rect class="cls3-8" x="61.02" y="54.36" width="39.26" height="5.33" rx="2.12" ry="2.12"/>
                <path class="cls3-5" d="M98.15,54.86a1.63,1.63,0,0,1,1.63,1.62v1.09a1.63,1.63,0,0,1-1.63,1.62h-35a1.63,1.63,0,0,1-1.62-1.62V56.48a1.63,1.63,0,0,1,1.62-1.62h35m0-1h-35a2.63,2.63,0,0,0-2.62,2.62v1.09a2.63,2.63,0,0,0,2.62,2.62h35a2.63,2.63,0,0,0,2.63-2.62V56.48a2.63,2.63,0,0,0-2.63-2.62Z"/>
            </g>
            <path class="cls3-6" d="M80.29,72.87H95.6A4.37,4.37,0,0,1,100,77.24V90A6.94,6.94,0,0,1,93,96.92H82.75a6.83,6.83,0,0,1-6.83-6.83V77.24a4.37,4.37,0,0,1,4.37-4.37Z"/>
            <rect class="cls3-4" x="43.45" y="73.56" width="27.67" height="4.2" rx="1.74" ry="1.74"/>
            <rect class="cls3-4" x="43.45" y="80.43" width="27.67" height="4.2" rx="1.74" ry="1.74"/>
            <rect class="cls3-4" x="43.45" y="87.31" width="27.67" height="4.2" rx="1.74" ry="1.74"/>
            <rect class="cls3-4" x="43.45" y="94.19" width="27.67" height="4.2" rx="1.74" ry="1.74"/>
            <rect class="cls3-4" x="43.45" y="101.06" width="56.52" height="4.2" rx="1.74" ry="1.74"/>
            <rect class="cls3-4" x="43.45" y="107.94" width="56.52" height="4.2" rx="1.74" ry="1.74"/>
            <circle class="cls3-9" cx="63.98" cy="56.68" r="1.28"/>
            <line class="cls3-9" x1="66.15" y1="58.84" x2="64.88" y2="57.58"/>
            <path class="cls3-4" d="M39.76,67.5V58.1A7.21,7.21,0,0,1,47,50.9H98.6a7.21,7.21,0,0,1,7.2,7.2v9.4Z"/>
            <path class="cls3-5" d="M98.6,51.9a6.21,6.21,0,0,1,6.2,6.2v8.4h-64V58.1A6.21,6.21,0,0,1,47,51.9H98.6m0-2H47a8.2,8.2,0,0,0-8.2,8.2V68.5h68V58.1a8.2,8.2,0,0,0-8.2-8.2Z"/>
            <path class="cls3-10" d="M47,117.73a7.21,7.21,0,0,1-7.2-7.19V70.29h66v40.25a7.21,7.21,0,0,1-7.2,7.19Z"/>
            <path class="cls3-5" d="M104.8,71.29v39.25a6.2,6.2,0,0,1-6.2,6.19H47a6.2,6.2,0,0,1-6.2-6.19V71.29h64m2-2h-68v41.25a8.2,8.2,0,0,0,8.2,8.19H98.6a8.2,8.2,0,0,0,8.2-8.19V69.29Z"/>
            <rect class="cls3-6" x="39.16" y="62.98" width="67.25" height="2.37"/>
            <g class="cls3-7">
                <polygon class="cls3-4" points="44.45 57.02 48.97 54.41 48.97 59.63 44.45 57.02"/>
                <path class="cls3-5" d="M48.47,55.28v3.49l-3-1.75,3-1.74m1-1.73-6,3.47,6,3.48v-7Z"/>
            </g>
            <g class="cls3-7">
                <polygon class="cls3-4" points="51.46 54.47 55.92 57.18 51.34 59.69 51.46 54.47"/>
                <path class="cls3-5" d="M51.94,55.35l3,1.81-3.06,1.67.08-3.48m-1-1.76-.16,6.95,6.1-3.34L51,53.59Z"/>
            </g>
            <g class="cls3-7">
                <rect class="cls3-8" x="61.02" y="54.36" width="39.26" height="5.33" rx="2.12" ry="2.12"/>
                <path class="cls3-5" d="M98.15,54.86a1.63,1.63,0,0,1,1.63,1.62v1.09a1.63,1.63,0,0,1-1.63,1.62h-35a1.63,1.63,0,0,1-1.62-1.62V56.48a1.63,1.63,0,0,1,1.62-1.62h35m0-1h-35a2.63,2.63,0,0,0-2.62,2.62v1.09a2.63,2.63,0,0,0,2.62,2.62h35a2.63,2.63,0,0,0,2.63-2.62V56.48a2.63,2.63,0,0,0-2.63-2.62Z"/>
            </g>
            <path class="cls3-11" d="M80.29,72.87H95.6A4.37,4.37,0,0,1,100,77.24V90A6.94,6.94,0,0,1,93,96.92H82.75a6.83,6.83,0,0,1-6.83-6.83V77.24a4.37,4.37,0,0,1,4.37-4.37Z"/>
            <rect class="cls3-4" x="43.45" y="73.56" width="27.67" height="4.2" rx="1.74" ry="1.74"/>
            <rect class="cls3-4" x="43.45" y="80.43" width="27.67" height="4.2" rx="1.74" ry="1.74"/>
            <rect class="cls3-4" x="43.45" y="87.31" width="27.67" height="4.2" rx="1.74" ry="1.74"/>
            <rect class="cls3-4" x="43.45" y="94.19" width="27.67" height="4.2" rx="1.74" ry="1.74"/>
            <rect class="cls3-4" x="43.45" y="101.06" width="56.52" height="4.2" rx="1.74" ry="1.74"/>
            <rect class="cls3-4" x="43.45" y="107.94" width="56.52" height="4.2" rx="1.74" ry="1.74"/>
            <circle class="cls3-9" cx="63.98" cy="56.68" r="1.28"/>
            <line class="cls3-9" x1="66.15" y1="58.84" x2="64.88" y2="57.58"/>
            <path class="cls3-4" d="M39.76,67.5V58.1A7.21,7.21,0,0,1,47,50.9H98.6a7.21,7.21,0,0,1,7.2,7.2v9.4Z"/>
            <path class="cls3-5" d="M98.6,51.9a6.21,6.21,0,0,1,6.2,6.2v8.4h-64V58.1A6.21,6.21,0,0,1,47,51.9H98.6m0-2H47a8.2,8.2,0,0,0-8.2,8.2V68.5h68V58.1a8.2,8.2,0,0,0-8.2-8.2Z"/>
            <path class="cls3-5" d="M104.8,71.29v39.25a6.2,6.2,0,0,1-6.2,6.19H47a6.2,6.2,0,0,1-6.2-6.19V71.29h64m2-2h-68v41.25a8.2,8.2,0,0,0,8.2,8.19H98.6a8.2,8.2,0,0,0,8.2-8.19V69.29Z"/>
            <rect class="cls3-6" x="39.16" y="62.98" width="67.25" height="2.37"/>
            <g class="cls3-7">
                <polygon class="cls3-4" points="44.45 57.02 48.97 54.41 48.97 59.63 44.45 57.02"/>
                <path class="cls3-5" d="M48.47,55.28v3.49l-3-1.75,3-1.74m1-1.73-6,3.47,6,3.48v-7Z"/>
            </g>
            <g class="cls3-7">
                <polygon class="cls3-4" points="51.46 54.47 55.92 57.18 51.34 59.69 51.46 54.47"/>
                <path class="cls3-5" d="M51.94,55.35l3,1.81-3.06,1.67.08-3.48m-1-1.76-.16,6.95,6.1-3.34L51,53.59Z"/>
            </g>
            <g class="cls3-7">
                <rect class="cls3-8" x="61.02" y="54.36" width="39.26" height="5.33" rx="2.12" ry="2.12"/>
                <path class="cls3-5" d="M98.15,54.86a1.63,1.63,0,0,1,1.63,1.62v1.09a1.63,1.63,0,0,1-1.63,1.62h-35a1.63,1.63,0,0,1-1.62-1.62V56.48a1.63,1.63,0,0,1,1.62-1.62h35m0-1h-35a2.63,2.63,0,0,0-2.62,2.62v1.09a2.63,2.63,0,0,0,2.62,2.62h35a2.63,2.63,0,0,0,2.63-2.62V56.48a2.63,2.63,0,0,0-2.63-2.62Z"/>
            </g>
            <path class="cls3-6" d="M80.29,72.87H95.6A4.37,4.37,0,0,1,100,77.24V90A6.94,6.94,0,0,1,93,96.92H82.75a6.83,6.83,0,0,1-6.83-6.83V77.24a4.37,4.37,0,0,1,4.37-4.37Z"/>
            <rect class="cls3-4" x="43.45" y="73.56" width="27.67" height="4.2" rx="1.74" ry="1.74"/>
            <rect class="cls3-4" x="43.45" y="80.43" width="27.67" height="4.2" rx="1.74" ry="1.74"/>
            <rect class="cls3-4" x="43.45" y="87.31" width="27.67" height="4.2" rx="1.74" ry="1.74"/>
            <rect class="cls3-4" x="43.45" y="94.19" width="27.67" height="4.2" rx="1.74" ry="1.74"/>
            <rect class="cls3-4" x="43.45" y="101.06" width="56.52" height="4.2" rx="1.74" ry="1.74"/>
            <rect class="cls3-4" x="43.45" y="107.94" width="56.52" height="4.2" rx="1.74" ry="1.74"/>
            <circle class="cls3-9" cx="63.98" cy="56.68" r="1.28"/>
            <line class="cls3-9" x1="66.15" y1="58.84" x2="64.88" y2="57.58"/>
            <path class="cls3-4" d="M39.76,67.5V58.1A7.21,7.21,0,0,1,47,50.9H98.6a7.21,7.21,0,0,1,7.2,7.2v9.4Z"/>
            <path class="cls3-5" d="M98.6,51.9a6.21,6.21,0,0,1,6.2,6.2v8.4h-64V58.1A6.21,6.21,0,0,1,47,51.9H98.6m0-2H47a8.2,8.2,0,0,0-8.2,8.2V68.5h68V58.1a8.2,8.2,0,0,0-8.2-8.2Z"/>
            <rect class="cls3-6" x="39.16" y="62.98" width="67.25" height="2.37"/>
            <g class="cls3-7">
                <polygon class="cls3-4" points="44.45 57.02 48.97 54.41 48.97 59.63 44.45 57.02"/>
                <path class="cls3-5" d="M48.47,55.28v3.49l-3-1.75,3-1.74m1-1.73-6,3.47,6,3.48v-7Z"/>
            </g>
            <g class="cls3-7">
                <polygon class="cls3-4" points="51.46 54.47 55.92 57.18 51.34 59.69 51.46 54.47"/>
                <path class="cls3-5" d="M51.94,55.35l3,1.81-3.06,1.67.08-3.48m-1-1.76-.16,6.95,6.1-3.34L51,53.59Z"/>
            </g>
            <g class="cls3-7">
                <rect class="cls3-8" x="61.02" y="54.36" width="39.26" height="5.33" rx="2.12" ry="2.12"/>
                <path class="cls3-5" d="M98.15,54.86a1.63,1.63,0,0,1,1.63,1.62v1.09a1.63,1.63,0,0,1-1.63,1.62h-35a1.63,1.63,0,0,1-1.62-1.62V56.48a1.63,1.63,0,0,1,1.62-1.62h35m0-1h-35a2.63,2.63,0,0,0-2.62,2.62v1.09a2.63,2.63,0,0,0,2.62,2.62h35a2.63,2.63,0,0,0,2.63-2.62V56.48a2.63,2.63,0,0,0-2.63-2.62Z"/>
            </g>
            <path class="cls3-11" d="M80.29,72.87H95.6A4.37,4.37,0,0,1,100,77.24V90A6.94,6.94,0,0,1,93,96.92H82.75a6.83,6.83,0,0,1-6.83-6.83V77.24a4.37,4.37,0,0,1,4.37-4.37Z"/>
            <rect class="cls3-4" x="43.45" y="73.56" width="27.67" height="4.2" rx="1.74" ry="1.74"/>
            <rect class="cls3-4" x="43.45" y="80.43" width="27.67" height="4.2" rx="1.74" ry="1.74"/>
            <rect class="cls3-4" x="43.45" y="87.31" width="27.67" height="4.2" rx="1.74" ry="1.74"/>
            <rect class="cls3-4" x="43.45" y="94.19" width="27.67" height="4.2" rx="1.74" ry="1.74"/>
            <rect class="cls3-4" x="43.45" y="101.06" width="56.52" height="4.2" rx="1.74" ry="1.74"/>
            <rect class="cls3-4" x="43.45" y="107.94" width="56.52" height="4.2" rx="1.74" ry="1.74"/>
            <circle class="cls3-9" cx="63.98" cy="56.68" r="1.28"/>
            <line class="cls3-9" x1="66.15" y1="58.84" x2="64.88" y2="57.58"/>
            <path class="cls3-12" d="M113.86,39.88a59.49,59.49,0,1,0,21,45.32A59.28,59.28,0,0,0,113.86,39.88ZM42.3,120.34A49.45,49.45,0,0,1,36.6,114a48.36,48.36,0,0,1-4.86-51.11c.25-.52.53-1.05.81-1.56a49.15,49.15,0,0,1,13.2-15.45A48.5,48.5,0,0,1,75.5,35.69a49,49,0,0,1,21.78,5.12M108,48.07a48.92,48.92,0,0,1,16.37,36.52,48.35,48.35,0,0,1-6.9,24.91,54.34,54.34,0,0,1-5.65,7.48,56.88,56.88,0,0,1-6.82,6.43l-.88.7a48.38,48.38,0,0,1-51.32,3.71"/>
            <path class="cls3-4" d="M32,63.7V54.3a7.2,7.2,0,0,1,7.2-7.19H90.88a7.2,7.2,0,0,1,7.2,7.19v9.4Z"/>
            <path class="cls3-5" d="M90.88,48.11a6.2,6.2,0,0,1,6.2,6.19v8.4H33V54.3a6.2,6.2,0,0,1,6.2-6.19H90.88m0-2H39.24A8.2,8.2,0,0,0,31,54.3V64.7h68V54.3a8.2,8.2,0,0,0-8.2-8.19Z"/>
            <path class="cls3-5" d="M97.08,67.49v39.25a6.2,6.2,0,0,1-6.2,6.19H39.24a6.2,6.2,0,0,1-6.2-6.19V67.49h64m2-2H31v41.25a8.2,8.2,0,0,0,8.2,8.19H90.88a8.2,8.2,0,0,0,8.2-8.19V65.49Z"/>
            <rect class="cls3-6" x="31.44" y="59.18" width="67.25" height="2.37"/>
            <g class="cls3-7">
                <polygon class="cls3-4" points="36.73 53.23 41.25 50.62 41.25 55.83 36.73 53.23"/>
                <path class="cls3-5" d="M40.75,51.48V55l-3-1.74,3-1.75m1-1.73-6,3.48,6,3.47v-7Z"/>
            </g>
            <g class="cls3-7">
                <polygon class="cls3-4" points="43.73 50.67 48.2 53.38 43.62 55.89 43.73 50.67"/>
                <path class="cls3-5" d="M44.22,51.55l3,1.81-3,1.67.08-3.48m-1-1.76-.16,7,6.09-3.34-5.93-3.61Z"/>
            </g>
            <g class="cls3-7">
                <rect class="cls3-8" x="53.3" y="50.56" width="39.26" height="5.33" rx="2.12" ry="2.12"/>
                <path class="cls3-5" d="M90.43,51.06a1.62,1.62,0,0,1,1.62,1.62v1.09a1.62,1.62,0,0,1-1.62,1.62h-35a1.62,1.62,0,0,1-1.62-1.62V52.68a1.62,1.62,0,0,1,1.62-1.62h35m0-1h-35a2.63,2.63,0,0,0-2.62,2.62v1.09a2.63,2.63,0,0,0,2.62,2.62h35a2.63,2.63,0,0,0,2.62-2.62V52.68a2.63,2.63,0,0,0-2.62-2.62Z"/>
            </g>
            <path class="cls3-6" d="M72.57,69.08H87.88a4.37,4.37,0,0,1,4.37,4.37V86.18a6.94,6.94,0,0,1-6.94,6.94H75a6.83,6.83,0,0,1-6.83-6.83V73.44A4.37,4.37,0,0,1,72.57,69.08Z"/>
            <rect class="cls3-4" x="35.73" y="69.76" width="27.67" height="4.2" rx="1.74" ry="1.74"/>
            <rect class="cls3-4" x="35.73" y="76.64" width="27.67" height="4.2" rx="1.74" ry="1.74"/>
            <rect class="cls3-4" x="35.73" y="83.51" width="27.67" height="4.2" rx="1.74" ry="1.74"/>
            <rect class="cls3-4" x="35.73" y="90.39" width="27.67" height="4.2" rx="1.74" ry="1.74"/>
            <rect class="cls3-4" x="35.73" y="97.27" width="56.52" height="4.2" rx="1.74" ry="1.74"/>
            <rect class="cls3-4" x="35.73" y="104.14" width="56.52" height="4.2" rx="1.74" ry="1.74"/>
            <circle class="cls3-9" cx="56.26" cy="52.88" r="1.28"/>
            <line class="cls3-9" x1="58.43" y1="55.04" x2="57.16" y2="53.78"/>
            <path class="cls3-4" d="M32,63.7V54.3a7.2,7.2,0,0,1,7.2-7.19H90.88a7.2,7.2,0,0,1,7.2,7.19v9.4Z"/>
            <path class="cls3-5" d="M90.88,48.11a6.2,6.2,0,0,1,6.2,6.19v8.4H33V54.3a6.2,6.2,0,0,1,6.2-6.19H90.88m0-2H39.24A8.2,8.2,0,0,0,31,54.3V64.7h68V54.3a8.2,8.2,0,0,0-8.2-8.19Z"/>
            <path class="cls3-10" d="M39.24,113.93a7.2,7.2,0,0,1-7.2-7.19V66.49h66v40.25a7.2,7.2,0,0,1-7.2,7.19Z"/>
            <path class="cls3-5" d="M97.08,67.49v39.25a6.2,6.2,0,0,1-6.2,6.19H39.24a6.2,6.2,0,0,1-6.2-6.19V67.49h64m2-2H31v41.25a8.2,8.2,0,0,0,8.2,8.19H90.88a8.2,8.2,0,0,0,8.2-8.19V65.49Z"/>
            <rect class="cls3-6" x="31.44" y="59.18" width="67.25" height="2.37"/>
            <g class="cls3-7">
                <polygon class="cls3-4" points="36.73 53.23 41.25 50.62 41.25 55.83 36.73 53.23"/>
                <path class="cls3-5" d="M40.75,51.48V55l-3-1.74,3-1.75m1-1.73-6,3.48,6,3.47v-7Z"/>
            </g>
            <g class="cls3-7">
                <polygon class="cls3-4" points="43.73 50.67 48.2 53.38 43.62 55.89 43.73 50.67"/>
                <path class="cls3-5" d="M44.22,51.55l3,1.81-3,1.67.08-3.48m-1-1.76-.16,7,6.09-3.34-5.93-3.61Z"/>
            </g>
            <g class="cls3-7">
                <rect class="cls3-8" x="53.3" y="50.56" width="39.26" height="5.33" rx="2.12" ry="2.12"/>
                <path class="cls3-5" d="M90.43,51.06a1.62,1.62,0,0,1,1.62,1.62v1.09a1.62,1.62,0,0,1-1.62,1.62h-35a1.62,1.62,0,0,1-1.62-1.62V52.68a1.62,1.62,0,0,1,1.62-1.62h35m0-1h-35a2.63,2.63,0,0,0-2.62,2.62v1.09a2.63,2.63,0,0,0,2.62,2.62h35a2.63,2.63,0,0,0,2.62-2.62V52.68a2.63,2.63,0,0,0-2.62-2.62Z"/>
            </g>
            <path class="cls3-11" d="M72.57,69.08H87.88a4.37,4.37,0,0,1,4.37,4.37V86.18a6.94,6.94,0,0,1-6.94,6.94H75a6.83,6.83,0,0,1-6.83-6.83V73.44A4.37,4.37,0,0,1,72.57,69.08Z"/>
            <rect class="cls3-4" x="35.73" y="69.76" width="27.67" height="4.2" rx="1.74" ry="1.74"/>
            <rect class="cls3-4" x="35.73" y="76.64" width="27.67" height="4.2" rx="1.74" ry="1.74"/>
            <rect class="cls3-4" x="35.73" y="83.51" width="27.67" height="4.2" rx="1.74" ry="1.74"/>
            <rect class="cls3-4" x="35.73" y="90.39" width="27.67" height="4.2" rx="1.74" ry="1.74"/>
            <rect class="cls3-4" x="35.73" y="97.27" width="56.52" height="4.2" rx="1.74" ry="1.74"/>
            <rect class="cls3-4" x="35.73" y="104.14" width="56.52" height="4.2" rx="1.74" ry="1.74"/>
            <circle class="cls3-9" cx="56.26" cy="52.88" r="1.28"/>
            <line class="cls3-9" x1="58.43" y1="55.04" x2="57.16" y2="53.78"/>
            <path class="cls3-4" d="M32,63.7V54.3a7.2,7.2,0,0,1,7.2-7.19H90.88a7.2,7.2,0,0,1,7.2,7.19v9.4Z"/>
            <path class="cls3-5" d="M90.88,48.11a6.2,6.2,0,0,1,6.2,6.19v8.4H33V54.3a6.2,6.2,0,0,1,6.2-6.19H90.88m0-2H39.24A8.2,8.2,0,0,0,31,54.3V64.7h68V54.3a8.2,8.2,0,0,0-8.2-8.19Z"/>
            <path class="cls3-5" d="M97.08,67.49v39.25a6.2,6.2,0,0,1-6.2,6.19H39.24a6.2,6.2,0,0,1-6.2-6.19V67.49h64m2-2H31v41.25a8.2,8.2,0,0,0,8.2,8.19H90.88a8.2,8.2,0,0,0,8.2-8.19V65.49Z"/>
            <rect class="cls3-6" x="31.44" y="59.18" width="67.25" height="2.37"/>
            <g class="cls3-7">
                <polygon class="cls3-4" points="36.73 53.23 41.25 50.62 41.25 55.83 36.73 53.23"/>
                <path class="cls3-5" d="M40.75,51.48V55l-3-1.74,3-1.75m1-1.73-6,3.48,6,3.47v-7Z"/>
            </g>
            <g class="cls3-7">
                <polygon class="cls3-4" points="43.73 50.67 48.2 53.38 43.62 55.89 43.73 50.67"/>
                <path class="cls3-5" d="M44.22,51.55l3,1.81-3,1.67.08-3.48m-1-1.76-.16,7,6.09-3.34-5.93-3.61Z"/>
            </g>
            <g class="cls3-7">
                <rect class="cls3-8" x="53.3" y="50.56" width="39.26" height="5.33" rx="2.12" ry="2.12"/>
                <path class="cls3-5" d="M90.43,51.06a1.62,1.62,0,0,1,1.62,1.62v1.09a1.62,1.62,0,0,1-1.62,1.62h-35a1.62,1.62,0,0,1-1.62-1.62V52.68a1.62,1.62,0,0,1,1.62-1.62h35m0-1h-35a2.63,2.63,0,0,0-2.62,2.62v1.09a2.63,2.63,0,0,0,2.62,2.62h35a2.63,2.63,0,0,0,2.62-2.62V52.68a2.63,2.63,0,0,0-2.62-2.62Z"/>
            </g>
            <path class="cls3-6" d="M72.57,69.08H87.88a4.37,4.37,0,0,1,4.37,4.37V86.18a6.94,6.94,0,0,1-6.94,6.94H75a6.83,6.83,0,0,1-6.83-6.83V73.44A4.37,4.37,0,0,1,72.57,69.08Z"/>
            <rect class="cls3-4" x="35.73" y="69.76" width="27.67" height="4.2" rx="1.74" ry="1.74"/>
            <rect class="cls3-4" x="35.73" y="76.64" width="27.67" height="4.2" rx="1.74" ry="1.74"/>
            <rect class="cls3-4" x="35.73" y="83.51" width="27.67" height="4.2" rx="1.74" ry="1.74"/>
            <rect class="cls3-4" x="35.73" y="90.39" width="27.67" height="4.2" rx="1.74" ry="1.74"/>
            <rect class="cls3-4" x="35.73" y="97.27" width="56.52" height="4.2" rx="1.74" ry="1.74"/>
            <rect class="cls3-4" x="35.73" y="104.14" width="56.52" height="4.2" rx="1.74" ry="1.74"/>
            <circle class="cls3-9" cx="56.26" cy="52.88" r="1.28"/>
            <line class="cls3-9" x1="58.43" y1="55.04" x2="57.16" y2="53.78"/>
            <path class="cls3-4" d="M32,63.7V54.3a7.2,7.2,0,0,1,7.2-7.19H90.88a7.2,7.2,0,0,1,7.2,7.19v9.4Z"/>
            <path class="cls3-5" d="M90.88,48.11a6.2,6.2,0,0,1,6.2,6.19v8.4H33V54.3a6.2,6.2,0,0,1,6.2-6.19H90.88m0-2H39.24A8.2,8.2,0,0,0,31,54.3V64.7h68V54.3a8.2,8.2,0,0,0-8.2-8.19Z"/>
            <rect class="cls3-6" x="31.44" y="59.18" width="67.25" height="2.37"/>
            <g class="cls3-7">
                <polygon class="cls3-4" points="36.73 53.23 41.25 50.62 41.25 55.83 36.73 53.23"/>
                <path class="cls3-5" d="M40.75,51.48V55l-3-1.74,3-1.75m1-1.73-6,3.48,6,3.47v-7Z"/>
            </g>
            <g class="cls3-7">
                <polygon class="cls3-4" points="43.73 50.67 48.2 53.38 43.62 55.89 43.73 50.67"/>
                <path class="cls3-5" d="M44.22,51.55l3,1.81-3,1.67.08-3.48m-1-1.76-.16,7,6.09-3.34-5.93-3.61Z"/>
            </g>
            <g class="cls3-7">
                <rect class="cls3-8" x="53.3" y="50.56" width="39.26" height="5.33" rx="2.12" ry="2.12"/>
                <path class="cls3-5" d="M90.43,51.06a1.62,1.62,0,0,1,1.62,1.62v1.09a1.62,1.62,0,0,1-1.62,1.62h-35a1.62,1.62,0,0,1-1.62-1.62V52.68a1.62,1.62,0,0,1,1.62-1.62h35m0-1h-35a2.63,2.63,0,0,0-2.62,2.62v1.09a2.63,2.63,0,0,0,2.62,2.62h35a2.63,2.63,0,0,0,2.62-2.62V52.68a2.63,2.63,0,0,0-2.62-2.62Z"/>
            </g>
            <path class="cls3-11" d="M72.57,69.08H87.88a4.37,4.37,0,0,1,4.37,4.37V86.18a6.94,6.94,0,0,1-6.94,6.94H75a6.83,6.83,0,0,1-6.83-6.83V73.44A4.37,4.37,0,0,1,72.57,69.08Z"/>
            <rect class="cls3-4" x="35.73" y="69.76" width="27.67" height="4.2" rx="1.74" ry="1.74"/>
            <rect class="cls3-4" x="35.73" y="76.64" width="27.67" height="4.2" rx="1.74" ry="1.74"/>
            <rect class="cls3-4" x="35.73" y="83.51" width="27.67" height="4.2" rx="1.74" ry="1.74"/>
            <rect class="cls3-4" x="35.73" y="90.39" width="27.67" height="4.2" rx="1.74" ry="1.74"/>
            <rect class="cls3-4" x="35.73" y="97.27" width="56.52" height="4.2" rx="1.74" ry="1.74"/>
            <rect class="cls3-4" x="35.73" y="104.14" width="56.52" height="4.2" rx="1.74" ry="1.74"/>
            <circle class="cls3-9" cx="56.26" cy="52.88" r="1.28"/>
            <line class="cls3-9" x1="58.43" y1="55.04" x2="57.16" y2="53.78"/>
            <polyline class="cls3-13" points="97.28 40.81 42.3 120.34 52.82 127.83 108.02 48.07"/>
            <path class="cls3-14" d="M113.31,111v4.3a7.06,7.06,0,0,1-7,7.06h-4.42"/>
            <path class="cls3-15" d="M90.85,114.14s7.86-.2,7.86-9V62.81L100,60.74v46.81s-.41,7.38-9.12,7.38H63.4l.59-.78Z"/>
            <path class="cls3-15" d="M107.41,58.5v52.69s-.4,7.38-9.11,7.38l-37.51.18.58-.78,36.93-.2s7.85-.19,7.85-9V56.49l-.54-2.63h0A6.87,6.87,0,0,1,107.41,58.5Z"/>
            <path class="cls3-15" d="M114.82,63.58l-.34,51.72a8,8,0,0,1-1,4c-1.09,2-3.08,4.3-7.8,3.92l-48-.06.43-.8,47.46,0s8,.2,8-8.57V63.21A9.24,9.24,0,0,0,113,60l-1.22-3.26.84,1a8.78,8.78,0,0,1,2.2,5.21C114.82,63.15,114.82,63.36,114.82,63.58Z"/>
            <path class="cls3-15" d="M56.11,127.28l52.77-76-1-1c-15.15,21-33.62,47.81-53.4,76.87Z"/>
            <path class="cls3-15" d="M32.23,111l0-.09"/>
            <path class="cls3-15" d="M44.67,114.16l-.34.65H37.75c-.43,0-.8,0-1.12,0a4.23,4.23,0,0,1-3.05-1.64A18.35,18.35,0,0,1,32.23,111a5.26,5.26,0,0,0,1.44,1.57,8.06,8.06,0,0,0,4.94,1.59Z"/>
            <path class="cls3-15" d="M32.16,110.88l0,0,0,.09"/>
            <path class="cls3-15" d="M40.05,114.89a2,2,0,0,0,.62.9h3.12l.66-.86h-.18l.4-.77H39.84Z"/>
            <path class="cls3-15" d="M43,46c2-2.73,19.22-13.65,25.63-8.36-1.93.49-12.46,1.75-20,8.45Z"/>
            <path class="cls3-15" d="M108.88,47.81s3,.87,6.68,9.21c0,0-4.23-6.73-7.67-6.73C107.89,50.29,110.51,49.44,108.88,47.81Z"/>
            <path class="cls3-15" d="M109,47.87s5.93,3.7,8.77,13.49c0,0-5.86-10.83-9.79-11.07C108,50.29,110.78,49.85,109,47.87Z"/>
            <polygon class="cls3-15" points="41.75 119.4 36.63 114.78 39.24 114.93 41.75 118.73 41.75 119.4"/>
            <path class="cls3-15" d="M31,103.45S22.59,83,31.44,66.19L31,61.53s-12.69,18.9.41,44.9Z"/>
            <path class="cls3-15" d="M114.48,115.3s7.17-8.21,7.17-15.93c0,0-3,7.75-7.15,11.93Z"/>
            <path class="cls3-15" d="M107.5,123.27s-8.31,7-16,7c0,0,7.8-2.87,12-7Z"/>
            <polygon class="cls3-17" points="60.85 52.42 43.45 91.51 65.06 59.91 63.4 50.7 60.85 52.42"/>
            <path class="cls3-15" d="M95.38,41.31s-1.71-1.76-8-4.15l8.74,3Z"/>
            <path class="cls3-15" d="M96.13,40.15a33.51,33.51,0,0,0-8.74-3s7.14,3.12,8,4.15Z"/>
            <path class="cls3-18" d="M88.09,30.22s19.32,3.16,30,19.53c0,0-13.14-8.13-17-5.93,0,0,3.88-3.11,5.72-2.65C106.8,41.17,98,33.32,88.09,30.22Z"/>
            <polygon class="cls3-19" points="53.56 124.1 51.17 128.17 49.86 128.03 42.3 122.46 42.94 122.22 42.69 121.97 45.23 118.86 53.56 124.1"/>
            <g class="cls3-20">
                <line class="cls3-21" x1="141.3" y1="122.13" x2="123.72" y2="139.71"/>
                <line class="cls3-21" x1="135.86" y1="109.24" x2="99.3" y2="145.8"/>
                <line class="cls3-21" x1="129.7" y1="97.07" x2="76.12" y2="150.65"/>
                <line class="cls3-21" x1="124.92" y1="83.52" x2="55.38" y2="153.06"/>
                <polyline class="cls3-21" points="137.18 52.94 129.19 60.93 123.81 66.31 41.55 148.56"/>
                <line class="cls3-21" x1="139.01" y1="32.77" x2="31.13" y2="140.65"/>
                <line class="cls3-21" x1="136.59" y1="16.86" x2="21.6" y2="131.85"/>
                <line class="cls3-21" x1="127.85" y1="7.27" x2="11.32" y2="123.8"/>
                <line class="cls3-21" x1="102.48" y1="14.31" x2="5.03" y2="111.76"/>
                <line class="cls3-21" x1="70.15" y1="28.31" x2="4.61" y2="93.85"/>
                <line class="cls3-21" x1="52.41" y1="27.72" x2="6.39" y2="73.74"/>
                <line class="cls3-21" x1="43.91" y1="17.89" x2="23.09" y2="38.71"/>
                <line class="cls3-21" x1="31.97" y1="11.5" x2="20.58" y2="22.89"/>
            </g>
            <g class="cls3-2">
                <rect class="cls3-4" x="104.14" y="27.01" width="3.54" height="1" transform="translate(70.53 131.05) rotate(-85.69)"/>
                <rect class="cls3-4" x="103.83" y="31.23" width="3.54" height="1" transform="translate(66.02 134.64) rotate(-85.69)"/>
                <rect class="cls3-4" x="107.35" y="28" width="1" height="3.54" transform="translate(70.11 135.1) rotate(-85.72)"/>
                <rect class="cls3-4" x="103.16" y="27.69" width="1" height="3.54" transform="translate(66.54 130.63) rotate(-85.72)"/>
                <rect class="cls3-4" x="105.62" y="27.86" width="3.54" height="1" transform="translate(7.5 76.93) rotate(-40.72)"/>
                <rect class="cls3-4" x="106.69" y="29.33" width="1" height="3.54" transform="translate(5.65 77.45) rotate(-40.72)"/>
                <rect class="cls3-4" x="102.35" y="30.45" width="3.54" height="1" transform="translate(5.02 75.42) rotate(-40.72)"/>
                <rect class="cls3-4" x="103.84" y="26.23" width="1" height="3.54" transform="translate(6.99 74.85) rotate(-40.72)"/>
            </g>
            <g class="cls3-2">
                <line class="cls3-3" x1="32.87" y1="25.9" x2="32.87" y2="29.28"/>
                <line class="cls3-3" x1="32.87" y1="31.52" x2="32.87" y2="34.9"/>
                <line class="cls3-3" x1="37.35" y1="30.4" x2="33.97" y2="30.4"/>
                <line class="cls3-3" x1="31.77" y1="30.4" x2="28.39" y2="30.4"/>
                <line class="cls3-3" x1="33.72" y1="29.77" x2="36.11" y2="27.38"/>
                <line class="cls3-3" x1="33.72" y1="31.04" x2="36.11" y2="33.43"/>
                <line class="cls3-3" x1="29.64" y1="33.53" x2="32.03" y2="31.14"/>
                <line class="cls3-3" x1="32.03" y1="29.6" x2="29.64" y2="27.21"/>
            </g>
            <g class="cls3-2">
                <line class="cls3-3" x1="17.92" y1="67.94" x2="17.92" y2="70.04"/>
                <line class="cls3-3" x1="17.92" y1="71.44" x2="17.92" y2="73.54"/>
                <line class="cls3-3" x1="20.7" y1="70.74" x2="18.6" y2="70.74"/>
                <line class="cls3-3" x1="17.23" y1="70.74" x2="15.13" y2="70.74"/>
                <line class="cls3-3" x1="18.45" y1="70.35" x2="19.93" y2="68.86"/>
                <line class="cls3-3" x1="18.45" y1="71.14" x2="19.93" y2="72.63"/>
                <line class="cls3-3" x1="15.9" y1="72.69" x2="17.39" y2="71.2"/>
                <line class="cls3-3" x1="17.39" y1="70.24" x2="15.9" y2="68.75"/>
            </g>
            <g class="cls3-2">
                <line class="cls3-3" x1="69.96" y1="17.56" x2="69.96" y2="19.66"/>
                <line class="cls3-3" x1="69.96" y1="21.06" x2="69.96" y2="23.16"/>
                <line class="cls3-3" x1="72.74" y1="20.36" x2="70.64" y2="20.36"/>
                <line class="cls3-3" x1="69.27" y1="20.36" x2="67.17" y2="20.36"/>
                <line class="cls3-3" x1="70.49" y1="19.96" x2="71.97" y2="18.48"/>
                <line class="cls3-3" x1="70.49" y1="20.75" x2="71.97" y2="22.24"/>
                <line class="cls3-3" x1="67.94" y1="22.31" x2="69.43" y2="20.82"/>
                <line class="cls3-3" x1="69.43" y1="19.86" x2="67.94" y2="18.37"/>
            </g>
            <g class="cls3-2">
                <line class="cls3-3" x1="20.4" y1="119.51" x2="20.4" y2="122.52"/>
                <line class="cls3-3" x1="20.4" y1="124.51" x2="20.4" y2="127.52"/>
                <line class="cls3-3" x1="24.38" y1="123.51" x2="21.38" y2="123.51"/>
                <line class="cls3-3" x1="19.42" y1="123.51" x2="16.41" y2="123.51"/>
                <line class="cls3-3" x1="21.16" y1="122.95" x2="23.28" y2="120.82"/>
                <line class="cls3-3" x1="21.16" y1="124.08" x2="23.28" y2="126.21"/>
                <line class="cls3-3" x1="17.52" y1="126.3" x2="19.65" y2="124.17"/>
                <line class="cls3-3" x1="19.65" y1="122.8" x2="17.52" y2="120.67"/>
            </g>
            <g class="cls3-2">
                <line class="cls3-3" x1="123.59" y1="67.82" x2="123.59" y2="65.06"/>
                <line class="cls3-3" x1="123.59" y1="72.41" x2="123.59" y2="69.65"/>
                <line class="cls3-3" x1="124.49" y1="68.74" x2="127.25" y2="68.74"/>
                <line class="cls3-3" x1="119.94" y1="68.74" x2="122.7" y2="68.74"/>
                <line class="cls3-3" x1="124.29" y1="68.22" x2="126.24" y2="66.27"/>
                <line class="cls3-3" x1="124.29" y1="69.25" x2="126.24" y2="71.2"/>
                <line class="cls3-3" x1="120.96" y1="71.29" x2="122.91" y2="69.34"/>
                <line class="cls3-3" x1="120.96" y1="66.13" x2="122.91" y2="68.08"/>
            </g>
            <path class="cls3-23" d="M105.66,43s5.94.91,6.75,2.22c0,0-2.06-4.44-4.56-5.75s2.09,3.28,2.09,3.28S105.1,42.45,105.66,43Z"/>
        </g>
    </g>
</svg>