<svg id="Layer_1" data-name="Layer 1" xmlns="http://www.w3.org/2000/svg" viewBox="0 0 150 150"><defs><style>.cls-1,.cls-10,.cls-2{fill:none;}.cls-1,.cls-11,.cls-2,.cls-4,.cls-5{stroke:#67c8c3;}.cls-1,.cls-10,.cls-11,.cls-2,.cls-4,.cls-5,.cls-8{stroke-miterlimit:10;}.cls-1,.cls-10,.cls-11{stroke-width:0.5px;}.cls-3{fill:#91729d;}.cls-4{fill:#b49dca;opacity:0.5;}.cls-4,.cls-8{stroke-width:0.25px;}.cls-11,.cls-5{fill:#67c8c3;}.cls-6{fill:#5b8d86;}.cls-7{fill:#ededed;}.cls-8,.cls-9{fill:#5ba397;}.cls-8{stroke:#5ba397;}.cls-10{stroke:#b49dca;}</style></defs><title>podcastMic</title><path class="cls-1" d="M93.72,49.5c1.23,9.6.63,22.65-2.31,40.39,0,0,4-4.78,5-7.87a.64.64,0,0,0,0-.07,4.64,4.64,0,0,0,.12-.47.32.32,0,0,0,0-.14"/><path class="cls-2" d="M97.19,64.19v0l.28-12.87v-.57"/><path class="cls-2" d="M97.45,46.37h-4.2c-.18-1-.37-2-.58-2.87h4.51c0,.09,0,.19,0,.28C97.34,44.64,97.4,45.5,97.45,46.37Z"/><path class="cls-2" d="M96.55,40.37H91.84c-.31-1-.63-2-1-2.87h4.69A21.27,21.27,0,0,1,96.55,40.37Z"/><path class="cls-2" d="M93.93,34.37H89.47C84.3,24.21,76.45,23,72.94,23a23.59,23.59,0,0,1,11.44,2.43A23.88,23.88,0,0,1,93.93,34.37Z"/><path class="cls-3" d="M72.14,65.09l2.68-1.58a27.53,27.53,0,0,0,2.89,4.09,11.29,11.29,0,0,0,1.68,1.6,6.57,6.57,0,0,0,1.91,1,8.86,8.86,0,0,0,6.54-.65,7,7,0,0,0,.9-.59,3.89,3.89,0,0,0,.72-.69,7,7,0,0,0,1.77-3.88,5.28,5.28,0,0,0-1.4-3.76,6.94,6.94,0,0,0-3.68-2.21,9.43,9.43,0,0,0-2.2-.26,8.92,8.92,0,0,0-1.55.12,8.44,8.44,0,0,0-5.21,1.65c-1.53,1.21-2.68,3.07-4,4.62,1-1.88,1.59-4,3.08-5.84a11,11,0,0,1,6.15-3.56c.34,0,.67-.06,1-.08s.57,0,1.15,0a12.09,12.09,0,0,1,3,.51,9.94,9.94,0,0,1,5,3.44,8.19,8.19,0,0,1,1.76,6,8.8,8.8,0,0,1-1,3,13.28,13.28,0,0,1-1.72,2.48,9.18,9.18,0,0,1-2.55,1.88,11,11,0,0,1-2.86,1,11.8,11.8,0,0,1-6-.28,9.93,9.93,0,0,1-2.77-1.45,14.11,14.11,0,0,1-2.11-2A30.44,30.44,0,0,1,72.14,65.09Z"/><path class="cls-3" d="M75.08,63.89l-2.63,1.66a26,26,0,0,0-3.13-3.9c-.59-.61-1.2-1.21-1.83-1.78a6.52,6.52,0,0,0-1.79-1.15,8.46,8.46,0,0,0-4.39-.53,7.81,7.81,0,0,0-4,1.69A9.14,9.14,0,0,0,56,61.62a6.13,6.13,0,0,0-.79,2,5,5,0,0,0,.89,3.86A6.83,6.83,0,0,0,59.49,70a9.43,9.43,0,0,0,3.7.46,9.46,9.46,0,0,0,5.43-1.16c1.71-.93,3-2.67,4.49-4.14C72,67,71.18,69.05,69.4,70.66A11.87,11.87,0,0,1,63,73.58c-.34,0-.68,0-1,0s-.58,0-1.15-.1a12,12,0,0,1-2.92-.77,9.87,9.87,0,0,1-4.67-4,8.73,8.73,0,0,1-1.13-3,7.57,7.57,0,0,1,.15-3.25,10,10,0,0,1,1.28-2.83,10.27,10.27,0,0,1,2-2.35,11,11,0,0,1,5.61-2.26,11.45,11.45,0,0,1,6,.85,9.94,9.94,0,0,1,2.58,1.72c.67.61,1.32,1.25,2,1.91A28.45,28.45,0,0,1,75.08,63.89Z"/><path class="cls-4" d="M63.9,70.78c-1.73.42-9.46-.62-9.46-6.48,0-3.53,3.79-6.18,7.2-6.29a6.08,6.08,0,0,1,5.52,1.79,7.2,7.2,0,0,0-6.06-.68c-2.16.84-4.21,3.31-4,5.74a4.35,4.35,0,0,0,1.07,2.33,9.68,9.68,0,0,0,3.18,2.3c.52.25.94.61,1.48.81A5.54,5.54,0,0,0,63.9,70.78Z"/><path class="cls-4" d="M82.67,70.39c1.72.77,8.7.16,9-6.09.14-3.71-3.44-6.53-7.11-6.32-3.75-.46-5.45.67-5.45.67,1.83-1,4.17-.31,6.17.47,2.16.84,4.2,3.31,4,5.74a4.37,4.37,0,0,1-1.08,2.33,9.74,9.74,0,0,1-3.17,2.3c-.52.25-1.05.48-1.59.68C83.2,70.22,82.82,70.43,82.67,70.39Z"/><path class="cls-5" d="M109.28,59.49c-.28-1.22-.78-2.57-2.14-2.87a2.6,2.6,0,0,0-2.63,1.08,2.26,2.26,0,0,0-.16.26,5,5,0,0,0-.51,1.84,18.79,18.79,0,0,0-.06,2.25c0,.79.06,1.58.06,2.37a11.31,11.31,0,0,1-.14,2.17,3.13,3.13,0,0,1-1.09,2,3,3,0,0,1-1.38.6,3.27,3.27,0,0,1-1.64-.18L99.37,69a3.43,3.43,0,0,1-1.49-1.72,8.38,8.38,0,0,1-.58-2.14c0-.3-.08-.61-.11-.92v0c0-.41-.06-.82-.07-1.24s0-1.13,0-1.69c.07-3.3.26-6.63.35-9.94v-.57c0-.41,0-.82,0-1.23H88.67a1.6,1.6,0,1,1,0-3.13h4.58c-.18-1-.37-2-.58-2.87H88.32a1.6,1.6,0,1,1,0-3.13h3.52c-.31-1-.63-2-1-2.87H88.32a1.76,1.76,0,0,1-1.91-1.56,1.76,1.76,0,0,1,1.91-1.57h1.15C84.3,24.21,76.45,23,72.94,23h-.47a4.58,4.58,0,0,0-.53,0H71.8l-.27,0A23.82,23.82,0,0,0,60,27.21a24.45,24.45,0,0,0-6.73,7.16h4.79A1.77,1.77,0,0,1,60,35.93a1.44,1.44,0,0,1-.15.61,1.59,1.59,0,0,1-.41.5,2.18,2.18,0,0,1-.95.43l-.28,0H51.62c-.11.25-.22.5-.32.75-.28.65-.54,1.31-.76,2l0,.15h7.6A1.78,1.78,0,0,1,60,41.89a1.48,1.48,0,0,1,0,.21,1.82,1.82,0,0,1-1.9,1.4H49.67c-.05.24-.09.49-.13.73-.13.71-.24,1.43-.32,2.14h8.87a1.6,1.6,0,1,1,0,3.13H49c-.13,2.8-.06,5.63,0,8.41,0,.29,0,.57,0,.86.05,1,.15,2,.22,3a17.92,17.92,0,0,1,0,3,9.48,9.48,0,0,1-.26,1.49,5.75,5.75,0,0,1-.21.67,4.77,4.77,0,0,1-.36.62,4.23,4.23,0,0,1-.69.83,3,3,0,0,1-2,.81,2.89,2.89,0,0,1-2.26-1c-1.35-1.53-1-3.62-.85-5.46a7.78,7.78,0,0,0-.7-4.48c-.76-1.34-2.6-2.3-3.93-.8a3.71,3.71,0,0,0-.81,2c-.14,1.38-.2,2.76-.22,4.14C36.69,75.68,38.11,89,46.41,98.41a31.8,31.8,0,0,0,12.27,8.41,32.59,32.59,0,0,0,6.91,2c.31,0,3.54.5,4.35.55.1,0,.18.1.09.21v12.4l-9.15,0A3.87,3.87,0,0,0,56.75,126H89.42A3.79,3.79,0,0,0,85.34,122H76.11v-3q0-4.61,0-9.22a.32.32,0,0,1,0-.14.24.24,0,0,1,.11-.09,6.07,6.07,0,0,1,2-.34,34.85,34.85,0,0,0,17-6.56,32.36,32.36,0,0,0,8.88-10.93,49.3,49.3,0,0,0,4.25-12.93C109.65,72.54,110.69,65.71,109.28,59.49Zm-7,21.42a29.22,29.22,0,0,1-4.82,10.56,28.11,28.11,0,0,1-3.31,3.75,31.85,31.85,0,0,1-15.76,8.11,2.09,2.09,0,0,1-1.79-.21c-.64-.56-.51-1.51-.48-2.27,0-.54,0-1.08,0-1.62a8.33,8.33,0,0,1,0-1.22,25.81,25.81,0,0,1-6.06.13,4.35,4.35,0,0,1,0,1,14.88,14.88,0,0,0-.07,1.76c0,.76.16,1.71-.48,2.27a2.09,2.09,0,0,1-1.79.21A31.92,31.92,0,0,1,52,95.22a28.83,28.83,0,0,1-3.31-3.75,29.37,29.37,0,0,1-4.81-10.56c-.41-1.73-1.09-4.34.84-5.43a2.57,2.57,0,0,1,2.34,0,3.61,3.61,0,0,1,2,2.93,33.89,33.89,0,0,0,.92,4.11,20.37,20.37,0,0,0,4.53,7.39c.4.42.81.83,1.24,1.22A28,28,0,0,0,65,96.63c.28.1.55.19.83.27a8.25,8.25,0,0,0,1.71.28c.48,0,1-.05,1.47,0a1.55,1.55,0,0,1,.69.28h6.64a.54.54,0,0,1,.15-.15.92.92,0,0,1,.43-.11c.53,0,1.06,0,1.59,0a10.26,10.26,0,0,0,1.55-.27,16.78,16.78,0,0,0,3-1.11,29.69,29.69,0,0,0,7.43-4.71c.43-.39.85-.8,1.25-1.22a20.51,20.51,0,0,0,4.53-7.39,38.15,38.15,0,0,0,.92-4.11,3.59,3.59,0,0,1,2-2.93,2.55,2.55,0,0,1,2.33,0C103.39,76.57,102.7,79.18,102.3,80.91Z"/><path class="cls-2" d="M58.09,46.37h0Z"/><line class="cls-2" x1="58.09" y1="40.37" x2="50.49" y2="40.37"/><line class="cls-2" x1="58.09" y1="43.5" x2="49.67" y2="43.5"/><line class="cls-2" x1="58.09" y1="34.37" x2="53.3" y2="34.37"/><line class="cls-2" x1="58.09" y1="37.5" x2="51.62" y2="37.5"/><path class="cls-2" d="M88.67,49.5h0Z"/><polyline class="cls-2" points="97.79 46.37 97.45 46.37 97.11 46.37 93.8 46.37 93.25 46.37 88.67 46.37"/><path class="cls-2" d="M88.32,43.5h0Z"/><polyline class="cls-2" points="88.32 34.37 93.93 34.37 95.55 37.5 88.32 37.5"/><line class="cls-2" x1="97.45" y1="46.37" x2="97.22" y2="43.78"/><polyline class="cls-2" points="96.55 40.37 91.84 40.37 88.32 40.37"/><path class="cls-1" d="M71.53,23.1l.27,0h.14a4.22,4.22,0,0,1,.53,0h.47"/><path class="cls-6" d="M72.38,65.19l2.68-1.58A26.82,26.82,0,0,0,78,67.7a10.83,10.83,0,0,0,1.68,1.6,6.57,6.57,0,0,0,1.91,1,8.78,8.78,0,0,0,4.44.12,8.56,8.56,0,0,0,2.09-.77A7.1,7.1,0,0,0,89,69a3.84,3.84,0,0,0,.71-.69,7,7,0,0,0,1.78-3.88,5.37,5.37,0,0,0-1.4-3.76,7,7,0,0,0-3.68-2.21,9.51,9.51,0,0,0-2.21-.26,8.88,8.88,0,0,0-1.54.12A8.42,8.42,0,0,0,77.43,60c-1.53,1.21-2.69,3.08-4.05,4.62,1-1.88,1.59-4,3.07-5.84a11,11,0,0,1,6.16-3.56c.33,0,.67-.06,1-.08s.58,0,1.15,0a12,12,0,0,1,3,.51,9.93,9.93,0,0,1,5,3.44,8.23,8.23,0,0,1,1.76,6,9,9,0,0,1-1,3,11.61,11.61,0,0,1-.78,1.29,10.61,10.61,0,0,1-.94,1.19,9,9,0,0,1-2.55,1.88,11.42,11.42,0,0,1-2.86,1,11.88,11.88,0,0,1-6-.29,9.79,9.79,0,0,1-2.77-1.45,14.67,14.67,0,0,1-2.12-2A31,31,0,0,1,72.38,65.19Z"/><path class="cls-6" d="M75.32,64l-2.63,1.66a26.18,26.18,0,0,0-3.14-3.9c-.59-.62-1.2-1.21-1.83-1.79a6.48,6.48,0,0,0-1.79-1.14,8.44,8.44,0,0,0-4.41-.53,7.83,7.83,0,0,0-4,1.7,9.55,9.55,0,0,0-1.36,1.75,6.48,6.48,0,0,0-.78,2,5,5,0,0,0,.92,3.86,6.8,6.8,0,0,0,3.43,2.54,9.13,9.13,0,0,0,2.17.45,11.45,11.45,0,0,0,1.55,0A10.37,10.37,0,0,0,69,69.39a11.68,11.68,0,0,0,4.4-4.14,17.07,17.07,0,0,1-1.42,3,10.67,10.67,0,0,1-2.27,2.57,12.52,12.52,0,0,1-6.4,2.9c-.34,0-.68,0-1,0s-.58,0-1.15-.09a12,12,0,0,1-2.93-.76,9.8,9.8,0,0,1-4.69-3.94,8.37,8.37,0,0,1-1.15-3,7.46,7.46,0,0,1,.13-3.26,9.72,9.72,0,0,1,1.26-2.84c.29-.44.55-.8.87-1.2a8.76,8.76,0,0,1,1.13-1.16,11,11,0,0,1,5.62-2.27,11.47,11.47,0,0,1,6,.83,10,10,0,0,1,2.59,1.72c.67.62,1.32,1.25,1.95,1.91A29.75,29.75,0,0,1,75.32,64Z"/><path class="cls-4" d="M63.9,70.67c-1.73.42-9.46-.62-9.46-6.48,0-3.53,3.79-6.18,7.2-6.29a6.11,6.11,0,0,1,5.52,1.79A7.24,7.24,0,0,0,61.1,59c-2.16.84-4.21,3.31-4,5.74a4.35,4.35,0,0,0,1.07,2.33,9.68,9.68,0,0,0,3.18,2.3,15.26,15.26,0,0,0,1.48.81C63,70.24,63.75,70.71,63.9,70.67Z"/><path class="cls-4" d="M83.3,70.53c1.73.77,8.71.16,9-6.09.14-3.71-3.44-6.52-7.11-6.32-3.75-.45-5.45.68-5.45.68,1.83-1,4.17-.31,6.17.46,2.16.84,4.21,3.31,4,5.74a4.35,4.35,0,0,1-1.07,2.33,9.68,9.68,0,0,1-3.18,2.3,15.83,15.83,0,0,1-1.59.68C83.83,70.36,83.45,70.57,83.3,70.53Z"/><circle class="cls-7" cx="83.55" cy="64.42" r="6.4"/><circle class="cls-7" cx="63.39" cy="64.27" r="6.4"/><path class="cls-7" d="M83.27,58s-4.94-.53-8.61,5c0,0,3.4,8,8.89,7.81"/><path class="cls-7" d="M63.65,57.84s7.81,0,9.16,8.08c0,0-2.39,4.51-8.91,4.75"/><path class="cls-7" d="M97.23,49.5c0,5.35-.46,11.25-.46,11.25A24.76,24.76,0,0,0,94.5,49.5Z"/><path class="cls-8" d="M59.21,126s.75-4.24,10.33-4.24l-9.08.13s-3.78.36-3.71,4.11Z"/><path class="cls-8" d="M69.94,109.32c.25-.06-34.73.89-32-52.42l-.42.35a3.45,3.45,0,0,0-1,2.39c-.81,7.89-2.89,47.22,33,50.25Z"/><path class="cls-9" d="M48.93,50.7H57.2a2.78,2.78,0,0,0,2.42-1.3A2.93,2.93,0,0,0,60,47.93a2,2,0,0,1-1.91,1.57H49Z"/><path class="cls-9" d="M60,42.1c0,.14,0,.27-.05.39a2.84,2.84,0,0,1-2.83,2.18H49.46c.1-.62.18-.91.21-1.17h8.42A1.82,1.82,0,0,0,60,42.1Z"/><path class="cls-9" d="M60.12,35.92a2.63,2.63,0,0,1-.58,1.7,2.74,2.74,0,0,1-2.16,1H51.24a6.7,6.7,0,0,1,.38-1.08h6.59l.28,0a1.68,1.68,0,0,0,.95-.43,1.59,1.59,0,0,0,.41-.5A2.06,2.06,0,0,0,60.12,35.92Z"/><line class="cls-10" x1="19.17" y1="92.38" x2="19.17" y2="89.31"/><line class="cls-10" x1="19.17" y1="97.48" x2="19.17" y2="94.41"/><line class="cls-10" x1="20.17" y1="93.4" x2="23.24" y2="93.4"/><line class="cls-10" x1="15.1" y1="93.4" x2="18.17" y2="93.4"/><line class="cls-10" x1="19.94" y1="92.82" x2="22.11" y2="90.65"/><line class="cls-10" x1="19.94" y1="93.97" x2="22.11" y2="96.14"/><line class="cls-10" x1="16.24" y1="96.24" x2="18.41" y2="94.07"/><line class="cls-10" x1="16.24" y1="90.49" x2="18.41" y2="92.66"/><line class="cls-10" x1="109.96" y1="108.87" x2="109.96" y2="105.8"/><line class="cls-10" x1="109.96" y1="113.98" x2="109.96" y2="110.91"/><line class="cls-10" x1="110.96" y1="109.89" x2="114.03" y2="109.89"/><line class="cls-10" x1="105.89" y1="109.89" x2="108.96" y2="109.89"/><line class="cls-10" x1="110.73" y1="109.31" x2="112.9" y2="107.14"/><line class="cls-10" x1="110.73" y1="110.46" x2="112.9" y2="112.64"/><line class="cls-10" x1="107.02" y1="112.73" x2="109.19" y2="110.56"/><line class="cls-10" x1="107.02" y1="106.99" x2="109.19" y2="109.16"/><line class="cls-10" x1="107.42" y1="19.75" x2="107.42" y2="16.68"/><line class="cls-10" x1="107.42" y1="24.86" x2="107.42" y2="21.79"/><line class="cls-10" x1="108.42" y1="20.77" x2="111.49" y2="20.77"/><line class="cls-10" x1="103.36" y1="20.77" x2="106.43" y2="20.77"/><line class="cls-10" x1="108.2" y1="20.19" x2="110.37" y2="18.02"/><line class="cls-10" x1="108.2" y1="21.35" x2="110.37" y2="23.52"/><line class="cls-10" x1="104.49" y1="23.61" x2="106.66" y2="21.44"/><line class="cls-10" x1="104.49" y1="17.87" x2="106.66" y2="20.04"/><line class="cls-10" x1="32.59" y1="32.14" x2="32.59" y2="29.07"/><line class="cls-10" x1="32.59" y1="37.25" x2="32.59" y2="34.18"/><line class="cls-10" x1="33.59" y1="33.16" x2="36.65" y2="33.16"/><line class="cls-10" x1="28.52" y1="33.16" x2="31.59" y2="33.16"/><line class="cls-10" x1="33.36" y1="32.58" x2="35.53" y2="30.41"/><line class="cls-10" x1="33.36" y1="33.74" x2="35.53" y2="35.91"/><line class="cls-10" x1="29.65" y1="36" x2="31.82" y2="33.83"/><line class="cls-10" x1="29.65" y1="30.26" x2="31.82" y2="32.43"/><path class="cls-11" d="M79.06,97.48a23.12,23.12,0,0,1-2.9.53,25.81,25.81,0,0,1-6.06.13,17.85,17.85,0,0,1-3.41-.66Z"/><path class="cls-9" d="M69.46,97.48a14,14,0,0,1-2.76-1.17c-1-.4-2.06-.8-3.07-1.24a28,28,0,0,1-5.83-3.26c-4.65-3.54-7.45-9.1-8.7-14.81.12.58,0,1.3.12,1.9a18.82,18.82,0,0,0,.42,2,20.86,20.86,0,0,0,2.21,5.19,24,24,0,0,0,10.23,9.14,25.06,25.06,0,0,0,7.38,2.27"/><path class="cls-9" d="M76.63,102S87,102,97.36,90.81c0,0-5.83,9.55-19.36,12.12C78,102.93,76.63,103.26,76.63,102Z"/><path class="cls-8" d="M48.89,53.32H57s-8.1,1.62-7.81,11.51C49.18,64.83,48.55,53.64,48.89,53.32Z"/><path class="cls-8" d="M53.54,34.18a25.21,25.21,0,0,1,10.11-9s-9,6-8,9Z"/></svg>